<svg xmlns="http://www.w3.org/2000/svg" viewBox="0 0 245.94 111.44"><defs><style>.cls-1{fill:#f19e00;}</style></defs><title>EMECE</title><g id="Capa_2" data-name="Capa 2"><g id="Capa_1-2" data-name="Capa 1"><path class="cls-1" d="M28.79,57.38c1.75-.21,3.42-.39,4.78-.53.2,5.36.56,10.74,1.22,16.09a111,111,0,0,0,3.09,16c.8,2.91,5.79,3.57,7,.62a169.73,169.73,0,0,1,7.82-17.13c2.81-5.52,5.69-11,8.22-16.52C64,49.05,66.47,42,69,35.05a150.88,150.88,0,0,1,.09,23c-.47,8.41-1.29,17.14-2,24.91a3.83,3.83,0,0,0,7.08,1.6c.32-3.54,2.67-11.79,5.25-20.29S84.8,47.11,86.19,42.5c-.23,2.25-.46,4.5-.71,6.77-.59,5.7-1.11,11.45-1.38,17.25a139.36,139.36,0,0,0,.23,17.79c.27,3.64,5.55,4.83,7.16,1.59,2.35-4.85,2.79-10.84,4.05-16.05,1.49-6.2,3-12.32,4.69-18.36,1-3.84,2.19-7.88,3.48-11.88s2.74-8,4.4-11.75c-.94,7-1.83,15.72-2.32,24.44A161.12,161.12,0,0,0,106,76.92c.39,3.92.19,7.87,3.69,10.23-23,.8-46.2,2-68.6,7.61-4.53,1.14-2.24,8,2.29,6.9,23.21-5.79,47.43-6.68,71.25-7.4,24-.73,48.12-.45,72.16.49,4.67.18,4.27-7.08-.38-7.26-18.85-.73-37.72-1.06-56.58-.82l.24-.32c2.78-4.18,14.37-16.64,17.54-20.33-1.14,5.12-1.69,7.25-2.92,12.46-.68,2.88,3.65,5.94,6,3.92,6.94-5.91,14.5-11.62,21.82-16.81h0c.3-.16.54-.39.82-.57,1.23-.89,2.45-1.76,3.69-2.67-.77,5.44-2.07,12.4-3.91,16.83-2.09,3.45,4,7.25,6.47,4.2,7.65-4.49,10.59-7.36,19.39-13.7,2-1.41,3.2.84,5.4,0s6-7.07,7.07-4.15-1.23,7.45-1.18,9.76,1.78,4.41,3.07,4.51,2.54-.87,3.22-3.71-1.54-8.52-1.65-11a15.44,15.44,0,0,1,.69-5.84c.36-.85,4-3.37,6.22-5,5.31-3.32,6.14-3.08,11.37-5,6-2.16,2.4-7.48-2-6.69s-15.77,7.65-26.31,14.64-20.6,14.3-22.07,15.54c.66-4.94,2-11.76,2.87-16.57,6.52-6.58,15.53-13.87,20.76-21.09,1.11-1.52.73-3.38-.82-4.83-6.16-5.65-10.39-12.65-14.87-19.21-1.57-2.28-6.27-1.52-6.94,1-1,6.16-1.72,12.87-2.43,19.73s-1.23,12.69-2.54,19.62c-1.3,1-18.06,13.66-24.29,18.26,1.57-7,3.07-13.94,4.06-21,.63-4.6,1-9.21,1.26-13.8s.51-9.12.87-13.61c5.79,1.53,10.24,1.24,16.6-.73,4.21-1.31,1.35-7.71-2.9-6.4-5.61,1.74-9.63,2-15.53-.23-2.14-.79-4.72-.12-5,2.17-.46,4.21-.79,8.47-1.07,12.75s-.54,8.68-1,13c-2-2.58-7.27-9.57-12.7-16.25S128.23,12.6,125.61,11a3.58,3.58,0,0,0-4.73,1.35c-1.86,3.17.19,7.67.73,11.15.74,4.91,1.16,9.16,1.39,13.41s.29,8.53.36,13.5c-3.23,5.77-6.48,13.44-9.67,19.78-2.36,4.61-2.12,4.1,0,0a158.77,158.77,0,0,1,0-28.09c.7-9.16,2-18.08,3.06-26.42.59-4.42-7-5-8.54-2.88A71.75,71.75,0,0,0,100.62,27c-2.1,5.08-3.85,10.37-5.47,15.47-.86,2.71-2.38,8.24-2.38,8.24h0q-1.69,6,0,0c.24-2.56.47-5.13.71-7.68.52-5.48.79-11,.93-16.42C94.48,23,95,19.35,93.47,16c-1.42-3.21-6-2.89-6.89.24-1.48,5.19-3.16,10.4-4.83,15.63s-3.37,10.57-4.93,16c-.33,1.21-.7,2.4-1,3.61.06-.77.17-1.56.22-2.34.26-4.55.24-10.29,0-16s-.63-11.39-1.22-15.86c-.62-2.92-5.64-2.2-7.15,1.19-2,4.51-3.73,9.14-5.45,13.84s-3.42,9.46-5.32,14.17c-3.74-4.74-7.51-8.75-10-14.29C44.12,26.19,42.38,20,40.41,13.91c-1-3-5-2.77-6.6-.58-2,2.74-1.47,15-1.45,18.8s.94,13.7,1,17.62c-6.36.88-14.17,1.49-21.13,3.47-4.06,1.35-2.6,6.58-.6,7.31s4.69-1,5.69-1.86,3.63-1,4.58-.83,1.83.56,1.94,2.3c0,0-.15,3.66-.17,6.37S22,72.68,21.79,75.12s.84,5.18,3.38,4.81,3-2.47,2.88-4.91-1-2.45-1.35-5.6a76.49,76.49,0,0,1,.18-9.5c.06-1.43,1.05-2.32,2.63-2.63m159-24.19c.36-4,.7-7.9,1.08-11.88a89.52,89.52,0,0,0,9.11,11.39c.59.9-5.44,6.84-11.42,12.52C187.78,41.06,188.17,37.07,188.53,33.1Zm-148,2.15c.13.28.24.57.38.85a55.45,55.45,0,0,0,7.48,11c-2.45.63-5.1,1.11-7.7,1.51C40.58,44.09,40.52,39.63,40.48,35.25Zm8.08,28.87c-2,3.79-4,7.65-5.88,11.55a174.38,174.38,0,0,1-1.85-20,72.47,72.47,0,0,0,13.39-2.92C52.47,56.53,50.52,60.32,48.56,64.12ZM114.36,87a3.15,3.15,0,0,0,.81-1c.19-.46.41-.92.63-1.38,2.47-5.38,5.25-13,8.21-18.83a.6.6,0,0,1,.09-.15c-.4,6-.34,10.7-1.12,16a6.27,6.27,0,0,0,2.24,5.17Q119.79,86.83,114.36,87Zm27.8-45.67c-1.09.28-11,2.83-12.61,3.55,0-1.33.06-2.69.09-4,.13-7.14.15-11.5-1.16-18.6C130.38,26.88,143.34,40.91,142.16,41.33Zm7.17,14.58a3.26,3.26,0,0,0-3.55.89c-5.6,6-8.7,9.09-14.33,14.77,0-.14,0-.29,0-.44-.32-5.62-.66-12.68-.79-18.18,8.07-3.19,20.78-7.25,21-8.28C151.44,46.41,149.66,54.16,149.33,55.91Z"/><path d="M42.36,111.44a13.4,13.4,0,0,1-13-10.35A13.09,13.09,0,0,1,29.54,94a12.4,12.4,0,0,1-1-2.48c-.21-.76-.41-1.52-.6-2.29-.47.12-.93.21-1.39.28A12.19,12.19,0,0,1,16.4,86.33a14.8,14.8,0,0,1-4.23-12,21,21,0,0,1,.75-4,12.56,12.56,0,0,1-4.59-.75c-5-1.81-8.41-7.17-8.33-13A13.26,13.26,0,0,1,9.19,44.06l.4-.12a95.76,95.76,0,0,1,13.6-2.63c-.25-3.62-.47-7-.48-9.14,0-.46,0-1.07,0-1.79-.22-12,.22-18.51,3.35-22.77A14,14,0,0,1,39.29,2.16a12.9,12.9,0,0,1,10.26,8.65.36.36,0,0,1,0,.11c.42,1.3.84,2.6,1.25,3.92,1.17,3.68,2.28,7.21,3.63,10.55,1.25-3.32,2.73-7.11,4.37-10.85A14.75,14.75,0,0,1,73.67,5.81,12.32,12.32,0,0,1,80.1,8.39,13.15,13.15,0,0,1,89,4.07a13.29,13.29,0,0,1,10.64,4c.2-.3.41-.6.62-.89,3.77-5.35,11.31-6.22,16.82-4.36a13.37,13.37,0,0,1,3.69-1.55,12.7,12.7,0,0,1,9.81,1.44c2.22,1.34,5.44,4,13.48,13.68,0-.48.1-1,.15-1.43a12.28,12.28,0,0,1,5.81-9.17,14.05,14.05,0,0,1,12.13-1c3.5,1.31,5.24,1.32,9.31.06a13.17,13.17,0,0,1,5.72-.47,13.87,13.87,0,0,1,7.87-4.2,13.51,13.51,0,0,1,13.53,5.31c.76,1.11,1.48,2.19,2.2,3.27,3.56,5.32,6.92,10.34,11.25,14.3,4.84,4.53,5.93,11,3,16.28,9.53-5.49,12.73-6.06,14.38-6.35,7.23-1.29,14.31,3,16.12,9.72,1.44,5.38-.8,12.54-9.11,15.55-1.39.5-2.49.86-3.45,1.18a20.19,20.19,0,0,0-5.8,2.72l-.76.55-1.91,1.4c0,.1,0,.21,0,.32.07.45.32,1.46.49,2.15.87,3.59,1.87,7.65.9,11.69-2.11,8.8-8.52,11.47-13.38,11.08-5.06-.4-9.46-4.35-11.18-9.5-1.4,1-2.65,2-3.81,2.86l-.56.42a13.77,13.77,0,0,1,.74,15.39,12.59,12.59,0,0,1-11.33,5.83c-25.69-1-49.08-1.16-71.49-.48-21.68.65-46.25,1.39-69.21,7.12A13.73,13.73,0,0,1,42.36,111.44Zm182.16-46.8h0ZM169.64,31.8l0,.47-.19,3.17c-.21,3.5-.49,7.52-1,11.66L169.9,46c.69-4.35,1.11-8.44,1.57-13l.15-1.37Z"/><path class="cls-1" d="M28.79,57.38c1.75-.21,3.42-.39,4.78-.53.2,5.36.56,10.74,1.22,16.09a111,111,0,0,0,3.09,16c.8,2.91,5.79,3.57,7,.62a169.73,169.73,0,0,1,7.82-17.13c2.81-5.52,5.69-11,8.22-16.52C64,49.05,66.47,42,69,35.05a150.88,150.88,0,0,1,.09,23c-.47,8.41-1.29,17.14-2,24.91a3.83,3.83,0,0,0,7.08,1.6c.32-3.54,2.67-11.79,5.25-20.29S84.8,47.11,86.19,42.5c-.23,2.25-.46,4.5-.71,6.77-.59,5.7-1.11,11.45-1.38,17.25a139.36,139.36,0,0,0,.23,17.79c.27,3.64,5.55,4.83,7.16,1.59,2.35-4.85,2.79-10.84,4.05-16.05,1.49-6.2,3-12.32,4.69-18.36,1-3.84,2.19-7.88,3.48-11.88s2.74-8,4.4-11.75c-.94,7-1.83,15.72-2.32,24.44A161.12,161.12,0,0,0,106,76.92c.39,3.92.19,7.87,3.69,10.23-23,.8-46.2,2-68.6,7.61-4.53,1.14-2.24,8,2.29,6.9,23.21-5.79,47.43-6.68,71.25-7.4,24-.73,48.12-.45,72.16.49,4.67.18,4.27-7.08-.38-7.26-18.85-.73-37.72-1.06-56.58-.82l.24-.32c2.78-4.18,14.37-16.64,17.54-20.33-1.14,5.12-1.69,7.25-2.92,12.46-.68,2.88,3.65,5.94,6,3.92,6.94-5.91,14.5-11.62,21.82-16.81h0c.3-.16.54-.39.82-.57,1.23-.89,2.45-1.76,3.69-2.67-.77,5.44-2.07,12.4-3.91,16.83-2.09,3.45,4,7.25,6.47,4.2,7.65-4.49,10.59-7.36,19.39-13.7,2-1.41,3.2.84,5.4,0s6-7.07,7.07-4.15-1.23,7.45-1.18,9.76,1.78,4.41,3.07,4.51,2.54-.87,3.22-3.71-1.54-8.52-1.65-11a15.44,15.44,0,0,1,.69-5.84c.36-.85,4-3.37,6.22-5,5.31-3.32,6.14-3.08,11.37-5,6-2.16,2.4-7.48-2-6.69s-15.77,7.65-26.31,14.64-20.6,14.3-22.07,15.54c.66-4.94,2-11.76,2.87-16.57,6.52-6.58,15.53-13.87,20.76-21.09,1.11-1.52.73-3.38-.82-4.83-6.16-5.65-10.39-12.65-14.87-19.21-1.57-2.28-6.27-1.52-6.94,1-1,6.16-1.72,12.87-2.43,19.73s-1.23,12.69-2.54,19.62c-1.3,1-18.06,13.66-24.29,18.26,1.57-7,3.07-13.94,4.06-21,.63-4.6,1-9.21,1.26-13.8s.51-9.12.87-13.61c5.79,1.53,10.24,1.24,16.6-.73,4.21-1.31,1.35-7.71-2.9-6.4-5.61,1.74-9.63,2-15.53-.23-2.14-.79-4.72-.12-5,2.17-.46,4.21-.79,8.47-1.07,12.75s-.54,8.68-1,13c-2-2.58-7.27-9.57-12.7-16.25S128.23,12.6,125.61,11a3.58,3.58,0,0,0-4.73,1.35c-1.86,3.17.19,7.67.73,11.15.74,4.91,1.16,9.16,1.39,13.41s.29,8.53.36,13.5c-3.23,5.77-6.48,13.44-9.67,19.78-2.36,4.61-2.12,4.1,0,0a158.77,158.77,0,0,1,0-28.09c.7-9.16,2-18.08,3.06-26.42.59-4.42-7-5-8.54-2.88A71.75,71.75,0,0,0,100.62,27c-2.1,5.08-3.85,10.37-5.47,15.47-.86,2.71-2.38,8.24-2.38,8.24h0q-1.69,6,0,0c.24-2.56.47-5.13.71-7.68.52-5.48.79-11,.93-16.42C94.48,23,95,19.35,93.47,16c-1.42-3.21-6-2.89-6.89.24-1.48,5.19-3.16,10.4-4.83,15.63s-3.37,10.57-4.93,16c-.33,1.21-.7,2.4-1,3.61.06-.77.17-1.56.22-2.34.26-4.55.24-10.29,0-16s-.63-11.39-1.22-15.86c-.62-2.92-5.64-2.2-7.15,1.19-2,4.51-3.73,9.14-5.45,13.84s-3.42,9.46-5.32,14.17c-3.74-4.74-7.51-8.75-10-14.29C44.12,26.19,42.38,20,40.41,13.91c-1-3-5-2.77-6.6-.58-2,2.74-1.47,15-1.45,18.8s.94,13.7,1,17.62c-6.36.88-14.17,1.49-21.13,3.47-4.06,1.35-2.6,6.58-.6,7.31s4.69-1,5.69-1.86,3.63-1,4.58-.83,1.83.56,1.94,2.3c0,0-.15,3.66-.17,6.37S22,72.68,21.79,75.12s.84,5.18,3.38,4.81,3-2.47,2.88-4.91-1-2.45-1.35-5.6a76.49,76.49,0,0,1,.18-9.5c.06-1.43,1.05-2.32,2.63-2.63m159-24.19c.36-4,.7-7.9,1.08-11.88a89.52,89.52,0,0,0,9.11,11.39c.59.9-5.44,6.84-11.42,12.52C187.78,41.06,188.17,37.07,188.53,33.1Zm-148,2.15c.13.28.24.57.38.85a55.45,55.45,0,0,0,7.48,11c-2.45.63-5.1,1.11-7.7,1.51C40.58,44.09,40.52,39.63,40.48,35.25Zm8.08,28.87c-2,3.79-4,7.65-5.88,11.55a174.38,174.38,0,0,1-1.85-20,72.47,72.47,0,0,0,13.39-2.92C52.47,56.53,50.52,60.32,48.56,64.12ZM114.36,87a3.15,3.15,0,0,0,.81-1c.19-.46.41-.92.63-1.38,2.47-5.38,5.25-13,8.21-18.83a.6.6,0,0,1,.09-.15c-.4,6-.34,10.7-1.12,16a6.27,6.27,0,0,0,2.24,5.17Q119.79,86.83,114.36,87Zm27.8-45.67c-1.09.28-11,2.83-12.61,3.55,0-1.33.06-2.69.09-4,.13-7.14.15-11.5-1.16-18.6C130.38,26.88,143.34,40.91,142.16,41.33Zm7.17,14.58a3.26,3.26,0,0,0-3.55.89c-5.6,6-8.7,9.09-14.33,14.77,0-.14,0-.29,0-.44-.32-5.62-.66-12.68-.79-18.18,8.07-3.19,20.78-7.25,21-8.28C151.44,46.41,149.66,54.16,149.33,55.91Z"/></g></g></svg>