<svg xmlns="http://www.w3.org/2000/svg" viewBox="0 0 415.19 528.53"><defs><style>.cls-1{stroke:#f19e00;stroke-miterlimit:10;stroke-width:10px;}.cls-2{fill:#fff;}.cls-3{fill:#1f140f;}.cls-4{fill:#f19e00;}.cls-5{fill:#000010;}.cls-6{fill:#9d9c9c;}.cls-7{fill:none;stroke:#000;stroke-linecap:round;stroke-linejoin:round;stroke-width:13.54px;}.cls-8{fill:#f7bd00;}</style></defs><title>SMC REDUCIDO</title><g id="Capa_2" data-name="Capa 2"><g id="Capa_1-2" data-name="Capa 1"><path class="cls-1" d="M216.88,521.2a19.72,19.72,0,0,1-18.58,0C155.26,498.13,119,466.59,85.09,423,28.93,350.7.28,278.59,5.64,185.26L13.1,47.59A26.47,26.47,0,0,1,39,22.72c92-1.58,127.15-9.2,164.42-17.27h0a19.78,19.78,0,0,1,8.39,0h0c37.27,8.07,72.47,15.69,164.4,17.27a26.49,26.49,0,0,1,25.9,24.87l7.46,137C414.9,277.87,386.26,350.7,330.1,423,296.22,466.59,259.94,498.13,216.88,521.2Z"/><path class="cls-2" d="M223,82.56c-1.34.34-24.27,7.11-26.77,8s-27.21,10-27.46,10l-2.27.83-.77-2.28C163.88,93.62,155,81.75,151.21,78a6.64,6.64,0,0,1-1.92-12.93,6.62,6.62,0,0,1,8.09,3.39A118,118,0,0,1,172.6,69.8c.67-4.82,2.1-15.23,3-21.69A6.55,6.55,0,0,1,173,43a6.63,6.63,0,0,1,4.52-6.42,6.41,6.41,0,0,1,2-.35,6.64,6.64,0,0,1,6.77,6.51,7,7,0,0,1-.18,1.67l15.13,16.37a69.25,69.25,0,0,1,12-11.4,8.78,8.78,0,0,1-.09-1,6.63,6.63,0,0,1,4.51-6.41,7,7,0,0,1,2-.35,6.64,6.64,0,0,1,4.18,11.9c-2.58,9.36.94,26.21,1,26.38l.39,2.21Z"/><path class="cls-2" d="M224.07,48.14a4.3,4.3,0,0,1-2.32,3.9c-2.49,10.18.73,28.23.73,28.23-.94.22-24.38,7.14-27,8S168,98.35,168,98.35c-2.13-6.27-12.19-19.58-15.89-22.75a5.67,5.67,0,0,1-.58.05,4.29,4.29,0,1,1,4.16-4.82c7.82-.25,18.93,1.66,18.93,1.66.32-2.2,2.5-18.09,3.54-25.63a4.29,4.29,0,1,1,5.79-4.1,4.43,4.43,0,0,1-.55,2.17l18,19.5c4.68-6.85,12.37-12.58,14.59-14.19a4.19,4.19,0,0,1-.5-1.93,4.29,4.29,0,1,1,8.57-.17Z"/><path class="cls-3" d="M224.07,48.14a4.3,4.3,0,0,1-2.32,3.9c-3.11,7.91,0,23.89.73,28.23-.94.22-24.38,7.14-27,8S168,98.35,168,98.35c-2.13-6.27-12.19-19.58-15.89-22.75a5.67,5.67,0,0,1-.58.05,4.29,4.29,0,1,1,4.16-4.82c7.82-.25,18.93,1.66,18.93,1.66.32-2.2,2.5-18.09,3.54-25.63a4.29,4.29,0,1,1,5.79-4.1,4.43,4.43,0,0,1-.55,2.17l18,19.5c4.68-6.85,12.37-12.58,14.59-14.19a4.19,4.19,0,0,1-.5-1.93,4.29,4.29,0,1,1,8.57-.17Z"/><path class="cls-4" d="M216.47,52.34l2.68-.73c.14-.87.24-1.33.24-1.33C218.37,51,217.4,51.65,216.47,52.34ZM175.16,75.72l-14.6,5.91c.88,1.06,1.76,2.18,2.62,3.32l27-10.93-.62-1.84,28.76-7.89c0-.76,0-1.5,0-2.2L203.2,66.23c-.73,1.17-1.06,1.85-1.06,1.85L201,66.84l-12.12,3.33L177.05,75l-.15,1.5C176.32,76.19,175.74,76,175.16,75.72Zm-22.52-2.85s.93.92,2.36,2.44l6.06-2.45A58.86,58.86,0,0,0,152.64,72.87ZM181.83,49.4l2.34-.64-3.91-4.2-.85,7.92,3-1.23Zm10.88,32.16L167.64,91.71a23.23,23.23,0,0,1,1.67,3.71l24.7-10-.62-1.84,25.78-7.07c-.1-.72-.18-1.43-.26-2.13Zm-7-20.77,7.71-2.11-1.63-1.75L185,58.78l-6.53,2.65c-.16,1.51-.32,3.05-.48,4.57l8.32-3.36Z"/><path class="cls-4" d="M190.78,75.87,164.37,86.56c.82,1.15,1.59,2.31,2.29,3.45l25.43-10.29-.63-1.84,27.09-7.44c-.05-.73-.1-1.45-.13-2.16Z"/><path class="cls-4" d="M207,61.17,218.47,58c.05-.81.11-1.56.17-2.25l-8.95,2.46C208.67,59.26,207.77,60.25,207,61.17Z"/><path class="cls-4" d="M183.75,55.1l5-1.38L187.15,52l-4.08,1.12-3.89,1.57c-.15,1.45-.31,3-.48,4.58l5.68-2.3Z"/><path class="cls-4" d="M187.61,66.49,198,63.64l-1.63-1.75-9.44,2.59-9.17,3.71c-.17,1.58-.33,3.12-.48,4.58l10.95-4.44Z"/><path class="cls-4" d="M165.21,73.27l-8.81,3.57c.87,1,1.84,2,2.85,3.23l13.09-5.3A48.3,48.3,0,0,0,165.21,73.27Z"/><path class="cls-4" d="M216.47,52.34l2.68-.73c.14-.87.24-1.33.24-1.33C218.37,51,217.4,51.65,216.47,52.34ZM175.16,75.72l-14.6,5.91c.88,1.06,1.76,2.18,2.62,3.32l27-10.93-.62-1.84,28.76-7.89c0-.76,0-1.5,0-2.2L203.2,66.23c-.73,1.17-1.06,1.85-1.06,1.85L201,66.84l-12.12,3.33L177.05,75l-.15,1.5C176.32,76.19,175.74,76,175.16,75.72Zm-22.52-2.85s.93.92,2.36,2.44l6.06-2.45A58.86,58.86,0,0,0,152.64,72.87ZM181.83,49.4l2.34-.64-3.91-4.2-.85,7.92,3-1.23Zm10.88,32.16L167.64,91.71a23.23,23.23,0,0,1,1.67,3.71l24.7-10-.62-1.84,25.78-7.07c-.1-.72-.18-1.43-.26-2.13Zm-7-20.77,7.71-2.11-1.63-1.75L185,58.78l-6.53,2.65c-.16,1.51-.32,3.05-.48,4.57l8.32-3.36Z"/><path class="cls-4" d="M190.78,75.87,164.37,86.56c.82,1.15,1.59,2.31,2.29,3.45l25.43-10.29-.63-1.84,27.09-7.44c-.05-.73-.1-1.45-.13-2.16Z"/><path class="cls-4" d="M207,61.17,218.47,58c.05-.81.11-1.56.17-2.25l-8.95,2.46C208.67,59.26,207.77,60.25,207,61.17Z"/><path class="cls-4" d="M183.75,55.1l5-1.38L187.15,52l-4.08,1.12-3.89,1.57c-.15,1.45-.31,3-.48,4.58l5.68-2.3Z"/><path class="cls-4" d="M187.61,66.49,198,63.64l-1.63-1.75-9.44,2.59-9.17,3.71c-.17,1.58-.33,3.12-.48,4.58l10.95-4.44Z"/><path class="cls-4" d="M165.21,73.27l-8.81,3.57c.87,1,1.84,2,2.85,3.23l13.09-5.3A48.3,48.3,0,0,0,165.21,73.27Z"/><circle class="cls-4" cx="179.62" cy="42.85" r="2.74"/><circle class="cls-4" cx="151.41" cy="71.36" r="2.74"/><circle class="cls-4" cx="219.78" cy="48.23" r="2.74"/><path class="cls-3" d="M305,119.64v0a44.49,44.49,0,0,0-.66-5.64,40,40,0,0,0-3.66-10.88l0,0a40.54,40.54,0,0,0-3-4.91,38.57,38.57,0,0,0-3.73-4.47,39.67,39.67,0,0,0-4.3-3.83l0,0c-.75-.56-1.5-1.11-2.3-1.63-.44-.3-.87-.56-1.23-.77l-.08,0c-.37-.23-.75-.46-1.18-.68a37.57,37.57,0,0,0-7.7-3.28l-.08-.17a3.18,3.18,0,0,0-1.77-1.7l-.95-.36h0l-.35-.22-.15-.1-.78-.51a13.67,13.67,0,0,0-1.59-.85,8.61,8.61,0,0,0-1.36-.44l-.1,0-.22,0-.19,0h0l-.27,0-1.12-.13c-.73-.08-1.45-.13-2.14-.15h-.16a4.16,4.16,0,0,0-.49,0h-1.56l-1,0c-.31,0-.57,0-.79.07l-.27,0-.49,0h0l-.6.07h0l-.9.14h-.08l-1.85.35-.21,0a3,3,0,0,0-.67.19l-.56.23,0,0-.64.29c-.23.1-.44.21-.65.32l-.33.17c-.23.08-.47.19-.71.3l0,0,0,0c-.12-.16-.19-.27-.31-.44l-.46-.7c-.47-.7-1-1.43-1.47-2.17l-.78-1.12,0,0-.41-.56-.06-.08-.23-.3,0-.07-.24-.28a2.22,2.22,0,0,0-.22-.23,1.84,1.84,0,0,0-.26-.24l-.06,0c-.68-.66-1.41-1.35-2.29-2.17a3.19,3.19,0,0,0-.82-.55l-.49-.23-.08,0-.65-.43,0,0,0,0a10.63,10.63,0,0,0-1.35-.76l-.61-.24h0l-.27-.11-1.39-.66-1.51-.72-.07,0-.32-.14a3.08,3.08,0,0,0-.84-.23l-3.69-.49-1.3-.16h0l-.24,0h-.86c-.38,0-.67,0-.9.06l-.64.09c-.32,0-.65.1-1,.18-1,.2-2,.42-2.92.63l-.79.19-.27.06-.14,0-.67.16-.22.06h-.08l-.1,0-.12,0-.15,0a13.73,13.73,0,0,0-1.8.67c-.44.14-.89.29-1.41.49l-.06,0-.37.15-.05,0-.33.14h0l-3.13,1.39-3.26,1.47-2.26-.32-4.63-.62-3.2-.41-2-.25h-.05c-.39,0-.92-.09-1.55-.11h-.87l-.84.05a14.71,14.71,0,0,0-3.3.71,14.25,14.25,0,0,0-1.63.66,14.92,14.92,0,0,0-1.45.8,14,14,0,0,0-1.4,1c-.21.16-.45.37-.63.53l-.1.08-.05,0-.16.14-.07.07-.25.25,0,0-.18.18h0l-.22.23-.11.13c-.19.2-.35.39-.51.59l0,0,0,0-3.64,4.51c-.1.13-.21.27-.32.39l-1,.1h0c-.46,0-1,.08-1.48.12l-4.57.37h-.07a14.75,14.75,0,0,0-1.55.26,13,13,0,0,0-6.49,3.74c-.13.14-.26.29-.38.44l-.09.1-.07.08c-.15.18-.29.37-.43.57a12.94,12.94,0,0,0-.82,1.26l0,.06-.13.24,0,.07-.3.58c-.55,1.09-1.1,2.14-1.55,3-.62,1.16-1.11,2-1.58,2.79l-.43.68c-.11.17-.21.32-.32.47l-.07.11-.18.26h0c-.35.12-.76.22-1.11.31-.84.21-1.74.38-2.58.53-.38.07-.71.13-1,.21h0a8.91,8.91,0,0,0-1.2.38,10.6,10.6,0,0,0-2.25,1.2,10.31,10.31,0,0,0-3.26,3.82l0,.07-.63,1.38,0,0-.6,1.37v0c-.45,1.06-.84,2-1.17,3a29.62,29.62,0,0,0-1,3.28,1.36,1.36,0,0,0,0,.17l-8.59,1.2h-.06l-3,.46c-1,.16-2.07.34-3,.51-1.93.34-4,.73-6.05,1.17l-.57.12a3.16,3.16,0,0,0-1.83,1.13l-.76,1-.07.1-.13.18-.06.08-.2.29-.06.1-.17.28-.06.09-.09.17a.22.22,0,0,0,0,.08l-.1.17,0,.06-.14.26-6,.4a3.14,3.14,0,0,0-2.59,1.67l-1,2,0,0c-.13.26-.26.51-.38.77-.23.48-.46,1-.69,1.55s-.43,1.06-.61,1.56c-.1.28-.19.56-.28.85s-.18.58-.25.85c-.18.63-.33,1.23-.44,1.83-.07.35-.12.71-.17,1.06s-.07.67-.09,1a15.53,15.53,0,0,0,0,2.26,11.72,11.72,0,0,0,.15,1.19l.43,2.74a3.18,3.18,0,0,0,2.7,2.65l5.54.76h0c.8.1,1.58.22,2.41.34l4.14.58.35.05.58.92a3.15,3.15,0,0,0,2.31,1.45l1.62.19c1,.12,2.08.26,3.18.42l1.05.14,1,.14,3.18.49,8.58,1.47,2.65.44,1.76.28,4.41.64c1.36.2,2.73.37,4.05.53l1.89.24c.49.6.95,1.14,1.41,1.64.67.75,1.31,1.41,1.94,2,.38.36.73.68,1.1,1,.19.17.39.33.59.49l0,0,.27.21,0,0,.29.23.11.08a3.39,3.39,0,0,0,1.21.52l1.75.62a3.19,3.19,0,0,0,1.06.18h.45a3,3,0,0,0,.78-.1l.33-.08c.75-.16,1.6-.3,2.51-.42a26,26,0,0,1,2.69-.23l.69,0h.66c.42,0,.82,0,1.19.05l.2,0,.3,0,.51.08.29.06.12.07c.83.56,1.6,1.07,2.37,1.56,1.09.7,2,1.23,2.81,1.73.48.28,1,.56,1.53.86l.73.38,0,0,.4.2.07,0,.71.34.61.28h0l.34.15h0l.15.07h0l.44.17.48.17h0l.05,0,.69.22h.07l.24.06h0l1.74.41a3.21,3.21,0,0,0,2.27-.33l1.54-.86.57-.3q.59-.3,1.26-.6c.81-.36,1.68-.69,2.58-1l.72-.23.61-.17c.42-.11.86-.22,1.3-.31l.69-.13h0l.18.14c.7.55,1.45,1.1,2.23,1.65s1.69,1.15,2.42,1.58c.48.28.95.54,1.4.77.27.13.53.26.79.37h0l.33.15.06,0,1.07.43a3.16,3.16,0,0,0,2.54-.08l.58-.27c1.3-.62,2.65-1.31,4.11-2.12s2.76-1.55,4-2.28l0,0c1.06-.67,2.46-1.56,3.85-2.57.59-.44,1.15-.88,1.65-1.29.88.53,1.82,1,2.84,1.55a52.5,52.5,0,0,0,5.36,2.32c.46.18.91.34,1.34.48l.05,0,1.37.46,1.4.43h0c.45.13.9.27,1.36.39,1.55.42,3.1.8,4.61,1.11l.06,0a3.63,3.63,0,0,0,.85.32l.51.11,1.37.29h0c.59.39,1.19.79,1.83,1.16l.71.43c.64.39,1.3.79,2,1.17l.05,0c.44.24.95.53,1.58.84s1.14.51,1.62.7l.16.07a27.66,27.66,0,0,0,3.54,1.15c.57.15,1.17.28,1.84.4h0c.52.09,1.15.2,1.81.27a25.77,25.77,0,0,0,2.9.17l1,0c.76,0,1.41-.09,2-.16.3,0,.61-.08.94-.14l1-.17h0a22.62,22.62,0,0,0,3.76-1.16c11.61-3.69,14.11-11.38,14.12-11.4a6.29,6.29,0,0,0,.62-4.39,4.75,4.75,0,0,0-.16-.6c-.05-.16-.11-.32-.18-.49a8.4,8.4,0,0,0-.46-.9,7,7,0,0,0-1.17-1.44c-.09-.09-.23-.21-.34-.3l0,0-.18-.15-.05,0c-.16-.12-.33-.25-.51-.37a48,48,0,0,0,3.8-4.32,41.68,41.68,0,0,0,3.11-4.52,40.19,40.19,0,0,0,2.52-5,36.73,36.73,0,0,0,2.76-11A44.05,44.05,0,0,0,305,119.64Z"/><path class="cls-2" d="M232.93,153.26c1.76.41,3.5.8,5.24,1.14s3.48.64,5.22.9l1.3.19c.44.07.87.13,1.31.18.86.12,1.73.23,2.61.32,1.73.2,3.48.36,5.22.52l.2,0,.13,0,.12,0,.56.23.39.16-.71-.23,1.27.14,1.26.14.45,0,.64.35,1.26.69c.42.23.84.46,1.28.68.85.45,1.72.92,2.57,1.34.42.22.84.43,1.19.59s.75.3,1.16.45c.84.3,1.68.57,2.53.8.42.11.84.22,1.26.31s.87.19,1.3.27c.87.16,1.72.28,2.57.36a20.08,20.08,0,0,0,5.13-.24,23.68,23.68,0,0,0,10-4.79c.39-.3.77-.59,1.14-.91l.53-.45a1.33,1.33,0,0,0,.17-.16l.08-.1,0,0,0,0a.93.93,0,0,0,.14-.31.77.77,0,0,0,0-.34.19.19,0,0,0,0-.08l0-.1a1.42,1.42,0,0,0-.08-.18,1.38,1.38,0,0,0-.28-.37l-.09-.09-.11-.09a1.55,1.55,0,0,0-.24-.19L289,154c-.42-.3-.85-.62-1.26-.95a21.07,21.07,0,0,1-2.28-2.16l-.72-.78.82-.74a28.91,28.91,0,0,0,5.77-7.28,31.68,31.68,0,0,0,1.93-4.19,35.65,35.65,0,0,0,1.32-4.35,40.49,40.49,0,0,0,1-8.87c0-.73,0-1.47-.06-2.21,0-.37,0-.73-.08-1.1l-.11-1.1a34.83,34.83,0,0,0-9.09-19.4l-.36-.4-.37-.4c-.25-.25-.5-.52-.76-.77l-.78-.76-.81-.73c-.55-.47-1.1-1-1.68-1.39-.28-.23-.58-.45-.87-.66s-.59-.44-.9-.64A34.81,34.81,0,0,0,276,92.89a40.91,40.91,0,0,0-4.05-1.81l-1.59-.59-.3-1.25c-.08-.36-.15-.67-.22-1l-.09-.41-.05-.2-.05-.2L271,89l-.28-.16-.18-.1-.15-.1-.15-.1-.13-.09-.24-.19c-.31-.25-.56-.48-.78-.68l-.59-.54c-.16-.15-.31-.26-.37-.32s0,0,0,0,0,0,0,0l-.05,0-.09,0-.19-.06-.78-.24c-.53-.16-1.08-.29-1.63-.41l-.38-.09-.45-.08-.81-.16-.83-.12c-.28,0-.6-.07-.89-.11l-.42,0-.4,0-.91-.07-1.75-.07.24,0-.53.08-.52.1-.53.11-.53.11-.23.06a2.57,2.57,0,0,0-.86.12,8.26,8.26,0,0,0-1,.37l-1.1.43a4.84,4.84,0,0,1-1.22.3l-.17-.67a5,5,0,0,0,.9-.56c.29-.22.57-.46.88-.7a8.86,8.86,0,0,1,1-.72,4.35,4.35,0,0,1,1.31-.56l-.23,0,.52-.27L257,83c.18-.08.36-.17.55-.24l.55-.23.24,0,1.84-.34.89-.14.5-.06.48,0c.31,0,.59-.07.92-.09l1,0,1,0h1c.64,0,1.28.07,1.93.14q.49,0,1,.12l.25,0,.12,0h.06l.11,0a5.49,5.49,0,0,1,.84.28,8.12,8.12,0,0,1,1.16.62l.84.55c.25.17.48.31.66.41l.13.07,0,0,.05,0h.09l.09,0,.85.32.51,1.16.11.25.11.27.2.51.34.89-1.88-1.84a35.92,35.92,0,0,1,9.77,3.73c.39.21.77.44,1.14.66s.76.46,1.13.71c.74.48,1.45,1,2.16,1.53a36.73,36.73,0,0,1,4,3.53,34,34,0,0,1,3.4,4.08,36.06,36.06,0,0,1,6.13,14.58,41.89,41.89,0,0,1,.61,5.23,39.83,39.83,0,0,1-.11,5.24,33.27,33.27,0,0,1-2.52,10.06,35.75,35.75,0,0,1-2.32,4.58,39.23,39.23,0,0,1-2.87,4.19,46.78,46.78,0,0,1-7,7.17l.11-1.52a14.9,14.9,0,0,0,2,2,11.68,11.68,0,0,0,1.12.84l.29.2.33.22a4.06,4.06,0,0,1,.36.26l.18.14.18.17a3.81,3.81,0,0,1,.65.79,3.62,3.62,0,0,1,.25.48l.09.25c0,.09.06.2.08.29a3.12,3.12,0,0,1,0,1.14c-.06.39.65,3.35-4.7,7.7-4.12,3.35-10.3,4.09-11.42,4.34l-.84.15-.85.12c-.53.07-1.12.11-1.68.14a22.14,22.14,0,0,1-3.37-.14c-.55-.06-1.09-.14-1.64-.24s-1.09-.21-1.63-.35a25.77,25.77,0,0,1-3.15-1c-.52-.21-1-.39-1.58-.68s-1-.53-1.46-.78c-.91-.5-1.76-1-2.64-1.57s-1.73-1.1-2.59-1.67l1.09.4-1.31-.26-1.31-.28-.51-.11-.19-.11-.55-.3.68.24-.15,0,.2,0c-1.8-.35-3.59-.78-5.37-1.26l-1.33-.38c-.44-.13-.88-.26-1.32-.41l-1.31-.44c-.43-.15-.87-.29-1.3-.46a51.48,51.48,0,0,1-5.06-2.19,37,37,0,0,1-4.75-2.8Z"/><path class="cls-2" d="M251.9,86.58a.47.47,0,0,1-.1-.25.44.44,0,0,1,0-.27,1.11,1.11,0,0,1,.18-.26c.11-.11.2-.18.24-.23s0,0,0,0a.33.33,0,0,0,0,.18.24.24,0,0,0,0,.07s0,0,0,0v0L252,85.6l-.88-1c-.29-.34-.59-.67-.89-1l-.48-.5-.46-.5-1.84-2-.91-1-.46-.47-.22-.22-.09-.08h0l0,0,.07.05,0,0,.09,0a.72.72,0,0,0,.2.09l-.38-.19c-.95-.54-1.9-1.08-2.84-1.63l.57.27a5.37,5.37,0,0,1-1.19-.43c-.32-.15-.59-.3-.82-.42a3.29,3.29,0,0,0-.57-.25s-.06,0-.07,0l-.21-.06-.49-.14c-.6-.19-1.15-.38-1.7-.58l-.82-.29-.4-.15-.19-.06-.09,0-.06,0,.49.11L234.07,75l-.83-.06-.4,0h-.18s0,0,0,0h0l-.21,0-.32.07-.72.2c-1,.29-2,.63-3.12,1-.27.09-.52.18-.9.28l-.26.08-.2.07h0l-.11,0a7.74,7.74,0,0,0-1.19.59l-.11.06-.26.1c-.34.12-.71.29-1,.44l-.24.12-.28.15-.56.29-2.38,1.25-2.37,1.25-2.38,1.24-.68.35-.89-.08-3.92-.36-3.92-.39-3.92-.4-1.93-.21-.69,0h-.3l-.33,0a6.15,6.15,0,0,0-1.81.52c-.2.1-.39.2-.57.31a4.67,4.67,0,0,0-.51.36l-.26.22-.1.09-.1.1-.16.17s-.05,0-.06.06l0,0-.2.21-.64.77c-.87,1-1.69,2-2.61,3l-.68.75c-.22.25-.45.51-.69.76s-.46.5-.73.76l-.19.19-.21.21-.25.24-.15.13-.11.09-.78.64-.57,0H188l-.21,0-.54.06-.48,0-.94.06L184,91c-.61,0-1.19,0-1.78,0l-1.78,0-1.76,0h-.78a5.43,5.43,0,0,0-.57,0,5,5,0,0,0-2.25.8,4.1,4.1,0,0,0-.49.36l-.22.19c-.08.08-.15.16-.23.23s-.28.32-.4.48l-.09.13-.12.18-.24.37c-.64,1-1.32,2-2,3s-1.37,1.94-2.1,2.91l-.57.71-.58.71-.65.73a7.68,7.68,0,0,1-.83.75l-.21.15.08-.06-.15.1-.44.29.25-.18s-.3.12-.4.15l-.41.14-.81.21-1.52.3c-1,.17-2,.28-3,.4-.24,0-.43,0-.63.08a4.74,4.74,0,0,0-.57.15,4.48,4.48,0,0,0-1.07.49,4.72,4.72,0,0,0-1.6,1.72l-.64,1.28c-.21.43-.4.87-.6,1.31-.38.88-.74,1.76-1.07,2.66a22.71,22.71,0,0,0-.78,2.69,10.53,10.53,0,0,0-.22,1.33,6,6,0,0,0,0,1.27l.1.95-1,.19c-1,.2-2,.38-3,.56l-2.95.54c-2,.35-3.91.75-5.86,1.15s-3.85.88-5.76,1.4-3.8,1.09-5.7,1.68l1-.71-.15.24-.07.11,0,0-.05.09-.06.11s0,0-.09.2a.39.39,0,0,1,0,.09l0,.08-.09.22-.06.16a.41.41,0,0,0,0,.08l-.06.19-.09.26c0,.08,0,.16-.06.22s0,.09,0,.15l-.06.27a9,9,0,0,0-.18,1l-.21,1.38-1.6.26-7.9,1.29,2-1.39-.26.61c-.07.19-.15.38-.22.58-.14.38-.28.79-.41,1.19s-.25.81-.35,1.2c-.05.2-.1.39-.14.59s-.08.37-.12.59c-.08.41-.15.79-.19,1.15,0,.18,0,.35,0,.52s0,.38,0,.55a5.9,5.9,0,0,0,.07,1c0,.15,0,.28.09.44l.15.67-2.56-2.36,3.33.26c1.1.09,2.23.21,3.35.31l3.31.33,1.58.13,1.59.09,1.55.09.93,1.34,1.5,2.18-2.44-1.49c1.51.11,3,.27,4.43.41.33,0,.79.07,1.14.11l1.09.12c.73.08,1.46.16,2.21.26l2.2.28,2.17.3,4.36.6,4.31.6c1.43.2,2.86.38,4.3.56,2.86.35,5.78.76,8.66,1.12l1.62.2.92,1.3c.83,1.17,1.68,2.29,2.56,3.32.45.52.9,1,1.36,1.47l.69.65.35.32.17.14.08.07,0,0,0,0,.1.08-2.26-.81h0l-.8.09h.06l1.63,7h0l-1.54-7c1.23-.22,2.43-.37,3.62-.47s2.4-.17,3.65-.17l.93,0,.93,0c.62,0,1.26.1,1.91.19l.51.08.48.09,1,.2a17,17,0,0,1,2,.6l.77.28.39.41,0,0h0l0,0-.47-.34.71.44.23.15,0,0c.78.61,1.57,1.21,2.36,1.79s1.62,1.16,2.4,1.69l1.21.8.61.38.27.17.32.18.31.18.22.12.35.18.11.05h0l.06,0a3.24,3.24,0,0,0,.33.14l.13.06.08,0h-.09l.13,0,.18.06.37.11-2.07.23.41-.2.43-.19c.28-.13.57-.25.85-.36.58-.24,1.15-.45,1.72-.65,1.16-.4,2.33-.73,3.51-1l.89-.19c.3-.07.61-.12.91-.17.61-.11,1.21-.19,1.82-.25l.44,0,.48,0c.32,0,.64,0,1,0,.63,0,1.23,0,1.82,0l1,0,.57.58c.57.57,1.13,1.15,1.7,1.71s1.15,1.1,1.76,1.64,1.18,1,1.81,1.5c.31.24.61.46.91.66l.45.29.23.14.28.15-1.36,0c1.36-.46,2.69-.93,4-1.44s2.68-1,4-1.61,2.64-1.15,3.91-1.79a41.76,41.76,0,0,0,3.74-2.12l.43.53c-.52.52-1.08,1-1.65,1.48s-1.14.93-1.75,1.37c-1.2.87-2.43,1.67-3.67,2.46s-2.54,1.5-3.83,2.21-2.61,1.4-3.94,2l-.58.27-.78-.31-.29-.12-.33-.14c-.22-.09-.43-.2-.64-.3-.42-.21-.82-.44-1.21-.66-.76-.45-1.51-.95-2.22-1.45s-1.41-1-2.09-1.55l-2-1.64,1.58.62c-.54,0-1.06.08-1.55.15l-.73.1-.36.07-.39.08c-.51.1-1,.22-1.51.35l-.73.21-.74.24a28.91,28.91,0,0,0-2.9,1.11c-.48.21-.95.43-1.4.66l-.67.36-.67.37-.89.5-1.18-.27-.37-.09-.19,0-.24-.06-.42-.13-.12-.05h0l-.05,0-.38-.13-.3-.11-.16-.07-.06,0-.35-.15-.47-.21-.36-.17-.36-.18-.4-.2-.72-.38c-.48-.26-.95-.53-1.41-.8-.94-.55-1.82-1.1-2.71-1.67s-1.77-1.15-2.64-1.74l.27.18-.82-.46-.21-.12-.25-.22L183,155l1.15.69a12.39,12.39,0,0,0-1.23-.29l-.66-.11-.35,0-.31,0c-.46,0-.93-.06-1.42-.07h-1.47c-1,0-2,.13-3,.26s-2,.29-3,.5l-1.54-7,.06,0,1.62,7h0l-.35.09H172l-2.26-.81.07.07h0l0,0-.07-.06-.15-.11-.27-.21-.51-.43c-.34-.29-.66-.59-1-.89q-.94-.9-1.77-1.83c-.56-.62-1.1-1.26-1.61-1.89s-1-1.28-1.48-1.93l2.55,1.51-4.36-.55c-1.45-.18-2.9-.36-4.37-.57l-4.38-.64-2.19-.35-2.16-.36-8.6-1.47-2.13-.33-1.08-.16-1-.15c-1.47-.2-2.88-.41-4.28-.57l-1.62-.19-.82-1.3-1.37-2.16,2.48,1.43-1.74-.17c-.58-.06-1.17-.13-1.73-.21l-3.31-.47c-1.09-.16-2.17-.32-3.28-.46l-3.3-.45-2.23-.31-.33-2-.11-.69a9.1,9.1,0,0,1-.11-.93,12,12,0,0,1,0-1.8c0-.29,0-.54.08-.83s.09-.58.14-.86c.1-.55.23-1.07.37-1.56.07-.23.14-.5.22-.75s.17-.5.25-.74c.18-.5.36-1,.55-1.42s.39-.92.62-1.39c.11-.23.22-.46.34-.68l.34-.65.7-1.3,1.24-.09,4-.26,4-.25-1.81,1.64a9.62,9.62,0,0,1,.34-1.21l.09-.28c0-.12.09-.27.14-.39s.09-.22.13-.32l.12-.27c0-.1.09-.22.15-.34l.09-.18,0,0,0-.07.15-.3.1-.17.09-.16s.08-.14.19-.3l.2-.29.13-.19.09-.12.18-.22.47-.59.57-.12c2-.42,4-.81,5.95-1.15,1-.18,2-.35,3-.5l3-.47,6-.82,3-.42q1.47-.23,2.94-.48l-.87,1.14a8.44,8.44,0,0,1,0-1.67,15.38,15.38,0,0,1,.26-1.56,27.8,27.8,0,0,1,.88-2.94c.33-1,.7-1.88,1.09-2.8l.6-1.37.63-1.37a7,7,0,0,1,2.26-2.63,6.72,6.72,0,0,1,1.54-.83,6.82,6.82,0,0,1,.84-.27l.82-.16c.95-.17,1.89-.35,2.8-.58.45-.11.9-.23,1.33-.37a5.87,5.87,0,0,0,.6-.22l.28-.12c.13-.06,0,0,.28-.14l-.2.1s0,0,0,0a2.3,2.3,0,0,1,.22-.14l-.21.14a4,4,0,0,0,.42-.47l.46-.62.46-.7.45-.71c.58-1,1.14-2,1.68-3s1.06-2,1.59-3.06l.19-.39.1-.2.13-.24a8.14,8.14,0,0,1,.61-1c.11-.15.22-.3.34-.44s.25-.3.38-.44a10.41,10.41,0,0,1,.83-.79,9.83,9.83,0,0,1,4.08-2,10.79,10.79,0,0,1,1.16-.19l1-.08,1.73-.14,1.72-.14c.58,0,1.15-.08,1.71-.14l1.68-.16.8-.1.4-.05.32-.07-.21,0,.2,0-1.35.68.07-.07,0,0,.09-.11.28-.31c.19-.21.39-.47.59-.7s.41-.47.61-.72l.6-.74.6-.74.61-.76L190.28,80l.6-.76.45-.53.12-.13.11-.12.18-.18.25-.25.16-.14.11-.1c.12-.11.32-.28.49-.41.36-.28.72-.54,1.1-.78s.77-.44,1.16-.63a12.14,12.14,0,0,1,1.25-.51,11.8,11.8,0,0,1,2.6-.56l.65,0h.69a12,12,0,0,1,1.27.09l2,.25c1.31.16,2.61.33,3.91.51l3.9.52,3.9.55-1.57.27q2.44-1.12,4.9-2.22L221,73.75l.65-.29.32-.13.38-.15a13.4,13.4,0,0,1,1.47-.5l-.37.16a13.52,13.52,0,0,1,1.89-.75l.09,0,.12,0,.11,0,.2,0,.55-.13c.17,0,.46-.1.72-.15,1.08-.25,2.19-.52,3.36-.74.3-.06.6-.12.92-.16l.51-.07c.18,0,.37,0,.63,0H233l.24,0,.43,0,.85.11,3.34.44.32,0,.17.08.14.06.11.05.21.1.39.18.77.37c.5.25,1,.49,1.49.71l.33.14.19.07c.13,0,.23.09.33.13a7.08,7.08,0,0,1,1,.55l.67.44a3.88,3.88,0,0,0,.39.23l.57.27c.8.74,1.59,1.49,2.38,2.25l-.38-.19a1,1,0,0,1,.22.09l.09.05,0,0,.11.08.09.09a.5.5,0,0,1,.1.11l.14.16.23.29.41.57.78,1.13c.51.74,1,1.5,1.52,2.25l.37.56c.13.2.23.34.38.55.27.39.52.78.76,1.16L252.8,85l.18.29,0,.07a.59.59,0,0,1,.06.16.67.67,0,0,1,0,.35.75.75,0,0,1-.24.29,3.26,3.26,0,0,1-.29.19s-.05,0,0,0a.18.18,0,0,0,0-.11.1.1,0,0,0,0-.09Z"/><path class="cls-2" d="M263.76,163.47a23.45,23.45,0,0,0,12.83,1.69c5.18-.65,7.6-1.57,10.64-4.17s3.46-5.79,1.15-7.44-2.7-1.86-4.14-3.75c-.85-1.11-1.66-2.38-3-2.87a5.36,5.36,0,0,0-1.68-.26,38.41,38.41,0,0,0-7.32.66q-9.07,1.41-18.12,3.06a3,3,0,0,0-1.61.64C248.86,154.65,261.54,162.46,263.76,163.47Z"/><path class="cls-3" d="M269.37,164.68a18.56,18.56,0,0,0,2.79,0,25,25,0,0,0,2.74-.34c.91-.16,1.8-.35,2.72-.55l.67-.15.67-.15,1.31-.32a17,17,0,0,0,4.76-2c.37-.23.74-.47,1.11-.73l.54-.39.51-.39a6.69,6.69,0,0,0,1.61-1.88,3.21,3.21,0,0,0,.44-2.26,2.53,2.53,0,0,0-.49-1.05l-.2-.23-.23-.21-.11-.1-.14-.11-.28-.21a28.67,28.67,0,0,1-2.28-1.81,21.63,21.63,0,0,1-1.91-2.2c-.29-.37-.59-.72-.89-1a4.71,4.71,0,0,0-1-.78,2.76,2.76,0,0,0-1.09-.33,11.37,11.37,0,0,0-1.3,0,41.72,41.72,0,0,0-5.46.84l-2.77.58-2.78.56c-3.7.75-7.41,1.49-11.14,2.07-.93.15-1.88.3-2.79.42a4,4,0,0,0-.47.1l-.17.06h0a.12.12,0,0,1,0,0,.75.75,0,0,1-.09.09.75.75,0,0,0-.1.17,1.2,1.2,0,0,0,0,.64,4.63,4.63,0,0,0,.4,1,12.77,12.77,0,0,0,1.46,2.15,27.32,27.32,0,0,0,1.86,2.05c.66.66,1.35,1.31,2.07,1.91S264.76,164,269.37,164.68Zm-12.21-4.37c-1.48-1.18-1.67-1.44-3.22-2.68a13,13,0,0,1-2.21-2.18,6.36,6.36,0,0,1-.87-1.52,4,4,0,0,1-.24-2.16,3.58,3.58,0,0,1,.43-1.14c.11-.17.22-.32.34-.48l.19-.2a1.93,1.93,0,0,1,.25-.24,3.53,3.53,0,0,1,1.07-.6,6.29,6.29,0,0,1,.9-.25c.5-.11.94-.19,1.41-.28l1.4-.26c3.73-.68,7.49-1.19,11.25-1.71l2.82-.39c.94-.13,1.88-.24,2.83-.33a31.68,31.68,0,0,1,5.85-.09,11.18,11.18,0,0,1,1.53.21,4.32,4.32,0,0,1,1.53.69,5.67,5.67,0,0,1,1.13,1.11c.32.39.59.79.87,1.18a14.74,14.74,0,0,0,1.72,2.15,9,9,0,0,0,1.06.86c.37.28.76.54,1.15.81l.3.2.15.1.16.12.32.24.28.29a3.8,3.8,0,0,1,.87,1.41,4.89,4.89,0,0,1-.09,3.27,8.7,8.7,0,0,1-1.63,2.74l-.54.57c-.18.19-.36.35-.54.52-.37.34-.75.67-1.16,1a12.25,12.25,0,0,1-2.66,1.59,14.35,14.35,0,0,1-2.92.93,21.28,21.28,0,0,1-2.93.41,38,38,0,0,1-10.79-.52C262.24,164.68,258.63,161.49,257.16,160.31Z"/><circle class="cls-3" cx="262.86" cy="123.01" r="36.03"/><path class="cls-2" d="M233.4,143c.62.24,1.26.46,1.89.66l1.92.57c1.28.35,2.57.69,3.88.95a63.15,63.15,0,0,0,7.86,1.18,57.92,57.92,0,0,0,15.78-.77l1.94-.39,1.92-.49c.64-.14,1.27-.36,1.9-.55s1.26-.38,1.88-.62l1.86-.66,1.83-.77c.3-.13.61-.25.91-.39l.89-.44c.59-.29,1.2-.56,1.78-.87a68.62,68.62,0,0,0,13.08-9.08,54,54,0,0,1-12.56,10c-.59.34-1.19.64-1.79,1l-.9.47c-.3.15-.61.28-.92.42l-1.85.83-1.89.73c-.63.27-1.28.45-1.92.66s-1.29.43-1.95.59l-2,.51-2,.42a56,56,0,0,1-8.06.87,52,52,0,0,1-8.09-.4c-.67-.08-1.33-.19-2-.28s-1.33-.23-2-.36c-1.32-.28-2.63-.58-3.93-1s-2.57-.77-3.83-1.24A32.56,32.56,0,0,1,233.4,143Z"/><path class="cls-2" d="M233.4,139.31c2.56.19,5.11.25,7.66.24s5.1-.11,7.65-.26,5.08-.39,7.6-.72,5-.71,7.53-1.18,5-1,7.45-1.67,4.89-1.37,7.31-2.18a112.58,112.58,0,0,0,14.12-5.89,74.83,74.83,0,0,1-6.69,3.81c-1.15.59-2.33,1.1-3.5,1.64-.58.27-1.18.5-1.77.74s-1.19.5-1.8.72l-1.81.67c-.6.22-1.22.41-1.83.62-1.22.42-2.46.76-3.69,1.13q-3.74,1-7.53,1.76c-2.53.46-5.08.85-7.64,1.12s-5.13.45-7.71.5-5.14,0-7.71-.14A61.25,61.25,0,0,1,233.4,139.31Z"/><path class="cls-2" d="M229.89,131c5.41.18,10.8.07,16.18-.24a156.42,156.42,0,0,0,16-1.73c2.65-.4,5.29-.94,7.9-1.53s5.21-1.3,7.79-2.06l1.92-.6,1.9-.67c.32-.11.64-.21.95-.33l.94-.36c.63-.25,1.26-.47,1.88-.73,2.5-1,4.92-2.18,7.34-3.41a63,63,0,0,1-7.06,4,72.72,72.72,0,0,1-7.54,3.09c-.63.24-1.28.44-1.93.65s-1.29.42-1.95.6l-2,.56-2,.51c-2.64.63-5.3,1.18-8,1.61s-5.38.77-8.09,1-5.41.39-8.12.43-5.42,0-8.13-.09S232.57,131.44,229.89,131Z"/><path class="cls-2" d="M239,149.88q.81.36,1.65.66c.55.2,1.11.4,1.68.58,1.12.35,2.25.69,3.4.95a46.94,46.94,0,0,0,6.95,1.18,42.55,42.55,0,0,0,13.92-.88l.85-.19.43-.1.42-.13,1.68-.49c1.09-.39,2.21-.75,3.27-1.23s2.13-.95,3.19-1.46c.52-.26,1-.56,1.53-.84l.77-.42c.26-.14.5-.31.75-.46a61.77,61.77,0,0,0,11-8.84A46.44,46.44,0,0,1,280.09,148c-.25.17-.49.36-.75.51l-.77.47c-.52.3-1,.63-1.55.91-1.07.55-2.13,1.13-3.24,1.6s-2.24.89-3.37,1.31l-1.74.52-.43.13-.44.11-.88.21a38.86,38.86,0,0,1-14.36.6c-.59-.07-1.18-.19-1.78-.28s-1.17-.24-1.76-.36l-1.74-.45c-.57-.16-1.15-.31-1.72-.51-1.14-.36-2.26-.78-3.36-1.25A27.08,27.08,0,0,1,239,149.88Z"/><path class="cls-2" d="M255.79,112.86c0,.51,0,1,0,1.52s0,1,.06,1.52c.07,1,.13,2,.25,3,.2,2,.5,4,.86,6s.82,3.94,1.39,5.87a51.41,51.41,0,0,0,1.95,5.68,38.3,38.3,0,0,0,2.66,5.37,32.07,32.07,0,0,0,7.74,9,36.56,36.56,0,0,0,5.1,3.27,26.73,26.73,0,0,1-5.49-2.72,28.57,28.57,0,0,1-4.71-4A34.24,34.24,0,0,1,259,137a48.44,48.44,0,0,1-1.94-5.86A52.18,52.18,0,0,1,255.41,119c0-1,0-2,0-3.07A20.64,20.64,0,0,1,255.79,112.86Z"/><path class="cls-2" d="M263.24,113.06a5.07,5.07,0,0,0,0,1.29l.06.65.08.64c.13.86.28,1.71.45,2.56.34,1.69.77,3.37,1.22,5s1,3.33,1.5,5,1.12,3.26,1.76,4.86,1.29,3.2,2,4.76,1.5,3.11,2.31,4.63c.42.75.84,1.51,1.29,2.24s.89,1.48,1.36,2.21c.93,1.46,1.95,2.86,3,4.26a38.11,38.11,0,0,1-3.54-3.86,47.69,47.69,0,0,1-3-4.31l-.68-1.13c-.23-.37-.43-.76-.65-1.14s-.42-.77-.62-1.16-.42-.78-.61-1.18c-.78-1.57-1.47-3.18-2.12-4.81s-1.22-3.3-1.72-5-.95-3.37-1.31-5.09a50.94,50.94,0,0,1-.83-5.19c-.08-.88-.15-1.75-.17-2.63A8.5,8.5,0,0,1,263.24,113.06Z"/><path class="cls-2" d="M271.51,112.41a4.63,4.63,0,0,0-.09,1.18l0,.59.05.59c.08.79.19,1.57.32,2.35.26,1.56.6,3.1,1,4.64a83.4,83.4,0,0,0,2.79,9c.55,1.47,1.14,2.93,1.79,4.37s1.34,2.85,2.07,4.25,1.54,2.75,2.39,4.08,1.77,2.63,2.72,3.91a35.1,35.1,0,0,1-3.27-3.51,41.85,41.85,0,0,1-2.78-3.95,48.55,48.55,0,0,1-4.21-8.67,52.6,52.6,0,0,1-2.55-9.29,45.07,45.07,0,0,1-.59-4.79c0-.8-.06-1.6,0-2.41A7,7,0,0,1,271.51,112.41Z"/><path class="cls-2" d="M249.25,115.15c0,.51,0,1,0,1.53s.05,1,.08,1.52c.08,1,.16,2,.29,3,.22,2,.54,4,.93,6s.87,3.93,1.46,5.85a50.74,50.74,0,0,0,2,5.66,39.87,39.87,0,0,0,2.72,5.33,34.14,34.14,0,0,0,3.5,4.85,32.74,32.74,0,0,0,4.36,4.12,36.44,36.44,0,0,0,5.13,3.2,26.93,26.93,0,0,1-5.52-2.65,28.54,28.54,0,0,1-4.76-3.95,34.34,34.34,0,0,1-6.7-10.36,51,51,0,0,1-2-5.84,53.65,53.65,0,0,1-1.8-12.14c0-1,0-2,0-3.07A20.86,20.86,0,0,1,249.25,115.15Z"/><path class="cls-2" d="M232.44,119.21a10.31,10.31,0,0,0-.05,1.36q0,.68,0,1.35c.05.9.1,1.8.2,2.7a49.76,49.76,0,0,0,.78,5.32,48.23,48.23,0,0,0,1.31,5.2,39.32,39.32,0,0,0,1.93,5,30.21,30.21,0,0,0,6,8.69l1,.91c.33.3.68.57,1,.86.17.14.34.29.52.42l.54.4.54.39.27.2.29.18,1.13.72c.38.23.79.43,1.18.65l.59.33.61.29,1.23.59-1.31-.4-.65-.21-.63-.25c-.43-.17-.86-.33-1.27-.53l-1.23-.61a24.46,24.46,0,0,1-4.53-3.15,27.43,27.43,0,0,1-3.73-4.11c-.27-.38-.53-.77-.79-1.15l-.72-1.18c-.25-.4-.45-.81-.67-1.22s-.43-.82-.62-1.24a35.91,35.91,0,0,1-1.94-5.18,41.7,41.7,0,0,1-1.52-10.86c0-.91,0-1.83.1-2.74A15.44,15.44,0,0,1,232.44,119.21Z"/><path class="cls-4" d="M213.59,124.83c0-20.71,15.73-34,48-38.23a36,36,0,0,0,0,72.05C227.94,156,215,143.05,213.59,124.83Z"/><path class="cls-3" d="M261.62,160a37.61,37.61,0,0,1-8-.86c-12.46-1.77-22.19-5.28-29-10.49-7.49-5.75-11.68-13.74-12.44-23.75v-.1c0-10.83,4.18-19.7,12.42-26.35,5.82-4.7,13.72-8.31,23.57-10.78a37.41,37.41,0,0,1,13.42-2.49L261.8,88a119.79,119.79,0,0,0-12.68,2.35,34.65,34.65,0,0,0,5.09,66.16c2.4.33,4.9.6,7.52.8ZM215,124.78c1.1,14.23,9.52,23.74,25.61,28.75a37.37,37.37,0,0,1-3.19-59.38C222.51,100.5,215,110.75,215,124.78Z"/><path class="cls-4" d="M272.79,88.36l-.68-1.63s-5-2.21-13.25-1.1c0,0-23.46,6.62-23.46,35.89s19,37.26,19,37.26,7.45,1.11,11,.83l2.34-1.5s-23.87-1-23.87-37.42C244.51,86.46,272.79,88.36,272.79,88.36Z"/><path class="cls-3" d="M272.68,88.28c-.28-.53-.56-1-.79-1.45L272,87a18.41,18.41,0,0,0-3.21-.72,30.22,30.22,0,0,0-3.29-.29c-1.1,0-2.19,0-3.29.09-.55,0-1.09.1-1.64.15l-1.62.23.11,0c-.39.13-.83.3-1.24.48l-1.25.56c-.82.4-1.63.82-2.41,1.28a35.83,35.83,0,0,0-4.48,3.12,33.27,33.27,0,0,0-3.94,3.75,34.35,34.35,0,0,0-3.28,4.32c-.24.38-.5.76-.72,1.15l-.66,1.18c-.22.4-.4.81-.6,1.22l-.3.61-.27.62c-.17.42-.36.83-.53,1.25l-.47,1.28c-.07.21-.16.42-.23.64l-.2.65c-.13.43-.27.86-.4,1.3a45.22,45.22,0,0,0-1.14,5.34l-.2,1.35-.14,1.37-.07.69,0,.34,0,.34-.07,1.38c-.07.92,0,1.84-.07,2.77v.69c0,.23,0,.46,0,.69l0,1.39c0,.46,0,.92.08,1.38l.1,1.39c.09.92.2,1.84.33,2.75s.28,1.84.49,2.74c.1.45.19.9.3,1.35l.37,1.35c.11.45.25.89.4,1.33s.27.88.43,1.32l.49,1.3c.17.43.37.85.55,1.28a34.27,34.27,0,0,0,6,9.28,30,30,0,0,0,4.08,3.73,24.84,24.84,0,0,0,2.28,1.56c.39.24.78.47,1.18.68s.83.42,1.21.58l-.17,0c.91.11,1.83.2,2.74.28s1.83.16,2.74.21,1.83.1,2.74.12a23,23,0,0,0,2.65-.09l-.45.15,2.31-1.56.52,1.93-.23,0h-.21l-.41,0-.81-.11c-.53-.09-1.06-.19-1.58-.32a22.13,22.13,0,0,1-3.06-1,23.85,23.85,0,0,1-2.9-1.35,24.76,24.76,0,0,1-2.71-1.72,27.26,27.26,0,0,1-4.68-4.36,29.45,29.45,0,0,1-3.58-5.29,36.84,36.84,0,0,1-2.5-5.82c-.36-1-.62-2-.9-3-.15-.5-.24-1-.36-1.53l-.33-1.53c-.17-1-.34-2.07-.48-3.1l-.17-1.56-.09-.77q0-.39-.06-.78c-.06-1-.14-2.08-.17-3.12s0-2.08,0-3.12l.16-3.13c.12-1,.22-2.08.35-3.12l.27-1.55c.1-.52.16-1,.3-1.55.25-1,.45-2,.79-3l.47-1.51.57-1.48c.09-.25.19-.49.29-.74l.34-.71c.23-.48.44-1,.69-1.43a29.32,29.32,0,0,1,3.58-5.25,24.79,24.79,0,0,1,4.72-4.2,26.59,26.59,0,0,1,5.57-2.9,28.8,28.8,0,0,1,6-1.55c1-.15,2.05-.24,3.08-.29.51,0,1,0,1.54,0,.26,0,.51,0,.77,0l.39,0,.19,0h.09s0,0,0,0S272.68,88.26,272.68,88.28Zm.23.16a.33.33,0,0,1-.12,0H272l-.76,0c-.5,0-1,.1-1.5.17a29.32,29.32,0,0,0-3,.55c-.49.11-1,.25-1.46.38s-1,.29-1.43.44c-1,.33-1.88.7-2.78,1.11a25.48,25.48,0,0,0-5.06,3.07,22.6,22.6,0,0,0-4.16,4.13,26.76,26.76,0,0,0-3.08,5c-.21.44-.39.9-.58,1.35l-.29.67-.24.7-.48,1.38-.4,1.43c-.29.93-.44,1.91-.65,2.87-.11.48-.16,1-.23,1.47l-.21,1.46-.26,3-.09,3,.08,3c0,1,.13,2,.19,3l0,.37,0,.37.08.74.17,1.48c.13,1,.31,2,.45,2.94l.31,1.45c.1.49.19,1,.32,1.45.26,1,.48,1.91.8,2.84a34.75,34.75,0,0,0,2.22,5.43,24.85,24.85,0,0,0,9.69,10.55,25.06,25.06,0,0,0,2.59,1.3,24.79,24.79,0,0,0,2.74,1c.46.13.93.25,1.4.35l.7.12.35.05.17,0,.15,0,3.16.32L268.4,159,266,160.43l-.23.14h-.22a22.85,22.85,0,0,1-2.88-.07c-.94-.06-1.87-.15-2.8-.26s-1.85-.24-2.77-.37-1.84-.27-2.76-.43l-.11,0-.05,0c-.48-.22-.88-.46-1.31-.7s-.82-.51-1.21-.78a27.51,27.51,0,0,1-2.3-1.72c-.74-.6-1.44-1.25-2.13-1.9l-1-1c-.32-.36-.65-.7-1-1.06a38.82,38.82,0,0,1-3.41-4.55,43,43,0,0,1-2.72-5,49.72,49.72,0,0,1-3.52-10.79,59.7,59.7,0,0,1-1.21-11.33v-1.79l0-.36,0-.71.08-1.44c0-.48.09-1,.15-1.43s.09-1,.18-1.43l.24-1.43c0-.24.08-.47.13-.71l.16-.71.33-1.41a35,35,0,0,1,4.73-10.56,33,33,0,0,1,3.6-4.57,36,36,0,0,1,4.32-3.86,33.47,33.47,0,0,1,4.88-3.09c.85-.45,1.73-.85,2.61-1.23.45-.19.9-.36,1.36-.52s.9-.31,1.41-.45l.07,0h0c.57,0,1.14-.1,1.71-.13s1.14-.06,1.71,0H263l.85,0c.57,0,1.14.08,1.71.13a27.6,27.6,0,0,1,3.37.58,17.43,17.43,0,0,1,3.24,1.1l.09,0,0,.08C272.56,87.26,272.73,87.89,272.91,88.44Z"/><path class="cls-3" d="M265.49,159.61l2.34-1.5s-23.87-1-23.87-37.42c.55-34.23,28.83-32.33,28.83-32.33l-.68-1.63s-30.36-1.65-30.36,34.51S265.49,159.61,265.49,159.61Z"/><path class="cls-4" d="M158.65,115.72l-29.53,6.9s-5.25,6.9,2.48,17.94l38.1,4.15-3-30.92Z"/><path class="cls-5" d="M153.25,128.12a16.22,16.22,0,0,1-.29-7c.79-3.08,3.26-5.41,5.63-7.54-.86.77,2.47,10,2.87,11.36q1.72,5.82,4,11.46c.6,1.5,2.68,4.45.12,4.55-2,.08-4.93-2.4-6.45-3.48C155.59,135,154.05,132.36,153.25,128.12Z"/><path class="cls-3" d="M168.47,132.18c-8.88,1.55-30.31,2.56-31.45,2.28a58.76,58.76,0,0,0,1.83,6.89l30.85,3.36Z"/><path class="cls-4" d="M131.05,125.38l-11.87,1.93s-2.49,5.52-1.66,9.11l14.63,1.11Z"/><path class="cls-3" d="M131,125.49l-3,.64-2.94.63L119.29,128l.52-.39c-.27.68-.51,1.42-.72,2.15a21.45,21.45,0,0,0-.52,2.21,15,15,0,0,0-.24,2.19,7.45,7.45,0,0,0,.19,2l-.92-.78,3.66.16c1.23.05,2.45.08,3.67.11s2.45.07,3.67.15,2.44.19,3.66.32l-1.49,1.5c0-.93-.07-1.86-.07-2.81s0-1.92,0-2.91Zm.17-.22c.23.85.44,1.78.67,2.73s.45,1.95.66,3,.41,2.09.59,3.16.34,2.17.48,3.26l.2,1.58-1.68-.07c-1.22,0-2.45-.12-3.66-.23s-2.44-.26-3.65-.41-2.43-.31-3.65-.44l-3.65-.39-.78-.08-.13-.71a9.7,9.7,0,0,1-.1-2.62,15.13,15.13,0,0,1,.45-2.45c.2-.79.46-1.56.73-2.31s.58-1.49.94-2.24l.17-.35.35-.05c2.07-.25,4.13-.47,6.15-.69l3-.34Z"/><path class="cls-3" d="M142.07,119.59l-12.95,3s-5.25,6.9,2.48,17.94l9.79,1.07A31.58,31.58,0,0,1,142.07,119.59Z"/><path class="cls-3" d="M158.69,115.85c-2.47.57-4.91,1.21-7.34,1.92s-4.85,1.47-7.27,2.21c-1.22.37-2.43.73-3.65,1.08s-2.43.69-3.66,1c-2.44.64-4.91,1.21-7.38,1.72l.68-.44-.12.16-.13.21c-.09.14-.17.3-.26.46s-.15.31-.23.47-.15.33-.21.5l-.2.51-.15.52a9.81,9.81,0,0,0-.26,1.07,14.06,14.06,0,0,0-.09,4.49l.18,1.14c.09.37.2.75.3,1.12l.15.56c.06.19.13.37.2.55l.41,1.1c.07.18.16.36.24.53l.27.53.52,1.06c.42.66.83,1.34,1.26,2l-.3-.17c1.58.19,3.17.33,4.76.49s3.18.29,4.78.4c3.18.23,6.38.4,9.57.61s6.37.46,9.55.75l4.77.42,4.77.44-1.6,1.59c-.29-2.58-.54-5.15-.78-7.73s-.44-5.16-.62-7.74-.28-5.18-.35-7.77-.12-5.19-.23-7.78l.48.34c-.67.12-1.35.24-2,.38l-2,.4-2,.44Zm-.07-.27,2-.5c.66-.18,1.33-.34,2-.53s1.32-.36,2-.56,1.32-.39,2-.59l.41-.12.07.47c.39,2.56.86,5.12,1.29,7.68s.84,5.12,1.17,7.69.61,5.14.89,7.71.52,5.15.74,7.73l.15,1.8-1.75-.21-4.75-.6-4.76-.61c-3.16-.4-6.33-.83-9.49-1.32s-6.31-1-9.48-1.46c-1.58-.24-3.16-.43-4.75-.64s-3.17-.38-4.76-.54l-.19,0-.1-.15-1.35-2-.61-1.07-.3-.53a4.63,4.63,0,0,1-.29-.54l-.53-1.11c-.08-.19-.18-.37-.26-.56l-.22-.58c-.14-.39-.29-.77-.42-1.17l-.34-1.2a15.85,15.85,0,0,1-.43-5.06,11,11,0,0,1,.19-1.28c0-.22.08-.43.13-.64l.18-.64a6.45,6.45,0,0,1,.21-.62c.08-.21.16-.42.26-.62s.18-.41.29-.62.11-.2.18-.3a2.9,2.9,0,0,1,.21-.34l.24-.33.44-.11q3.67-1,7.39-1.73c1.23-.27,2.48-.5,3.72-.73l3.74-.64c2.5-.41,5-.79,7.5-1.24S156.16,116.17,158.62,115.58Z"/><path class="cls-2" d="M221.82,103a11.88,11.88,0,0,0,8.82,7.55s8.22,1,18.15-6.2a25,25,0,0,0,3.36-15.77A36.73,36.73,0,0,0,249.61,85a20.78,20.78,0,0,0-10.78-7.09c-1.4-.38-3-.85-4.43-1.41a14,14,0,0,0-11,.52l-8.13,3.93-14.11-1.71a7.51,7.51,0,0,0-6.7,2.68c-2.35,2.87-5.57,6.69-6.25,7s-6.15.48-9.91.53a6.32,6.32,0,0,0-5.38,3.13c-2,3.52-5.33,8.86-6.79,9.59a25,25,0,0,1-6.25,1.38,5,5,0,0,0-3.89,2.75c-1.51,3-3.76,8.06-3.39,10.82,1.93,7.14,11.32,28.67,19.6,35.29,0,0,8.28-1.93,13.53,0,0,0,8,5.8,11,6.35A30.71,30.71,0,0,1,210,155.2s4.69,4.41,7.73,5.79c0,0,10.7-4.42,15.43-8.83,0,0-8.53-8.28-10.18-16C221.87,131.45,221.78,114.78,221.82,103Z"/><path class="cls-3" d="M172.18,152.43q1.66-.39,3.36-.63c1.13-.16,2.27-.29,3.41-.34a26.48,26.48,0,0,1,3.45,0,15.43,15.43,0,0,1,3.4.69h0l0,0c1.75,1.21,3.54,2.37,5.36,3.46.91.54,1.83,1.06,2.77,1.53l.71.35.71.31c.24.11.48.18.72.27a2.3,2.3,0,0,0,.35.1l.35.09-.31,0a34.29,34.29,0,0,1,3.18-1.53c1.09-.44,2.19-.83,3.32-1.17a28.18,28.18,0,0,1,3.44-.8,24.53,24.53,0,0,1,3.54-.34h.24l.21.19c.58.53,1.2,1.05,1.81,1.56s1.23,1,1.86,1.5,1.28.95,1.93,1.38a16.19,16.19,0,0,0,2,1.14l-.61,0c1.34-.58,2.68-1.21,4-1.86s2.64-1.33,3.92-2,2.54-1.46,3.75-2.28a27.7,27.7,0,0,0,3.4-2.63l0,1.38a55.1,55.1,0,0,1-4.45-5,41.58,41.58,0,0,1-3.76-5.55,22.18,22.18,0,0,1-2.48-6.4c-.23-1.15-.34-2.25-.46-3.36l-.14-1.65-.12-1.65c-.26-4.4-.36-8.78-.44-13.15s-.09-8.76-.1-13.13V95.8l2.51,6.78,0,.12a.94.94,0,0,0,.06.15c0,.1.08.2.13.3s.19.4.29.6l.34.59.38.57a10.71,10.71,0,0,0,1.81,2l.26.22.27.2c.18.13.35.27.55.39l.57.34.14.09.16.07.3.15.3.14.15.07.16.06.64.23a3.46,3.46,0,0,0,.65.18l.65.17-.1,0,.23,0h.27c.18,0,.37,0,.55,0s.38,0,.57,0l.57,0,.57,0,.57-.07c.38,0,.76-.11,1.14-.18a28.42,28.42,0,0,0,4.49-1.22c.72-.29,1.45-.55,2.16-.89.35-.17.71-.32,1.06-.5l1-.55.51-.27.51-.31,1-.6c.66-.43,1.3-.88,1.95-1.32l-.34.36.11-.18.11-.2c.08-.14.16-.27.23-.42s.3-.57.44-.86.27-.59.41-.88l.37-.9a25.41,25.41,0,0,0,1.12-3.73c.16-.63.24-1.27.35-1.9l.09-1c0-.16,0-.32.05-.48l0-.48a22.29,22.29,0,0,0-.18-3.83l.18.51a34.68,34.68,0,0,0-3-4.08,19.06,19.06,0,0,0-3.71-3.29,19.47,19.47,0,0,0-4.41-2.24l-.59-.2-.59-.18-1.29-.36c-.87-.26-1.74-.54-2.6-.84a19.4,19.4,0,0,0-2.39-.78A11.77,11.77,0,0,0,230,77a12.51,12.51,0,0,0-4.73.71,11.72,11.72,0,0,0-1.11.45c-.18.07-.38.17-.58.27l-.6.29-2.4,1.15-4.79,2.28-.35.17-.37,0-10.2-1.28-2.55-.32-1.28-.16a6.61,6.61,0,0,0-1.08,0A6.22,6.22,0,0,0,196.05,82a4.51,4.51,0,0,0-.39.37l-.18.2-.19.22-.82,1-1.67,2c-.56.66-1.13,1.31-1.71,2-.29.32-.58.65-.89,1q-.22.24-.48.48a3,3,0,0,1-.25.25l-.14.12-.16.14-.08.07,0,0-.07.05a2.38,2.38,0,0,1-.3.18,2,2,0,0,1-.34.12.41.41,0,0,1-.12,0l-.11,0-.21,0-.18,0-.35.05c-.46,0-.9.08-1.34.1-.87,0-1.74.08-2.6.1-1.73.05-3.45.07-5.16.08a5.24,5.24,0,0,0-3.82,1.68,5.54,5.54,0,0,0-.65.86l-.66,1.1c-.44.74-.9,1.47-1.36,2.2-.92,1.47-1.87,2.92-2.94,4.32-.13.18-.28.35-.42.53l-.44.52a7.14,7.14,0,0,1-1.08,1,4.5,4.5,0,0,1-.41.25l-.35.16c-.23.09-.45.16-.68.23-.44.14-.88.24-1.31.34-.87.19-1.73.33-2.6.45-.43.07-.86.12-1.29.17l-.32,0-.26,0-.52.13a4.26,4.26,0,0,0-1.81,1.14,4.61,4.61,0,0,0-.63.87c-.18.35-.38.75-.56,1.12a43,43,0,0,0-2,4.64,20.85,20.85,0,0,0-.71,2.38,7.81,7.81,0,0,0-.21,2.32l0-.09c.42,1.61,1,3.21,1.54,4.8s1.19,3.16,1.84,4.72q1.93,4.7,4.21,9.24a93.76,93.76,0,0,0,5,8.86c.91,1.43,1.87,2.82,2.92,4.16a25.31,25.31,0,0,0,3.48,3.69,25.51,25.51,0,0,1-3.64-3.56c-1.1-1.3-2.13-2.66-3.1-4.06a95.85,95.85,0,0,1-5.3-8.74c-1.63-3-3.11-6.06-4.51-9.17q-1-2.34-2-4.72c-.63-1.6-1.22-3.2-1.71-4.87v-.08a8.84,8.84,0,0,1,.17-2.79,19.7,19.7,0,0,1,.7-2.56,44.51,44.51,0,0,1,2-4.84c.19-.4.36-.78.57-1.19a6,6,0,0,1,.84-1.22,5.94,5.94,0,0,1,2.47-1.63,6.44,6.44,0,0,1,.72-.2c.12,0,.25,0,.37-.06l.32,0,1.25-.19c.83-.14,1.66-.29,2.46-.49.4-.09.79-.2,1.17-.32l.53-.2.23-.11a.8.8,0,0,1,.14-.09,6.18,6.18,0,0,0,.76-.77l.38-.47c.12-.16.25-.32.37-.49,1-1.33,1.89-2.77,2.78-4.21.44-.73.87-1.46,1.3-2.2l.65-1.11a6.8,6.8,0,0,1,.87-1.2,7.39,7.39,0,0,1,5.3-2.43c1.72,0,3.42-.08,5.12-.15.85,0,1.7-.08,2.53-.14q.63,0,1.23-.12l.28,0,.14,0,.1,0h.08l0,0s0,0,0,0h0l0,0,0,0,.08-.07.1-.1.21-.2c.14-.14.27-.29.41-.44s.56-.62.84-.94c.56-.63,1.11-1.28,1.65-1.93l1.64-2,.81-1a2.56,2.56,0,0,1,.23-.27l.24-.28c.18-.17.35-.36.54-.52A8.73,8.73,0,0,1,197,78.59a9.06,9.06,0,0,1,4.39-.58l1.27.15,2.56.3,10.21,1.19-.72.12,4.78-2.33,2.39-1.16.6-.29c.19-.1.39-.19.62-.29a14,14,0,0,1,1.34-.55,15.25,15.25,0,0,1,5.72-.87,14.05,14.05,0,0,1,2.88.39c.24,0,.47.11.71.18s.46.13.69.22c.49.16.85.31,1.27.45.8.28,1.63.54,2.46.78l1.26.36.68.2.67.22A22.37,22.37,0,0,1,250,83.36c.63.72,1.18,1.43,1.73,2.17.27.37.53.74.79,1.12s.51.75.78,1.18l.15.24,0,.27a23.59,23.59,0,0,1,.19,4.36l0,.54c0,.18,0,.36-.05.54l-.11,1.08c-.13.72-.22,1.43-.4,2.14a27.15,27.15,0,0,1-1.25,4.12l-.42,1c-.15.33-.29.65-.45,1s-.32.65-.5,1c-.08.16-.18.32-.27.48s-.09.16-.14.24l-.16.26-.14.22-.2.14c-.7.47-1.39,1-2.1,1.41l-1.09.65-.54.32-.56.3-1.12.58c-.38.2-.77.36-1.16.54-.76.37-1.56.65-2.35,1a32,32,0,0,1-4.93,1.32c-.42.08-.85.15-1.27.19l-.64.08-.65,0c-.21,0-.43,0-.65,0l-.65,0h-1l-.38,0h-.11l-.81-.2a7.36,7.36,0,0,1-.8-.24l-.8-.29-.19-.07-.19-.09-.39-.18a14.19,14.19,0,0,1-1.47-.83c-.24-.15-.46-.33-.68-.5l-.34-.25-.32-.28a12.93,12.93,0,0,1-2.23-2.5c-.16-.23-.3-.46-.45-.7s-.28-.48-.41-.73-.26-.5-.37-.76-.11-.26-.17-.4l-.08-.21c0-.07-.05-.13-.08-.24l2.5-.37c0,4.36,0,8.73,0,13.09s.1,8.72.31,13.05l.08,1.62.12,1.61c.1,1.06.19,2.14.38,3.14a20.09,20.09,0,0,0,2.16,5.8,39.23,39.23,0,0,0,3.5,5.34,52.63,52.63,0,0,0,4.19,4.85l.71.73-.72.65a27.65,27.65,0,0,1-3.71,2.76c-1.27.83-2.59,1.56-3.92,2.27s-2.67,1.37-4,2-2.73,1.24-4.13,1.81l-.31.13-.3-.14a16.86,16.86,0,0,1-2.19-1.3c-.68-.47-1.34-1-2-1.48s-1.26-1-1.88-1.58-1.21-1.09-1.81-1.66l.45.18a23.72,23.72,0,0,0-3.36.23,27.54,27.54,0,0,0-3.32.68,31.36,31.36,0,0,0-3.24,1.05,29.79,29.79,0,0,0-3.1,1.38l-.17.09-.14,0-.43-.11-.41-.13c-.25-.11-.53-.19-.77-.31l-.74-.35-.72-.38c-.95-.53-1.86-1.08-2.77-1.66q-2.7-1.74-5.28-3.65l.07,0a15.12,15.12,0,0,0-3.27-.77,23.91,23.91,0,0,0-3.39-.18c-1.13,0-2.27.09-3.4.2S173.3,152.21,172.18,152.43Z"/><path class="cls-2" d="M210,155.47s-13.53-38.37-13.53-38.92-3.86-13.81-3.86-13.81-15.18-3.86-20.71,0a12.61,12.61,0,0,0-5.58,10.18c1.62,3.81,12,28.09,19.39,39.51,0,0,8,5.8,11,6.35A30.71,30.71,0,0,1,210,155.2"/><path class="cls-3" d="M207.63,150.59a6.29,6.29,0,0,1-1.51-4.81,1.18,1.18,0,0,0-.05-.85c-.25-.38-.81-.28-1.26-.28a3,3,0,0,1-2.55-1.72,8.79,8.79,0,0,1-.82-3.11l-1.16-8.41a52.33,52.33,0,0,0-1.78-9,51.48,51.48,0,0,0-3.16-7.18l-5.9-11.78c-.27-.54-.38-3.74-.92-4-1,1.87-1,5.52-3.36,5.79-.27.11-.6.22-.68.5-.12.47.51.72,1,.89,2.1.76,3.47,3.8,3.6,6a52.87,52.87,0,0,0,4,17.5c1.83,4.32,4.28,8.36,5.77,12.8.63,1.87,1,4.09-.16,5.66a1.28,1.28,0,0,1,1.64,1.14,2.25,2.25,0,0,1-1.15,1.92,11.79,11.79,0,0,1-2.16.92,10,10,0,0,0-3.29,2.08,1.11,1.11,0,0,0-.38.6c-.06.4,1.83,1.74,2.18,2,2.31,1.41,9.57-1.95,12.27-2,4.05,0,2.34,2.3,6,.53A29.93,29.93,0,0,1,207.63,150.59Z"/><path class="cls-3" d="M188.21,151.24a9,9,0,0,1-5.75-6.45c-.46-1.64-.93-3.11-1.36-4.76-.88-3.28-3.48-5.81-5.26-8.73-3.81-6.26-3.71-14.15-7-20.7a2.52,2.52,0,0,1-.26-1.54c-.79,0-.92,2.4-1.48,3s-2,0-2.73.07-1.61.72-1.36,1.38a2.8,2.8,0,0,1,2.75.83c.68.7.28,2.28.11,3.85s2.92,9.86,4.74,12.92,5,8.41,8.77,14.81c.24.83-.39,2.37-.64,3.37s-1.26,1.26-2.13,1.61-2.68.29-2.53,1.16c3.59-.42,5.8-.84,9.52-.12a8.84,8.84,0,0,1,4.13,2C188.66,152.52,186.32,152.3,188.21,151.24Z"/><path class="cls-3" d="M166.55,112.33c.86,1.65,1.67,3.33,2.46,5s1.6,3.36,2.36,5c1.56,3.37,3.08,6.75,4.61,10.12s3.06,6.74,4.67,10.06l1.22,2.49c.41.82.83,1.64,1.26,2.45l.65,1.22.68,1.2.36.59.35.58c.13.19.25.39.38.57s.27.37.39.51l0,0c.6.45,1.18.93,1.76,1.39l1.75,1.42c-.66-.36-1.31-.73-2-1.1s-1.3-.75-1.94-1.14h0l0,0a6.84,6.84,0,0,1-.54-.53c-.17-.17-.31-.36-.47-.54-.31-.36-.59-.74-.88-1.11l-.82-1.15-.78-1.18c-.5-.79-1-1.59-1.47-2.39s-.94-1.62-1.38-2.44c-1.8-3.28-3.39-6.65-4.91-10s-2.91-6.86-4.18-10.36l-.48-1.31-.47-1.32c-.3-.88-.63-1.75-.9-2.64C167.62,115.9,167.06,114.12,166.55,112.33Z"/><path class="cls-5" d="M210,155.2h-.1l.1.27Z"/><path class="cls-2" d="M196.2,86.73c-8.56,3.32-7.73,16.29-7.73,16.29,1.65,4.69,9.66,35.89,13,41.13a98.28,98.28,0,0,0,8.56,11s4.69,4.41,7.73,5.79c0,0,10.7-4.42,15.43-8.83,0,0-8.53-8.28-10.18-16-1.07-4.52-1.2-20.15-1.16-31.85,0-.45-6.77-9.84-6.24-17.71A10.63,10.63,0,0,0,210.83,84C207.7,83.2,200.06,85.91,196.2,86.73Z"/><path class="cls-3" d="M223.34,136.17c-1.06-4.52-.63-20-1.52-31.87,0-.29-3.51-6.27-5.37-11.1-2-3.4-4.77-7.27-6-.4-.47,2.64-.93,3.61-1,6.27-.07,2.4-2.93,7.5-2.74,9.9.3,3.82,3.76,7.07,4.61,10.88,1,4.48,1.74,9,3,13.42a53.79,53.79,0,0,0,2.92,7.47,7.5,7.5,0,0,1-2.34,1.64,12.77,12.77,0,0,0-3.53,2.09c1.32.62,2.87.22,4.27-.19l2.88-.84c.47,1,.93,2,1.38,3h0a14.18,14.18,0,0,1-1.17,2,7.25,7.25,0,0,1-2.32,2.29,8.54,8.54,0,0,1-3.28.83,53.93,53.93,0,0,1-6,.29c1.62,2,2.83,3.31,2.83,3.31a55.88,55.88,0,0,0,5,4.15l0,0,.44.3h0l.44.3.06,0c.13.07.25.15.37.23l.08.05.4.23.06,0,.33.18.11.05a3.14,3.14,0,0,0,.37.18h0l.07,0h0l.12,0h0l.16-.07h0l.2-.08h0l.25-.11h0l1-.45h0l.4-.18h0l.42-.19h0l.45-.21h0l.47-.22h0c3.55-1.68,8.79-4.42,11.72-7.16C233.16,152.16,225,143.9,223.34,136.17Z"/><path class="cls-2" d="M215.25,80.94,225.41,76c2.36-1.14,4.83-2,7.23-.9s5.83,1.23,8,1.76c2.53.61,4.71,3.38,6.5,5.28a41.06,41.06,0,0,1,5,6.37c3,14.35-5,19.92-5,19.92-9.94,7.18-18.64,4.18-23.71,2.57-6.75-3.72-8-9.18-8-9.18a37.23,37.23,0,0,1-1.49-7C213.48,90.84,216.85,85.63,215.25,80.94Z"/><path class="cls-3" d="M214.09,94.78c.16,1.19.38,2.37.65,3.54.13.58.28,1.16.44,1.73s.33,1.16.53,1.71v0a11.88,11.88,0,0,0,1.28,2.73,16.12,16.12,0,0,0,1.86,2.41,17.59,17.59,0,0,0,2.28,2,20.72,20.72,0,0,0,2.58,1.62l-.09,0A45.94,45.94,0,0,0,229.2,112a23.15,23.15,0,0,0,5.63.34,20.09,20.09,0,0,0,5.48-1.12,23,23,0,0,0,5-2.51c.4-.25.78-.53,1.17-.81l.14-.1.06-.05.06,0,.24-.2.48-.46a12.88,12.88,0,0,0,1.66-2.14,16.38,16.38,0,0,0,2.08-5,19.38,19.38,0,0,0,.43-2.73c.05-.46.06-.92.09-1.38s0-.93,0-1.39a29.76,29.76,0,0,0-.75-5.54l0,.18c-.06-.15-.16-.37-.25-.55s-.19-.39-.29-.59c-.21-.39-.43-.77-.65-1.15-.45-.76-.95-1.5-1.47-2.21s-1.07-1.4-1.65-2.08a14.7,14.7,0,0,0-1.79-1.82A15.69,15.69,0,0,0,240.56,78c-.8-.33-1.64-.6-2.48-.87a24.88,24.88,0,0,0-2.54-.65,21.46,21.46,0,0,0-5.17-.42,13.09,13.09,0,0,0-2.51.35l-.59.16c-.18.06-.39.12-.55.19l-.26.1-.31.16-.62.31q-4.93,2.49-9.92,4.9l-.28.14-.22-.06-2.5-.58-2.49-.61c-.83-.2-1.66-.42-2.49-.63s-1.65-.43-2.48-.65l0-.27c.85.09,1.7.17,2.55.28s1.7.19,2.55.3l2.54.32,2.54.34-.5.08q4.77-2.87,9.59-5.63l.61-.35.3-.17.37-.18a13.24,13.24,0,0,1,1.47-.55,17,17,0,0,1,3-.53,22.39,22.39,0,0,1,2.95-.06,21.93,21.93,0,0,1,2.92.33,27.77,27.77,0,0,1,2.84.65,28.12,28.12,0,0,1,2.76,1,17.34,17.34,0,0,1,5.12,3.09,18.15,18.15,0,0,1,2,2.19c.59.74,1.17,1.52,1.71,2.32s1,1.63,1.49,2.47c.23.43.46.86.66,1.3.11.22.21.44.31.66l.3.71,0,.1,0,.09a31.72,31.72,0,0,1,.61,6c0,.25,0,.51,0,.76l0,.76c0,.5-.07,1-.14,1.51a20.7,20.7,0,0,1-.56,3,18.45,18.45,0,0,1-2.49,5.59,15,15,0,0,1-2,2.39l-.58.53-.32.25-.09.07-.09.06-.16.11c-.41.27-.82.55-1.25.81a24.08,24.08,0,0,1-5.44,2.54,21.66,21.66,0,0,1-5.91,1,24.09,24.09,0,0,1-5.94-.56,47.63,47.63,0,0,1-5.64-1.66l-.06,0,0,0a21.48,21.48,0,0,1-2.64-1.79,19.29,19.29,0,0,1-2.31-2.21,16.41,16.41,0,0,1-1.86-2.6,13.52,13.52,0,0,1-.72-1.42,9.87,9.87,0,0,1-.53-1.53v0c-.18-.59-.33-1.17-.47-1.76s-.26-1.18-.37-1.78c-.22-1.19-.39-2.38-.51-3.59Z"/><path class="cls-4" d="M191,111.7l-3.37-.12L186,109.37l-2.48-.55a29.67,29.67,0,0,0-18.5,8.56s2.21,15.45,11.05,25.39c0,0,10.49-3.31,16-7.45l1.65-1.93v-3l2.2-1.64s1.39-2-1.09-10.23S191,111.7,191,111.7Z"/><path class="cls-3" d="M193.71,130.35v3l-1.65,1.93c-5.52,4.14-16,7.45-16,7.45-8.84-9.94-11.05-25.39-11.05-25.39a29.67,29.67,0,0,1,18.5-8.56l2.48.55,1.66,2.21A93.57,93.57,0,0,1,193.71,130.35Z"/><path class="cls-3" d="M176,142.67c1.37-.57,2.72-1.16,4.06-1.77.67-.3,1.34-.62,2-.94l2-1c1.3-.68,2.6-1.35,3.83-2.11a41.22,41.22,0,0,0,3.5-2.47l-.19.17c.28-.32.56-.64.85-.95s.58-.62.88-.92l-.25.69c0-.51.09-1,.14-1.52s.13-1,.21-1.52l.07-.45.21-.11c.41-.22.82-.43,1.25-.62a13.69,13.69,0,0,1,1.3-.55l.13.18c-.28.38-.58.74-.89,1.09s-.63.69-1,1l.29-.56c.08.51.14,1,.2,1.52s.11,1,.15,1.52l0,.31-.28.37c-.25.34-.5.69-.77,1s-.53.66-.81,1l-.1.11-.08.06a27.28,27.28,0,0,1-4,2.21l-1,.48-1,.46c-.68.3-1.38.57-2.07.84-1.4.54-2.81,1-4.23,1.45s-2.84.85-4.29,1.2Z"/><path class="cls-3" d="M191,111.81l-.85.17-.85.13c-.28,0-.57.08-.85.12l-.85.09-.25,0-.31-.32q-1-1-1.89-2l.6.39c-.84-.12-1.68-.26-2.51-.43l.28,0-.28,0-.3,0-.61,0-1.23.13c-.83.1-1.66.22-2.49.4a31.46,31.46,0,0,0-9.38,3.82l-.55.33a6.18,6.18,0,0,0-.53.36l-1,.74c-.36.24-.68.53-1,.8l-1,.81-.16-.15.9-1c.3-.31.6-.64.93-.92l1-.88c.16-.16.33-.29.5-.43l.52-.4c.69-.56,1.42-1,2.16-1.55.36-.24.75-.45,1.13-.68l.58-.33c.19-.11.39-.21.59-.31a29.89,29.89,0,0,1,4.93-2c.85-.28,1.72-.53,2.59-.74.44-.1.88-.2,1.34-.26.22,0,.45-.07.68-.09l.34,0,.38,0h.15l.13,0c.82.19,1.64.42,2.46.67l.43.13.16.26c.5.77,1,1.56,1.43,2.37l-.56-.29.83.15.84.17c.28.07.56.12.84.2s.56.14.84.23Z"/><path class="cls-2" d="M192.06,135.32l1.65-1.93v-3a93.57,93.57,0,0,0-6.07-18.77L186,109.37l-2.48-.55A86.47,86.47,0,0,1,192.06,135.32Z"/><path class="cls-4" d="M182.39,111s6.91,17.11,7.73,23.19c-4.41,4.14-13.25,6.62-13.52,6.62,0,0-8.84-12.42-9.94-22.91C166.66,117.93,174.67,111.3,182.39,111Z"/><path class="cls-2" d="M180.46,115.17s5.25,12.7-1.1,20.7c0,0-9.94-1.1-14.36-12.15C165,123.72,166.66,116,180.46,115.17Z"/><path class="cls-4" d="M179.11,117.25s4.19,10.14-.88,16.54a15.09,15.09,0,0,1-11.47-9.7S168.09,117.91,179.11,117.25Z"/><path class="cls-5" d="M179.13,117.21l0,.05v0l0,.07.06.12.11.25.21.5c.13.34.26.68.38,1a21.8,21.8,0,0,1,.59,2.1,19.36,19.36,0,0,1,.39,2.15,20,20,0,0,1,.15,2.19,16.24,16.24,0,0,1-.13,2.2,13.52,13.52,0,0,1-.5,2.16,12.47,12.47,0,0,1-.88,2,13.45,13.45,0,0,1-1.24,1.81l-.06.07h-.08a16,16,0,0,1-3.77-1.22,15.49,15.49,0,0,1-3.38-2.07,7.89,7.89,0,0,1-.76-.65,9.54,9.54,0,0,1-.72-.7l-.67-.75c-.21-.26-.4-.53-.6-.8a16.71,16.71,0,0,1-1.07-1.7l-.13-.21-.11-.23-.21-.45-.43-.91-.05-.12,0-.13a4.69,4.69,0,0,1,.36-1,6.59,6.59,0,0,1,.49-.86,6.49,6.49,0,0,1,.59-.79c.2-.26.45-.48.67-.72a11.18,11.18,0,0,1,3.25-2.08l.44-.19.45-.17.91-.29c.3-.1.62-.15.93-.22l.92-.2c.63-.08,1.25-.17,1.88-.23Zm0,.07-1.83.3-1.81.39a19.39,19.39,0,0,0-3.44,1.27,11.08,11.08,0,0,0-3,2,10.38,10.38,0,0,0-1.12,1.36,6.49,6.49,0,0,0-.44.76c-.06.13-.12.27-.17.4a2.57,2.57,0,0,0-.14.38l0-.25.39.87.19.44.1.22.11.21a17.06,17.06,0,0,0,1,1.65,15.72,15.72,0,0,0,2.48,2.92,13.44,13.44,0,0,0,3.16,2.22,11.24,11.24,0,0,0,3.68,1.18l-.14.06a11.27,11.27,0,0,0,1.08-1.83,11.78,11.78,0,0,0,.68-2,17.93,17.93,0,0,0,.37-2.07c.08-.7.12-1.4.13-2.11a26.35,26.35,0,0,0-.34-4.24c-.12-.7-.25-1.4-.41-2.1-.08-.35-.16-.7-.25-1l-.15-.52-.07-.26,0-.13,0-.06v0S179.09,117.29,179.09,117.28Z"/><path class="cls-3" d="M180.46,115.17s5.25,12.7-1.1,20.7c0,0,8.28-3.59,3.59-20.15A3.73,3.73,0,0,0,180.46,115.17Z"/><path class="cls-3" d="M186.26,129.25s-1.1,5.24-2.76,6.35l4.42-2.49S187.09,129.8,186.26,129.25Z"/><path class="cls-3" d="M178.81,137.8l-1.94,1.11-2.2-3S177.15,138.08,178.81,137.8Z"/><path d="M173.6,129.43a.75.75,0,0,1-.59,0,2.09,2.09,0,0,1-.74-.48l-.12-1a2.07,2.07,0,0,0,.53.36.48.48,0,0,0,.43,0,.28.28,0,0,0,.17-.25.85.85,0,0,0-.1-.43h0a1,1,0,0,0-.11-.21.67.67,0,0,0-.15-.14.75.75,0,0,0-.2-.1l-.3-.07A2.47,2.47,0,0,1,172,127a1.34,1.34,0,0,1-.38-.22,2.06,2.06,0,0,1-.36-.4,4.53,4.53,0,0,1-.37-.68v0a5.3,5.3,0,0,1-.26-.72,2.37,2.37,0,0,1-.09-.61,1,1,0,0,1,.08-.45.49.49,0,0,1,.25-.26.69.69,0,0,1,.53,0,1.9,1.9,0,0,1,.61.36l.18,1a2.5,2.5,0,0,0-.47-.28.48.48,0,0,0-.35,0,.29.29,0,0,0-.15.24,1,1,0,0,0,.09.38v0a1.57,1.57,0,0,0,.13.23.75.75,0,0,0,.16.15,1,1,0,0,0,.21.08l.31.07a1.64,1.64,0,0,1,.41.11,1.73,1.73,0,0,1,.38.24,2.3,2.3,0,0,1,.34.4,3.52,3.52,0,0,1,.34.62v0a4.29,4.29,0,0,1,.28.77,2.57,2.57,0,0,1,.09.62,1.08,1.08,0,0,1-.1.46A.53.53,0,0,1,173.6,129.43Z"/><path d="M172.19,123.15l.52-.23,1.67,2.12-.52-2.65.51-.24L177,127.8l-.47.21-1.69-3.68.49,2.69h0l-1.7-2.11,1.67,3.66-.47.21Z"/><path d="M178.55,127.19a.67.67,0,0,1-.55,0,2,2,0,0,1-.64-.45,5.35,5.35,0,0,1-.66-.82,8.6,8.6,0,0,1-.6-1.09v0a7.6,7.6,0,0,1-.43-1.17,4.79,4.79,0,0,1-.19-1,2,2,0,0,1,.07-.79.66.66,0,0,1,.35-.44.56.56,0,0,1,.31-.06.87.87,0,0,1,.31.07,1.3,1.3,0,0,1,.31.19,2.73,2.73,0,0,1,.33.28l.11,1.05a2.1,2.1,0,0,0-.47-.35.43.43,0,0,0-.38,0,.36.36,0,0,0-.19.25,1.68,1.68,0,0,0,0,.47,3.13,3.13,0,0,0,.13.62,5.57,5.57,0,0,0,.27.7v0a5.14,5.14,0,0,0,.36.66,3.77,3.77,0,0,0,.39.51,1.54,1.54,0,0,0,.38.29.33.33,0,0,0,.32,0,.4.4,0,0,0,.23-.32,2.65,2.65,0,0,0,0-.6l.67.66c0,.18,0,.35,0,.5a1.76,1.76,0,0,1-.06.41.8.8,0,0,1-.14.31A.71.71,0,0,1,178.55,127.19Z"/><path class="cls-3" d="M188.47,103c2,4.35,3.81,8.77,5.41,13.28.4,1.13.78,2.26,1.16,3.4.18.57.37,1.13.54,1.72s.34,1.18.48,1.77c.58,2.36.94,4.73,1.44,7,.13.57.26,1.14.41,1.69s.32,1.09.5,1.67c.37,1.13.73,2.26,1.11,3.38s.77,2.24,1.18,3.34c.21.54.42,1.09.65,1.62a15.42,15.42,0,0,0,.71,1.53c.12.22.29.47.44.72s.31.5.47.74c.32.49.65,1,1,1.47.68,1,1.36,1.93,2.06,2.88s1.43,1.89,2.16,2.82,1.47,1.87,2.22,2.78l0,0c.56.56,1.14,1.12,1.72,1.68s1.18,1.09,1.79,1.61,1.22,1.05,1.86,1.54a15.93,15.93,0,0,0,2,1.35,13.81,13.81,0,0,1-2.18-1.08c-.71-.41-1.39-.86-2.06-1.33s-1.31-1-2-1.45-1.28-1-1.9-1.55h0l0,0c-.84-.87-1.65-1.75-2.45-2.64s-1.58-1.81-2.34-2.74-1.52-1.86-2.24-2.83c-.36-.48-.71-1-1.06-1.47-.18-.25-.34-.5-.51-.75s-.34-.5-.51-.8A24.7,24.7,0,0,1,199,141c-.45-1.12-.86-2.26-1.25-3.39s-.76-2.27-1.12-3.42c-.18-.56-.37-1.16-.52-1.75s-.29-1.2-.42-1.79c-.48-2.39-.78-4.75-1.26-7-.11-.57-.24-1.14-.39-1.7l-.45-1.71c-.31-1.15-.63-2.29-1-3.43l-1-3.43-1-3.41-1-3.42C189.14,105.32,188.79,104.17,188.47,103Z"/><path class="cls-3" d="M131.59,129l4.56-.5a14.51,14.51,0,0,0,0,5.44h-3.72A12.22,12.22,0,0,1,131.59,129Z"/><path class="cls-6" d="M253.92,157.82a36.19,36.19,0,0,0,7.7.83C258.92,158.44,256.36,158.16,253.92,157.82Z"/><path class="cls-2" d="M262,94.31a6.33,6.33,0,0,1,1.73-.41,17.56,17.56,0,0,1,1.77-.13,23.43,23.43,0,0,1,3.55.23A25,25,0,0,1,276,96a22.25,22.25,0,0,1,6,4,19.33,19.33,0,0,1,4.23,5.67,32.26,32.26,0,0,0-4.93-4.85,29.8,29.8,0,0,0-5.83-3.51,34.78,34.78,0,0,0-6.48-2.18c-1.12-.25-2.25-.46-3.39-.61-.58-.07-1.15-.13-1.73-.16q-.43,0-.87,0A4.25,4.25,0,0,0,262,94.31Z"/><path class="cls-2" d="M258.16,98.58a6.29,6.29,0,0,1,1.68-.57c.58-.13,1.17-.21,1.76-.29a23.4,23.4,0,0,1,3.55-.1,24.71,24.71,0,0,1,7,1.33,21.81,21.81,0,0,1,6.3,3.39,19,19,0,0,1,4.74,5.25,32.13,32.13,0,0,0-5.36-4.37,29.4,29.4,0,0,0-6.13-3,35,35,0,0,0-6.65-1.56c-1.14-.15-2.28-.26-3.44-.3-.57,0-1.15,0-1.73,0-.29,0-.58,0-.87,0A5.14,5.14,0,0,0,258.16,98.58Z"/><path class="cls-2" d="M260.09,102.27a1.76,1.76,0,0,1,.1-.68,5.07,5.07,0,0,1,.24-.65,9.53,9.53,0,0,1,.67-1.21,13.7,13.7,0,0,1,1.73-2.15,16.3,16.3,0,0,1,4.51-3.2,17.69,17.69,0,0,1,2.59-1,18.08,18.08,0,0,1,2.71-.55,16.33,16.33,0,0,1,5.45.27,37.22,37.22,0,0,0-5.26.8c-.85.2-1.68.45-2.5.73a22.68,22.68,0,0,0-2.39,1,21.92,21.92,0,0,0-4.38,2.75,17.91,17.91,0,0,0-1.93,1.76q-.47.48-.87,1a5.93,5.93,0,0,0-.38.54A2,2,0,0,0,260.09,102.27Z"/><path class="cls-2" d="M264.56,105.05a1,1,0,0,1,0-.63,4.24,4.24,0,0,1,.17-.61,9.21,9.21,0,0,1,.55-1.14,12.82,12.82,0,0,1,1.5-2,18.12,18.12,0,0,1,3.86-3.18,19.56,19.56,0,0,1,4.54-2.06,17.25,17.25,0,0,1,4.87-.81c-1.54.59-3,1.16-4.49,1.82a38.89,38.89,0,0,0-4.19,2.22,31.68,31.68,0,0,0-3.83,2.78,22.07,22.07,0,0,0-1.71,1.64,9.51,9.51,0,0,0-.76.92,3.21,3.21,0,0,0-.31.5A.94.94,0,0,0,264.56,105.05Z"/><path class="cls-2" d="M271.7,106.46a9.38,9.38,0,0,1,1.4-3.42,12.92,12.92,0,0,1,5.58-4.84,10.17,10.17,0,0,1,1.75-.63,5.57,5.57,0,0,1,.9-.2c.31-.05.61-.1.92-.13-.52.36-1.05.62-1.56,1s-1,.61-1.48,1a26.16,26.16,0,0,0-2.77,2.1,27.17,27.17,0,0,0-2.48,2.44A34.84,34.84,0,0,0,271.7,106.46Z"/><path class="cls-2" d="M220.89,98.56c5.55.25,23.2-3.83,25.23-8.55a19,19,0,0,0-4.31-3.23s-13.05-2-21.07,6.75C220.74,93.53,219.57,97.39,220.89,98.56Z"/><path class="cls-5" d="M220.94,98.43c.22-.07.52-.1.79-.16l.84-.17,1.65-.38c1.09-.27,2.19-.54,3.27-.83,2.18-.57,4.34-1.16,6.49-1.79,1.07-.31,2.14-.6,3.22-.89s2.16-.57,3.23-.92A15.86,15.86,0,0,0,243.49,92a7.48,7.48,0,0,0,1.32-.94,3.58,3.58,0,0,0,.93-1.22l.07.45a7.37,7.37,0,0,0-1-.83,9.21,9.21,0,0,0-1.14-.67,13.08,13.08,0,0,0-1.2-.56l-1.21-.51.37.13-.65,0h-2.06c-.92,0-1.84.09-2.75.19a32.71,32.71,0,0,0-5.33,1.09,26.49,26.49,0,0,0-5,2,21.29,21.29,0,0,0-4.38,3.12l.23-.4c-.16.34-.3.75-.44,1.14a12.27,12.27,0,0,0-.35,1.18,6,6,0,0,0-.19,1.18,2.88,2.88,0,0,0,0,.59c0,.09,0,.18.07.28l.06.13A1,1,0,0,0,220.94,98.43Zm-.1.25a.82.82,0,0,1-.2-.12l-.15-.12a3.47,3.47,0,0,1-.25-.29,3.52,3.52,0,0,1-.34-.67,6,6,0,0,1-.29-1.42,9.64,9.64,0,0,1,0-1.42,11.87,11.87,0,0,1,.15-1.41l0-.15.2-.25a18.47,18.47,0,0,1,4.51-4.08,20.53,20.53,0,0,1,5.55-2.5,26.21,26.21,0,0,1,5.95-.91c1,0,2,0,3,0,.49,0,1,.06,1.49.12l.74.11.77.14.27,0,.11.08a23.48,23.48,0,0,1,2.11,1.87l1,1,.49.5c.17.17.32.33.49.52l.19.2-.11.24a5.32,5.32,0,0,1-1.11,1.51A12.45,12.45,0,0,1,244,92.83a33.08,33.08,0,0,1-2.95,1.92,28.09,28.09,0,0,1-6.42,2.74,42.88,42.88,0,0,1-6.81,1.32,31.25,31.25,0,0,1-3.48.21c-.58,0-1.17,0-1.75-.07q-.44,0-.87-.09A9.1,9.1,0,0,1,220.84,98.68Z"/><path class="cls-3" d="M176.4,90.24c1.63-.14,6.83,1.13,8.42,1.51,2.45.57,7.47,1.17,8.92-1.6a.85.85,0,0,0,0-.76,2.08,2.08,0,0,0-.35-.38,2.65,2.65,0,0,1-.23-2.6,21.87,21.87,0,0,1,1.44-3.64L189.13,88c-.85.81-1.86,1.69-3,1.62C184.74,90.32,177.89,90.4,176.4,90.24Z"/><path class="cls-3" d="M163.22,104.93a4.38,4.38,0,0,0,3.4-.55,5.07,5.07,0,0,0,1.23-2.21,28,28,0,0,1,2.05-4.45c-.44.74-.9,1.48-1.37,2.2a8.09,8.09,0,0,1-1.48,1.81c-2.42,2-5.93.81-8.52,2.34A19.24,19.24,0,0,0,163.22,104.93Z"/><path class="cls-3" d="M214.34,84.51a1.76,1.76,0,0,0,.69.26c.64.07,1.14-.51,1.53-1a48.19,48.19,0,0,1,6.56-6.45c-4,1.8-8.15,3.65-12.51,3.41-2.51-.14-5.27-1.2-7.76-.54,1,1.11,4.07,1.21,5.5,1.7A39,39,0,0,1,214.34,84.51Z"/><path class="cls-3" d="M207.63,150.59a6.29,6.29,0,0,1-1.51-4.81,1.18,1.18,0,0,0-.05-.85c-.25-.38-.81-.28-1.26-.28a3,3,0,0,1-2.55-1.72,8.79,8.79,0,0,1-.82-3.11l-1.16-8.41a52.33,52.33,0,0,0-1.78-9,51.48,51.48,0,0,0-3.16-7.18l-5.9-11.78c-.27-.54-.38-3.74-.92-4-1,1.87-1,5.52-3.36,5.79-.27.11-.6.22-.68.5-.12.47.51.72,1,.89,1.78.64,3,2.92,3.45,5,.08.37,1.47-.24,1.49.1a90.11,90.11,0,0,1,5,17.1c.29.68-1.69,2.72-1.38,3.39,1.67,3.58,3.62,7,4.87,10.78.63,1.87,1,4.09-.16,5.66a1.28,1.28,0,0,1,1.64,1.14,2.25,2.25,0,0,1-1.15,1.92,11.79,11.79,0,0,1-2.16.92,10,10,0,0,0-3.29,2.08,1.11,1.11,0,0,0-.38.6c-.06.4,1.83,1.74,2.18,2,2.31,1.41,9.57-1.95,12.27-2,4.05,0,2.34,2.3,6,.53A29.93,29.93,0,0,1,207.63,150.59Z"/><path class="cls-3" d="M226.26,102.45c.43,3,.6,3.91,3.29,5.14,1,.43,2.68.65,3.61,1.47.24,1.1-1.25,1.36-1.62,1.44a6.66,6.66,0,0,1-1.66.14,12.09,12.09,0,0,1-3.4-.73c-3.85-1.33-6.74-4-7.38-8.26-.41-2.72-.92-7.11.75-8.6.67,1.22.15,4.72,1.39,5.36a3,3,0,0,0,1.75.12c1.14-.16,5-.33,5-.33s-1.14,1.64-1.44,2.17A3.62,3.62,0,0,0,226.26,102.45Z"/><path class="cls-2" d="M120.53,174.12H105.9q-27.16,0-27.16,31.49v27.32h28.67a9.92,9.92,0,0,1-1.51-5.52v-14.8q0-7,5.44-7h3.76q5.43,0,5.43,7v24.22H147.7V205.61Q147.7,174.13,120.53,174.12Zm-9.65,62.6H78.74v.11a32.55,32.55,0,0,0,2.09,11.71,25.85,25.85,0,0,0,5.85,9.29L118,289.59a10.82,10.82,0,0,1,2.51,7.27v22.87q0,7-5.43,7h-3.76q-5.45,0-5.44-7V286.36H78.74v39.57q0,31.49,27.16,31.49h14.63q25.29,0,27.17-26.92V287.44q0-13.19-7.94-21.27Zm198.4,83q0,7-5.43,7h-3.76q-5.44,0-5.44-7V292.81H267.49v33.12q0,31.49,27.16,31.49h14.63q27.17,0,27.17-31.49V293.36H309.28ZM207.77,288.24,197.53,174.12H157.19v183.3h27.17V239L195,333h25.5L231,239V357.42h27.16V174.12H217.8ZM309.28,174.12H294.65q-27.16,0-27.16,31.49V289h27.16V212.61q0-7,5.44-7h3.76q5.43,0,5.43,7v24.22h27.17V205.61Q336.45,174.13,309.28,174.12Z"/><path class="cls-7" d="M141.52,391.89l3.36-.37c.14,3.76.39,7.54.85,11.29A78.25,78.25,0,0,0,147.9,414c.56,2,4.06,2.51,4.89.44a123,123,0,0,1,5.49-12c2-3.87,4-7.69,5.77-11.58,2.2-4.82,3.91-9.76,5.66-14.64a106.33,106.33,0,0,1,.06,16.14c-.33,5.9-.9,12-1.41,17.48a2.69,2.69,0,0,0,5,1.12c.22-2.48,1.87-8.27,3.68-14.24s3.8-12,4.77-15.27c-.16,1.57-.32,3.15-.49,4.74-.42,4-.78,8-1,12.11a98.36,98.36,0,0,0,.16,12.48c.19,2.55,3.9,3.38,5,1.11,1.64-3.4,2-7.6,2.83-11.25,1-4.35,2.13-8.65,3.29-12.88.73-2.7,1.54-5.53,2.45-8.34s1.92-5.58,3.08-8.24c-.66,4.91-1.28,11-1.62,17.14a113,113,0,0,0,.13,17.27c.27,2.75.13,5.52,2.58,7.18-16.13.56-32.4,1.42-48.12,5.34-3.17.79-1.56,5.63,1.61,4.84,16.28-4.06,33.27-4.69,50-5.2,16.87-.5,33.76-.31,50.62.35,3.28.13,3-5-.26-5.09-13.23-.52-26.46-.75-39.69-.58.05-.07.11-.14.16-.22,1.95-2.94,10.08-11.68,12.31-14.27-.8,3.6-1.19,5.09-2.05,8.75-.48,2,2.56,4.16,4.2,2.74,4.87-4.14,10.17-8.15,15.31-11.79h0a6,6,0,0,0,.58-.4c.87-.62,1.72-1.23,2.59-1.87a55,55,0,0,1-2.74,11.8c-1.47,2.43,2.83,5.09,4.54,2.95,5.36-3.15,7.42-5.16,13.6-9.61,1.39-1,2.24.59,3.78,0s4.23-5,5-2.91-.87,5.22-.84,6.85,1.26,3.09,2.16,3.16,1.78-.61,2.26-2.6-1.08-6-1.16-7.73a11,11,0,0,1,.48-4.1c.26-.59,2.8-2.36,4.37-3.51,3.72-2.33,4.3-2.16,8-3.49,4.18-1.51,1.68-5.25-1.43-4.69s-11.06,5.36-18.46,10.27-14.45,10-15.48,10.9c.46-3.46,1.42-8.25,2-11.63,4.57-4.61,10.89-9.72,14.56-14.79a2.48,2.48,0,0,0-.57-3.39c-4.32-4-7.29-8.87-10.43-13.47-1.11-1.6-4.4-1.07-4.87.72-.74,4.32-1.21,9-1.7,13.84s-.87,8.91-1.79,13.76c-.91.73-12.67,9.58-17,12.81,1.11-4.89,2.16-9.77,2.85-14.73.44-3.22.69-6.46.88-9.68s.36-6.4.62-9.54c4.06,1.07,7.18.86,11.64-.52,3-.92,1-5.41-2-4.49-3.94,1.22-6.76,1.39-10.9-.16-1.5-.55-3.31-.08-3.49,1.53-.33,2.95-.56,5.94-.75,8.94s-.38,6.08-.69,9.14c-1.39-1.81-5.1-6.71-8.91-11.4s-7.62-9.11-9.46-10.22a2.5,2.5,0,0,0-3.32.95c-1.3,2.22.13,5.38.51,7.81.52,3.45.82,6.43,1,9.41s.2,6,.25,9.48c-2.26,4-4.55,9.42-6.78,13.86-1.66,3.25-1.49,2.89,0,0a110.8,110.8,0,0,1,0-19.7c.49-6.42,1.37-12.68,2.15-18.53.4-3.1-5-3.51-6-2a50.92,50.92,0,0,0-5.3,9.93c-1.47,3.57-2.7,7.28-3.84,10.86-.6,1.89-1.66,5.77-1.66,5.77h0q-1.2,4.23,0,0c.16-1.79.33-3.59.49-5.38.37-3.85.56-7.68.65-11.52.06-2.49.42-5.07-.66-7.45a2.58,2.58,0,0,0-4.83.16c-1,3.65-2.21,7.3-3.39,11s-2.36,7.41-3.45,11.21c-.24.84-.49,1.68-.73,2.53,0-.54.11-1.1.15-1.65.18-3.19.17-7.21,0-11.22s-.44-8-.85-11.12c-.43-2.05-3.95-1.54-5,.83-1.38,3.17-2.63,6.42-3.83,9.71s-2.4,6.64-3.73,9.94c-2.63-3.33-5.27-6.14-7.05-10a114.42,114.42,0,0,1-4.52-12.78c-.73-2.13-3.5-1.94-4.64-.4-1.41,1.92-1,10.5-1,13.18s.65,9.61.71,12.36c-4.47.62-9.94,1-14.83,2.44-2.85.95-1.82,4.61-.42,5.12s3.29-.7,4-1.3a5.21,5.21,0,0,1,3.22-.58c.67.11,1.28.39,1.36,1.61,0,0-.11,2.57-.12,4.47s-1.19,4.33-1.33,6,.59,3.63,2.38,3.37,2.09-1.73,2-3.44-.74-1.72-.95-3.93a53.48,53.48,0,0,1,.12-6.66c0-1,.74-1.63,1.85-1.85m111.55-17c.25-2.77.49-5.54.76-8.33a62.24,62.24,0,0,0,6.38,8c.42.63-3.81,4.8-8,8.79C253.05,380.45,253.32,377.65,253.58,374.86Zm-103.85,1.51c.08.2.16.4.26.6a38.56,38.56,0,0,0,5.24,7.7,53.52,53.52,0,0,1-5.39,1.07C149.79,382.58,149.75,379.44,149.73,376.37Zm5.66,20.25c-1.37,2.66-2.78,5.37-4.12,8.11a122.65,122.65,0,0,1-1.3-14.06,51.12,51.12,0,0,0,9.39-2C158.13,391.3,156.76,394,155.39,396.62Zm46.16,16.05a2.23,2.23,0,0,0,.56-.73c.14-.32.3-.64.45-1,1.73-3.77,3.68-9.14,5.75-13.2a.41.41,0,0,1,.07-.11c-.28,4.19-.24,7.5-.79,11.2a4.43,4.43,0,0,0,1.58,3.63C206.63,412.53,204.09,412.6,201.55,412.67Zm19.5-32c-.77.19-7.74,2-8.85,2.49,0-.93,0-1.89.06-2.83a56,56,0,0,0-.81-13C212.78,370.5,221.87,380.35,221.05,380.64Zm5,10.23a2.25,2.25,0,0,0-2.49.62c-3.93,4.24-6.11,6.37-10.05,10.36,0-.1,0-.21,0-.31-.23-3.94-.46-8.89-.56-12.75,5.66-2.24,14.58-5.09,14.77-5.81C227.56,384.2,226.31,389.64,226.08,390.87Z"/><path class="cls-8" d="M141.52,391.89l3.36-.37c.14,3.76.39,7.54.85,11.29A78.25,78.25,0,0,0,147.9,414c.56,2,4.06,2.51,4.89.44a123,123,0,0,1,5.49-12c2-3.87,4-7.69,5.77-11.58,2.2-4.82,3.91-9.76,5.66-14.64a106.33,106.33,0,0,1,.06,16.14c-.33,5.9-.9,12-1.41,17.48a2.69,2.69,0,0,0,5,1.12c.22-2.48,1.87-8.27,3.68-14.24s3.8-12,4.77-15.27c-.16,1.57-.32,3.15-.49,4.74-.42,4-.78,8-1,12.11a98.36,98.36,0,0,0,.16,12.48c.19,2.55,3.9,3.38,5,1.11,1.64-3.4,2-7.6,2.83-11.25,1-4.35,2.13-8.65,3.29-12.88.73-2.7,1.54-5.53,2.45-8.34s1.92-5.58,3.08-8.24c-.66,4.91-1.28,11-1.62,17.14a113,113,0,0,0,.13,17.27c.27,2.75.13,5.52,2.58,7.18-16.13.56-32.4,1.42-48.12,5.34-3.17.79-1.56,5.63,1.61,4.84,16.28-4.06,33.27-4.69,50-5.2,16.87-.5,33.76-.31,50.62.35,3.28.13,3-5-.26-5.09-13.23-.52-26.46-.75-39.69-.58.05-.07.11-.14.16-.22,1.95-2.94,10.08-11.68,12.31-14.27-.8,3.6-1.19,5.09-2.05,8.75-.48,2,2.56,4.16,4.2,2.74,4.87-4.14,10.17-8.15,15.31-11.79h0a6,6,0,0,0,.58-.4c.87-.62,1.72-1.23,2.59-1.87a55,55,0,0,1-2.74,11.8c-1.47,2.43,2.83,5.09,4.54,2.95,5.36-3.15,7.42-5.16,13.6-9.61,1.39-1,2.24.59,3.78,0s4.23-5,5-2.91-.87,5.22-.84,6.85,1.26,3.09,2.16,3.16,1.78-.61,2.26-2.6-1.08-6-1.16-7.73a11,11,0,0,1,.48-4.1c.26-.59,2.8-2.36,4.37-3.51,3.72-2.33,4.3-2.16,8-3.49,4.18-1.51,1.68-5.25-1.43-4.69s-11.06,5.36-18.46,10.27-14.45,10-15.48,10.9c.46-3.46,1.42-8.25,2-11.63,4.57-4.61,10.89-9.72,14.56-14.79a2.48,2.48,0,0,0-.57-3.39c-4.32-4-7.29-8.87-10.43-13.47-1.11-1.6-4.4-1.07-4.87.72-.74,4.32-1.21,9-1.7,13.84s-.87,8.91-1.79,13.76c-.91.73-12.67,9.58-17,12.81,1.11-4.89,2.16-9.77,2.85-14.73.44-3.22.69-6.46.88-9.68s.36-6.4.62-9.54c4.06,1.07,7.18.86,11.64-.52,3-.92,1-5.41-2-4.49-3.94,1.22-6.76,1.39-10.9-.16-1.5-.55-3.31-.08-3.49,1.53-.33,2.95-.56,5.94-.75,8.94s-.38,6.08-.69,9.14c-1.39-1.81-5.1-6.71-8.91-11.4s-7.62-9.11-9.46-10.22a2.5,2.5,0,0,0-3.32.95c-1.3,2.22.13,5.38.51,7.81.52,3.45.82,6.43,1,9.41s.2,6,.25,9.48c-2.26,4-4.55,9.42-6.78,13.86-1.66,3.25-1.49,2.89,0,0a110.8,110.8,0,0,1,0-19.7c.49-6.42,1.37-12.68,2.15-18.53.4-3.1-5-3.51-6-2a50.92,50.92,0,0,0-5.3,9.93c-1.47,3.57-2.7,7.28-3.84,10.86-.6,1.89-1.66,5.77-1.66,5.77h0q-1.2,4.23,0,0c.16-1.79.33-3.59.49-5.38.37-3.85.56-7.68.65-11.52.06-2.49.42-5.07-.66-7.45a2.58,2.58,0,0,0-4.83.16c-1,3.65-2.21,7.3-3.39,11s-2.36,7.41-3.45,11.21c-.24.84-.49,1.68-.73,2.53,0-.54.11-1.1.15-1.65.18-3.19.17-7.21,0-11.22s-.44-8-.85-11.12c-.43-2.05-3.95-1.54-5,.83-1.38,3.17-2.63,6.42-3.83,9.71s-2.4,6.64-3.73,9.94c-2.63-3.33-5.27-6.14-7.05-10a114.42,114.42,0,0,1-4.52-12.78c-.73-2.13-3.5-1.94-4.64-.4-1.41,1.92-1,10.5-1,13.18s.65,9.61.71,12.36c-4.47.62-9.94,1-14.83,2.44-2.85.95-1.82,4.61-.42,5.12s3.29-.7,4-1.3a5.21,5.21,0,0,1,3.22-.58c.67.11,1.28.39,1.36,1.61,0,0-.11,2.57-.12,4.47s-1.19,4.33-1.33,6,.59,3.63,2.38,3.37,2.09-1.73,2-3.44-.74-1.72-.95-3.93a53.48,53.48,0,0,1,.12-6.66c0-1,.74-1.63,1.85-1.85m111.55-17c.25-2.77.49-5.54.76-8.33a62.24,62.24,0,0,0,6.38,8c.42.63-3.81,4.8-8,8.79C253.05,380.45,253.32,377.65,253.58,374.86Zm-103.85,1.51c.08.2.16.4.26.6a38.56,38.56,0,0,0,5.24,7.7,53.52,53.52,0,0,1-5.39,1.07C149.79,382.58,149.75,379.44,149.73,376.37Zm5.66,20.25c-1.37,2.66-2.78,5.37-4.12,8.11a122.65,122.65,0,0,1-1.3-14.06,51.12,51.12,0,0,0,9.39-2C158.13,391.3,156.76,394,155.39,396.62Zm46.16,16.05a2.23,2.23,0,0,0,.56-.73c.14-.32.3-.64.45-1,1.73-3.77,3.68-9.14,5.75-13.2a.41.41,0,0,1,.07-.11c-.28,4.19-.24,7.5-.79,11.2a4.43,4.43,0,0,0,1.58,3.63C206.63,412.53,204.09,412.6,201.55,412.67Zm19.5-32c-.77.19-7.74,2-8.85,2.49,0-.93,0-1.89.06-2.83a56,56,0,0,0-.81-13C212.78,370.5,221.87,380.35,221.05,380.64Zm5,10.23a2.25,2.25,0,0,0-2.49.62c-3.93,4.24-6.11,6.37-10.05,10.36,0-.1,0-.21,0-.31-.23-3.94-.46-8.89-.56-12.75,5.66-2.24,14.58-5.09,14.77-5.81C227.56,384.2,226.31,389.64,226.08,390.87Z"/><path class="cls-4" d="M141.52,391.89l3.36-.37c.14,3.76.39,7.54.85,11.29A78.25,78.25,0,0,0,147.9,414c.56,2,4.06,2.51,4.89.44a123,123,0,0,1,5.49-12c2-3.87,4-7.69,5.77-11.58,2.2-4.82,3.91-9.76,5.66-14.64a106.33,106.33,0,0,1,.06,16.14c-.33,5.9-.9,12-1.41,17.48a2.69,2.69,0,0,0,5,1.12c.22-2.48,1.87-8.27,3.68-14.24s3.8-12,4.77-15.27c-.16,1.57-.32,3.15-.49,4.74-.42,4-.78,8-1,12.11a98.36,98.36,0,0,0,.16,12.48c.19,2.55,3.9,3.38,5,1.11,1.64-3.4,2-7.6,2.83-11.25,1-4.35,2.13-8.65,3.29-12.88.73-2.7,1.54-5.53,2.45-8.34s1.92-5.58,3.08-8.24c-.66,4.91-1.28,11-1.62,17.14a113,113,0,0,0,.13,17.27c.27,2.75.13,5.52,2.58,7.18-16.13.56-32.4,1.42-48.12,5.34-3.17.79-1.56,5.63,1.61,4.84,16.28-4.06,33.27-4.69,50-5.2,16.87-.5,33.76-.31,50.62.35,3.28.13,3-5-.26-5.09-13.23-.52-26.46-.75-39.69-.58.05-.07.11-.14.16-.22,1.95-2.94,10.08-11.68,12.31-14.27-.8,3.6-1.19,5.09-2.05,8.75-.48,2,2.56,4.16,4.2,2.74,4.87-4.14,10.17-8.15,15.31-11.79h0a6,6,0,0,0,.58-.4c.87-.62,1.72-1.23,2.59-1.87a55,55,0,0,1-2.74,11.8c-1.47,2.43,2.83,5.09,4.54,2.95,5.36-3.15,7.42-5.16,13.6-9.61,1.39-1,2.24.59,3.78,0s4.23-5,5-2.91-.87,5.22-.84,6.85,1.26,3.09,2.16,3.16,1.78-.61,2.26-2.6-1.08-6-1.16-7.73a11,11,0,0,1,.48-4.1c.26-.59,2.8-2.36,4.37-3.51,3.72-2.33,4.3-2.16,8-3.49,4.18-1.51,1.68-5.25-1.43-4.69s-11.06,5.36-18.46,10.27-14.45,10-15.48,10.9c.46-3.46,1.42-8.25,2-11.63,4.57-4.61,10.89-9.72,14.56-14.79a2.48,2.48,0,0,0-.57-3.39c-4.32-4-7.29-8.87-10.43-13.47-1.11-1.6-4.4-1.07-4.87.72-.74,4.32-1.21,9-1.7,13.84s-.87,8.91-1.79,13.76c-.91.73-12.67,9.58-17,12.81,1.11-4.89,2.16-9.77,2.85-14.73.44-3.22.69-6.46.88-9.68s.36-6.4.62-9.54c4.06,1.07,7.18.86,11.64-.52,3-.92,1-5.41-2-4.49-3.94,1.22-6.76,1.39-10.9-.16-1.5-.55-3.31-.08-3.49,1.53-.33,2.95-.56,5.94-.75,8.94s-.38,6.08-.69,9.14c-1.39-1.81-5.1-6.71-8.91-11.4s-7.62-9.11-9.46-10.22a2.5,2.5,0,0,0-3.32.95c-1.3,2.22.13,5.38.51,7.81.52,3.45.82,6.43,1,9.41s.2,6,.25,9.48c-2.26,4-4.55,9.42-6.78,13.86-1.66,3.25-1.49,2.89,0,0a110.8,110.8,0,0,1,0-19.7c.49-6.42,1.37-12.68,2.15-18.53.4-3.1-5-3.51-6-2a50.92,50.92,0,0,0-5.3,9.93c-1.47,3.57-2.7,7.28-3.84,10.86-.6,1.89-1.66,5.77-1.66,5.77h0q-1.2,4.23,0,0c.16-1.79.33-3.59.49-5.38.37-3.85.56-7.68.65-11.52.06-2.49.42-5.07-.66-7.45a2.58,2.58,0,0,0-4.83.16c-1,3.65-2.21,7.3-3.39,11s-2.36,7.41-3.45,11.21c-.24.84-.49,1.68-.73,2.53,0-.54.11-1.1.15-1.65.18-3.19.17-7.21,0-11.22s-.44-8-.85-11.12c-.43-2.05-3.95-1.54-5,.83-1.38,3.17-2.63,6.42-3.83,9.71s-2.4,6.64-3.73,9.94c-2.63-3.33-5.27-6.14-7.05-10a114.42,114.42,0,0,1-4.52-12.78c-.73-2.13-3.5-1.94-4.64-.4-1.41,1.92-1,10.5-1,13.18s.65,9.61.71,12.36c-4.47.62-9.94,1-14.83,2.44-2.85.95-1.82,4.61-.42,5.12s3.29-.7,4-1.3a5.21,5.21,0,0,1,3.22-.58c.67.11,1.28.39,1.36,1.61,0,0-.11,2.57-.12,4.47s-1.19,4.33-1.33,6,.59,3.63,2.38,3.37,2.09-1.73,2-3.44-.74-1.72-.95-3.93a53.48,53.48,0,0,1,.12-6.66c0-1,.74-1.63,1.85-1.85m111.55-17c.25-2.77.49-5.54.76-8.33a62.24,62.24,0,0,0,6.38,8c.42.63-3.81,4.8-8,8.79C253.05,380.45,253.32,377.65,253.58,374.86Zm-103.85,1.51c.08.2.16.4.26.6a38.56,38.56,0,0,0,5.24,7.7,53.52,53.52,0,0,1-5.39,1.07C149.79,382.58,149.75,379.44,149.73,376.37Zm5.66,20.25c-1.37,2.66-2.78,5.37-4.12,8.11a122.65,122.65,0,0,1-1.3-14.06,51.12,51.12,0,0,0,9.39-2C158.13,391.3,156.76,394,155.39,396.62Zm46.16,16.05a2.23,2.23,0,0,0,.56-.73c.14-.32.3-.64.45-1,1.73-3.77,3.68-9.14,5.75-13.2a.41.41,0,0,1,.07-.11c-.28,4.19-.24,7.5-.79,11.2a4.43,4.43,0,0,0,1.58,3.63C206.63,412.53,204.09,412.6,201.55,412.67Zm19.5-32c-.77.19-7.74,2-8.85,2.49,0-.93,0-1.89.06-2.83a56,56,0,0,0-.81-13C212.78,370.5,221.87,380.35,221.05,380.64Zm5,10.23a2.25,2.25,0,0,0-2.49.62c-3.93,4.24-6.11,6.37-10.05,10.36,0-.1,0-.21,0-.31-.23-3.94-.46-8.89-.56-12.75,5.66-2.24,14.58-5.09,14.77-5.81C227.56,384.2,226.31,389.64,226.08,390.87Z"/></g></g></svg>