<svg xmlns="http://www.w3.org/2000/svg" viewBox="0 0 417.43 531.4"><defs><style>.cls-1{stroke:#f19e00;stroke-miterlimit:10;stroke-width:10px;}.cls-2{fill:#fff;}.cls-3{fill:#1f140f;}.cls-4{fill:#f19e00;}.cls-5{fill:#000010;}.cls-6{fill:#9d9c9c;}.cls-7{fill:none;stroke:#000;stroke-linecap:round;stroke-linejoin:round;stroke-width:14px;}.cls-8{fill:#f7bd00;}</style></defs><title>SUPREMACIA REDUCIDO</title><g id="Capa_2" data-name="Capa 2"><g id="Capa_1-2" data-name="Capa 1"><path class="cls-1" d="M218.06,524.06a19.83,19.83,0,0,1-18.69,0c-43.27-23.2-79.76-54.92-113.84-98.76C29.06,352.62.26,280.1,5.64,186.26l7.5-138.43a26.63,26.63,0,0,1,26-25C131.62,21.23,167,13.57,204.5,5.45h0a20,20,0,0,1,8.43,0h0c37.47,8.12,72.87,15.78,165.31,17.37a26.63,26.63,0,0,1,26,25l7.5,137.71c5.38,93.84-23.42,167.08-79.89,239.76C297.84,469.14,261.35,500.86,218.06,524.06Z"/><path class="cls-2" d="M224.14,84c-1.35.33-24.28,7.1-26.77,8s-27.22,10-27.47,10l-2.26.84-.78-2.29c-1.85-5.49-10.74-17.36-14.53-21.11a6.64,6.64,0,0,1-1.92-12.92,6.41,6.41,0,0,1,2-.35,6.65,6.65,0,0,1,6.11,3.74,116.25,116.25,0,0,1,15.21,1.34c.67-4.83,2.1-15.24,3-21.69A6.63,6.63,0,0,1,178.62,38a6.41,6.41,0,0,1,2-.35,6.66,6.66,0,0,1,6.78,6.5,7.09,7.09,0,0,1-.19,1.68l15.14,16.36a68.93,68.93,0,0,1,12-11.4,6.78,6.78,0,0,1-.1-1,6.62,6.62,0,0,1,4.51-6.41,6.41,6.41,0,0,1,2-.35A6.64,6.64,0,0,1,225,54.92c-2.58,9.36.94,26.21,1,26.38l.39,2.2Z"/><path class="cls-2" d="M225.19,49.58a4.31,4.31,0,0,1-2.32,3.9c-2.48,10.18.74,28.23.74,28.23-1,.21-24.39,7.13-27,8s-27.52,10.07-27.52,10.07C167,93.51,156.9,80.21,153.2,77l-.58,0a4.29,4.29,0,1,1,4.16-4.82c7.83-.25,18.93,1.66,18.93,1.66.32-2.21,2.51-18.1,3.54-25.64A4.28,4.28,0,0,1,180.66,40,4.3,4.3,0,0,1,185,44.2a4.36,4.36,0,0,1-.55,2.16l18,19.51c4.68-6.85,12.36-12.58,14.58-14.19a4.35,4.35,0,0,1-.5-1.93,4.29,4.29,0,1,1,8.57-.17Z"/><path class="cls-3" d="M225.19,49.58a4.31,4.31,0,0,1-2.32,3.9c-3.11,7.91,0,23.88.74,28.23-1,.21-24.39,7.13-27,8s-27.52,10.07-27.52,10.07C167,93.51,156.9,80.21,153.2,77l-.58,0a4.29,4.29,0,1,1,4.16-4.82c7.83-.25,18.93,1.66,18.93,1.66.32-2.21,2.51-18.1,3.54-25.64A4.28,4.28,0,0,1,180.66,40,4.3,4.3,0,0,1,185,44.2a4.36,4.36,0,0,1-.55,2.16l18,19.51c4.68-6.85,12.36-12.58,14.58-14.19a4.35,4.35,0,0,1-.5-1.93,4.29,4.29,0,1,1,8.57-.17Z"/><path class="cls-4" d="M217.6,53.78l2.68-.74c.14-.87.24-1.33.24-1.33C219.49,52.4,218.52,53.09,217.6,53.78ZM176.28,77.16l-14.6,5.91c.88,1.06,1.77,2.17,2.63,3.31l27-10.92-.62-1.84,28.76-7.9c0-.76,0-1.49,0-2.2l-15.1,4.15a19.55,19.55,0,0,0-1.07,1.85l-1.15-1.24L190,71.61l-11.81,4.78c0,.51-.1,1-.15,1.49C177.45,77.62,176.86,77.38,176.28,77.16ZM153.76,74.3s.93.93,2.36,2.45l6.06-2.45A58.17,58.17,0,0,0,153.76,74.3ZM183,50.84l2.34-.64L181.38,46s-.35,3.27-.84,7.92l3-1.23ZM193.83,83,168.77,93.15a24,24,0,0,1,1.66,3.7l24.71-10L194.51,85l25.78-7.08c-.1-.72-.18-1.43-.26-2.12Zm-7-20.77,7.71-2.12-1.63-1.75-6.76,1.86-6.53,2.65c-.16,1.51-.32,3.05-.48,4.57l8.32-3.37Z"/><path class="cls-4" d="M191.9,77.3,165.49,88c.82,1.15,1.6,2.31,2.3,3.45l25.42-10.3-.62-1.84,27.08-7.43c0-.74-.1-1.46-.13-2.16Z"/><path class="cls-4" d="M208.1,62.61l11.49-3.15c0-.81.11-1.56.17-2.25l-8.95,2.46C209.79,60.69,208.89,61.68,208.1,62.61Z"/><path class="cls-4" d="M184.88,56.54l5-1.38-1.63-1.75-4.07,1.11-3.89,1.58c-.16,1.45-.32,3-.49,4.58l5.68-2.3Z"/><path class="cls-4" d="M188.73,67.92l10.39-2.85-1.62-1.75-9.45,2.59-9.17,3.72c-.17,1.57-.33,3.11-.48,4.57l10.95-4.43Z"/><path class="cls-4" d="M166.33,74.71l-8.8,3.56c.87,1,1.83,2,2.84,3.23l13.09-5.3A47.71,47.71,0,0,0,166.33,74.71Z"/><path class="cls-4" d="M217.6,53.78l2.68-.74c.14-.87.24-1.33.24-1.33C219.49,52.4,218.52,53.09,217.6,53.78ZM176.28,77.16l-14.6,5.91c.88,1.06,1.77,2.17,2.63,3.31l27-10.92-.62-1.84,28.76-7.9c0-.76,0-1.49,0-2.2l-15.1,4.15a19.55,19.55,0,0,0-1.07,1.85l-1.15-1.24L190,71.61l-11.81,4.78c0,.51-.1,1-.15,1.49C177.45,77.62,176.86,77.38,176.28,77.16ZM153.76,74.3s.93.93,2.36,2.45l6.06-2.45A58.17,58.17,0,0,0,153.76,74.3ZM183,50.84l2.34-.64L181.38,46s-.35,3.27-.84,7.92l3-1.23ZM193.83,83,168.77,93.15a24,24,0,0,1,1.66,3.7l24.71-10L194.51,85l25.78-7.08c-.1-.72-.18-1.43-.26-2.12Zm-7-20.77,7.71-2.12-1.63-1.75-6.76,1.86-6.53,2.65c-.16,1.51-.32,3.05-.48,4.57l8.32-3.37Z"/><path class="cls-4" d="M191.9,77.3,165.49,88c.82,1.15,1.6,2.31,2.3,3.45l25.42-10.3-.62-1.84,27.08-7.43c0-.74-.1-1.46-.13-2.16Z"/><path class="cls-4" d="M208.1,62.61l11.49-3.15c0-.81.11-1.56.17-2.25l-8.95,2.46C209.79,60.69,208.89,61.68,208.1,62.61Z"/><path class="cls-4" d="M184.88,56.54l5-1.38-1.63-1.75-4.07,1.11-3.89,1.58c-.16,1.45-.32,3-.49,4.58l5.68-2.3Z"/><path class="cls-4" d="M188.73,67.92l10.39-2.85-1.62-1.75-9.45,2.59-9.17,3.72c-.17,1.57-.33,3.11-.48,4.57l10.95-4.43Z"/><path class="cls-4" d="M166.33,74.71l-8.8,3.56c.87,1,1.83,2,2.84,3.23l13.09-5.3A47.71,47.71,0,0,0,166.33,74.71Z"/><circle class="cls-4" cx="180.74" cy="44.29" r="2.74"/><circle class="cls-4" cx="152.53" cy="72.8" r="2.74"/><circle class="cls-4" cx="220.9" cy="49.66" r="2.74"/><path class="cls-3" d="M306.08,121.08v0a44.27,44.27,0,0,0-.66-5.64,40.18,40.18,0,0,0-3.66-10.89l0,0a39.78,39.78,0,0,0-3-4.91,37.79,37.79,0,0,0-3.72-4.47,42,42,0,0,0-4.31-3.84l0,0c-.75-.56-1.49-1.1-2.3-1.62-.44-.3-.87-.56-1.23-.78l-.08,0c-.37-.22-.75-.45-1.17-.68a38.19,38.19,0,0,0-7.71-3.27l-.08-.18A3.11,3.11,0,0,0,276.37,83l-1-.37h0l-.35-.23-.15-.1-.77-.5a10.82,10.82,0,0,0-1.6-.85,8.55,8.55,0,0,0-1.35-.45l-.11,0-.22,0-.19,0h0l-.27,0-1.12-.14c-.72-.07-1.45-.12-2.14-.14H264.9l-1,0c-.31,0-.57,0-.79.06l-.27,0-.49,0h0l-.6.07h0l-.9.14h-.08l-1.85.35-.21,0a3,3,0,0,0-.67.2l-.55.23,0,0c-.21.09-.42.18-.64.29l-.65.31-.32.17a7.44,7.44,0,0,0-.72.31l0-.06,0,0c-.12-.16-.19-.27-.3-.44l-.47-.7c-.47-.71-1-1.44-1.46-2.17L252,77.84l0,0-.41-.57-.06-.08-.22-.29-.06-.07c-.07-.08-.13-.17-.24-.29l-.22-.23L250.5,76l-.07-.06c-.68-.65-1.41-1.35-2.29-2.17a3.27,3.27,0,0,0-.82-.55l-.48-.23-.09,0-.64-.43,0,0h0a10.63,10.63,0,0,0-1.35-.76,5.91,5.91,0,0,0-.61-.24h0l-.28-.12c-.44-.19-.92-.43-1.39-.65L240.9,70l-.07,0-.31-.13a3.17,3.17,0,0,0-.85-.24L236,69.12,234.68,69h0l-.24,0h-.86a6.83,6.83,0,0,0-.9.06l-.64.08-1,.18c-1,.2-2,.43-2.92.64l-.79.18-.27.06-.14,0c-.26,0-.48.11-.67.16l-.22,0-.07,0-.11,0-.12,0-.15,0a14.79,14.79,0,0,0-1.79.68c-.45.13-.9.29-1.42.49l-.06,0-.37.15-.05,0-.33.14h0l-3.13,1.39c-1,.44-2.07.93-3.26,1.47l-2.25-.32-4.64-.62-3.2-.42-2-.25h-.05c-.39,0-.91-.1-1.55-.11h-.87c-.28,0-.59,0-.84.06a15,15,0,0,0-3.29.7,14.66,14.66,0,0,0-1.63.67,14.69,14.69,0,0,0-2.86,1.77l-.63.53-.09.09-.06.05-.15.14-.08.07-.25.25,0,0-.18.18h0l-.22.24-.11.12-.5.59,0,0,0,0-3.63,4.51-.33.39-1,.1h0l-1.48.13-4.57.36h-.06a12.69,12.69,0,0,0-1.56.26,13,13,0,0,0-6.49,3.74l-.38.43-.09.11-.06.07c-.15.19-.3.37-.44.57a11.35,11.35,0,0,0-.81,1.27l0,0-.13.25a.16.16,0,0,0,0,.07l-.29.58c-.55,1.09-1.1,2.14-1.56,3-.62,1.16-1.11,2-1.58,2.79l-.43.69-.31.47-.08.11-.18.26h0c-.35.11-.75.22-1.1.31-.85.21-1.75.38-2.59.53l-1,.2h0a10.43,10.43,0,0,0-1.19.38,10.34,10.34,0,0,0-5.52,5l0,.07-.63,1.37,0,.06-.6,1.37v0c-.45,1.07-.83,2-1.17,3a29,29,0,0,0-1,3.28c0,.06,0,.11,0,.17L140.36,116h-.06l-3,.47c-1.06.15-2.08.33-3.06.51-1.93.33-4,.73-6.05,1.17l-.57.12a3.2,3.2,0,0,0-1.83,1.12l-.75,1a.39.39,0,0,0-.08.1l-.13.18-.06.07-.19.3-.07.09c-.07.12-.13.21-.17.29l-.06.09-.09.16,0,.09-.09.17,0,.06-.13.26-6,.39a3.2,3.2,0,0,0-2.59,1.68l-1,2,0,0c-.13.25-.26.51-.38.76-.23.48-.46,1-.69,1.55s-.43,1.07-.6,1.57c-.1.28-.2.56-.29.84s-.18.59-.25.85c-.18.64-.32,1.23-.44,1.84-.06.35-.12.71-.16,1.06s-.08.67-.1,1a15.66,15.66,0,0,0,0,2.27c0,.39.09.81.15,1.19l.43,2.74a3.17,3.17,0,0,0,2.71,2.64l5.53.76h0l2.41.33,4.14.59.35.05.58.91a3.17,3.17,0,0,0,2.31,1.46l1.62.19c1,.12,2.08.26,3.18.41l1.06.15,1,.14L140,150l8.59,1.46,2.64.45,1.76.28,4.41.64c1.36.19,2.73.36,4,.53l1.89.24c.49.59,1,1.13,1.41,1.64.67.75,1.31,1.4,1.94,2,.38.36.74.68,1.1,1l.59.48,0,0,.27.21,0,0,.29.22.12.08a3.14,3.14,0,0,0,1.2.53l1.75.61a3,3,0,0,0,1.06.19h.45a3.4,3.4,0,0,0,.78-.1l.33-.09c.75-.16,1.6-.3,2.51-.42s1.9-.2,2.69-.23h1.35c.43,0,.82,0,1.19.06l.2,0,.31,0,.5.08.3.06.11.06c.83.56,1.61,1.07,2.37,1.56,1.1.7,2,1.24,2.82,1.74.47.27,1,.55,1.53.86l.72.38,0,0,.39.2.07,0,.71.34.61.28h0l.34.14h0l.15.07,0,0c.15.07.3.12.43.17l.48.17h0l.05,0a5.72,5.72,0,0,0,.7.22l.07,0,.23.06h0l1.74.4a3.2,3.2,0,0,0,2.27-.32l1.54-.87.57-.3c.39-.2.81-.39,1.25-.59a26.09,26.09,0,0,1,2.58-1l.72-.23.61-.17c.42-.12.86-.22,1.3-.31l.69-.14h0l.17.15c.7.54,1.45,1.1,2.23,1.65s1.69,1.14,2.42,1.57c.48.28.95.54,1.41.77.26.14.53.26.78.37l0,0,.33.14.06,0,1.08.43a3.21,3.21,0,0,0,2.54-.08l.57-.28c1.3-.61,2.65-1.3,4.11-2.11s2.76-1.55,4-2.29l0,0c1.07-.67,2.46-1.57,3.85-2.58.6-.43,1.16-.87,1.65-1.28.88.52,1.82,1,2.84,1.55a53.49,53.49,0,0,0,5.36,2.32c.47.18.91.33,1.34.48l.05,0,1.37.46,1.41.43h0l1.36.39c1.55.42,3.1.79,4.62,1.11l0,0a3,3,0,0,0,.85.32l.51.12,1.37.29h0c.58.39,1.19.78,1.82,1.15l.71.44c.64.38,1.3.78,2,1.16l.05,0c.45.25.95.53,1.58.84s1.14.52,1.62.71l.16.06a27.68,27.68,0,0,0,3.54,1.16c.57.15,1.18.28,1.84.4h0c.52.09,1.15.19,1.81.26a23.62,23.62,0,0,0,2.9.17c.32,0,.64,0,1,0a19.85,19.85,0,0,0,2-.16c.3,0,.61-.08.94-.13s.66-.11,1-.18h0a23.29,23.29,0,0,0,3.76-1.15c11.61-3.69,14.12-11.39,14.13-11.41a6.65,6.65,0,0,0,.7-2.14,6.54,6.54,0,0,0-.09-2.25,5.08,5.08,0,0,0-.16-.59,4.84,4.84,0,0,0-.18-.49,5.53,5.53,0,0,0-.46-.91,6.94,6.94,0,0,0-1.16-1.43l-.34-.31,0,0-.17-.15-.05,0-.51-.37a50.94,50.94,0,0,0,3.79-4.32,41.8,41.8,0,0,0,3.11-4.53,38.75,38.75,0,0,0,2.52-5,36.43,36.43,0,0,0,2.76-11A42.31,42.31,0,0,0,306.08,121.08Z"/><path class="cls-2" d="M234.05,154.7c1.77.4,3.5.8,5.25,1.14s3.47.64,5.21.9l1.3.19,1.31.17c.87.12,1.74.23,2.61.32,1.74.21,3.48.37,5.22.52l.2,0,.13,0,.13,0,.55.22.39.16-.7-.22,1.26.13,1.26.15.45,0,.64.35,1.26.68,1.28.69c.86.45,1.72.91,2.57,1.33.42.22.85.44,1.19.59s.76.31,1.16.45c.84.3,1.68.58,2.53.8.42.12.84.23,1.27.32s.86.19,1.29.27c.87.15,1.73.28,2.57.35a19.29,19.29,0,0,0,5.14-.24,23.59,23.59,0,0,0,10-4.79c.39-.3.77-.59,1.14-.9l.54-.45.16-.17.08-.09,0,0,0,0a.81.81,0,0,0,.14-.3.83.83,0,0,0,0-.35.15.15,0,0,0,0-.07l0-.1a1.08,1.08,0,0,0-.08-.19,1.79,1.79,0,0,0-.28-.37l-.09-.08-.11-.1-.23-.18-.62-.43c-.42-.29-.84-.61-1.25-.94a22.25,22.25,0,0,1-2.29-2.16l-.71-.78.81-.75a28.74,28.74,0,0,0,5.77-7.28,32.16,32.16,0,0,0,1.93-4.18,34.46,34.46,0,0,0,1.32-4.35,40,40,0,0,0,1-8.87c0-.74,0-1.48-.06-2.21,0-.37,0-.74-.08-1.1l-.11-1.1a34.85,34.85,0,0,0-.82-4.31,36.75,36.75,0,0,0-8.26-15.09l-.36-.41-.38-.39c-.25-.26-.49-.53-.76-.77s-.51-.52-.78-.76l-.81-.73c-.55-.48-1.1-1-1.68-1.39-.28-.23-.58-.45-.87-.66s-.59-.44-.89-.64a35,35,0,0,0-3.78-2.26,37.8,37.8,0,0,0-4.05-1.81l-1.58-.6-.31-1.24c-.08-.36-.15-.67-.21-1l-.1-.42-.05-.19-.05-.2,1.35,1.48-.28-.16-.18-.1-.15-.1-.15-.1-.13-.1-.24-.19c-.31-.24-.56-.47-.78-.67l-.58-.54-.38-.32s0,0,0,0h0l-.05,0-.09,0-.19-.07-.78-.24c-.53-.15-1.07-.28-1.63-.41l-.37-.08-.45-.09-.82-.15-.83-.13-.89-.1-.41,0-.41,0-.91-.06-1.75-.08.24,0-.53.08-.52.09-.53.11-.53.12-.22.06a2.56,2.56,0,0,0-.87.11c-.31.09-.65.23-1,.37s-.72.3-1.1.44a5.36,5.36,0,0,1-1.21.3l-.17-.67a6,6,0,0,0,.89-.56c.29-.22.58-.46.88-.71a10.33,10.33,0,0,1,1-.72,4.62,4.62,0,0,1,1.31-.56l-.23.06.52-.27.53-.26.55-.25.55-.23.24,0,1.84-.34.9-.14.49-.06.49-.05c.3,0,.59-.07.91-.08l1,0H267c.64,0,1.28.07,1.93.13l1,.12.25,0,.12,0h.07l.11,0a4.76,4.76,0,0,1,.83.27,9.92,9.92,0,0,1,1.16.62c.32.2.59.39.84.56s.48.31.66.41l.13.07.06,0h0l0,0h0l.1,0,.84.33.51,1.16.11.25.11.26.2.51c.12.33.24.64.35.9l-1.89-1.85a36.34,36.34,0,0,1,9.78,3.74c.39.2.76.43,1.14.66s.75.45,1.12.7c.74.48,1.45,1,2.16,1.53a37.83,37.83,0,0,1,4,3.53,34.15,34.15,0,0,1,3.4,4.09,36.26,36.26,0,0,1,2.76,4.55,37.24,37.24,0,0,1,3.37,10,40.44,40.44,0,0,1,.61,5.24,39.83,39.83,0,0,1-.1,5.24,33.36,33.36,0,0,1-2.53,10.06A35.75,35.75,0,0,1,298,141.1a39.1,39.1,0,0,1-2.87,4.18,47.26,47.26,0,0,1-6.95,7.18l.1-1.52a14.26,14.26,0,0,0,2,2,13.89,13.89,0,0,0,1.13.85l.29.2.32.21.36.26.18.15.18.17a3.64,3.64,0,0,1,.9,1.26l.09.26c0,.09.06.2.08.29a3.06,3.06,0,0,1,0,1.13c-.05.39.66,3.36-4.7,7.71-4.12,3.35-10.3,4.09-11.41,4.33l-.85.16L276,170a15.4,15.4,0,0,1-1.69.14,20.93,20.93,0,0,1-3.37-.13c-.55-.06-1.09-.14-1.64-.24s-1.09-.22-1.63-.36a23.5,23.5,0,0,1-3.14-1c-.52-.21-1-.39-1.59-.69s-1-.53-1.46-.78c-.91-.5-1.76-1-2.63-1.56s-1.74-1.11-2.59-1.67l1.08.4-1.31-.26-1.31-.28-.5-.11-.2-.11-.55-.31.68.25-.15,0,.2,0q-2.7-.52-5.37-1.26l-1.32-.38-1.32-.4-1.31-.44c-.44-.15-.87-.3-1.3-.47a48.43,48.43,0,0,1-5.07-2.19,34.11,34.11,0,0,1-4.74-2.8Z"/><path class="cls-2" d="M253,88a.44.44,0,0,1-.1-.25.57.57,0,0,1,0-.27.94.94,0,0,1,.19-.25c.1-.11.19-.18.23-.24s0,0,0,0a.37.37,0,0,0,0,.19.24.24,0,0,0,0,.07v0h0l-.22-.26-.89-1c-.29-.33-.59-.67-.89-1l-.48-.5-.46-.5-1.83-2-.92-1-.46-.47-.22-.22-.09-.08s0,0,0,0,0,0,0,0l.07.06h0l.08.05.2.08-.38-.19c-.95-.53-1.9-1.07-2.84-1.62l.58.27a5.48,5.48,0,0,1-1.2-.43l-.82-.43a3.06,3.06,0,0,0-.56-.24l-.08,0-.21,0-.48-.15c-.6-.18-1.15-.38-1.71-.57l-.82-.29-.4-.15-.19-.07-.09,0-.06,0,.49.12-3.33-.24-.82-.05-.41,0h-.14s0,0,0,0l-.21,0-.31.08-.73.19c-1,.29-2,.64-3.11,1-.28.09-.53.17-.91.27l-.26.09-.2.07h0l-.11,0a7.74,7.74,0,0,0-1.19.59l-.11.06-.25.09a8.81,8.81,0,0,0-1,.45l-.24.12-.29.14-.56.3L222,81.09l-2.38,1.26-2.38,1.24-.67.35-.9-.09-3.92-.36-3.92-.39c-1.31-.13-2.61-.25-3.92-.4l-1.93-.2c-.25,0-.5,0-.69,0H201l-.33,0a5.88,5.88,0,0,0-1.24.3,5.65,5.65,0,0,0-.57.23,6.12,6.12,0,0,0-.56.31,4.67,4.67,0,0,0-.51.36l-.27.22-.09.09-.1.09-.17.17-.06.06,0,0-.19.22-.64.76c-.88,1-1.69,2-2.62,3l-.67.76-.7.76c-.24.25-.46.5-.72.76l-.2.19-.21.21-.25.23a.93.93,0,0,1-.15.13l-.11.1-.78.64-.57,0-.1,0-.21,0-.54.06-.47,0-.95.05-1.81,0h-1.78l-1.77,0-1.77,0H179a3.62,3.62,0,0,0-.57,0,5.15,5.15,0,0,0-2.25.79c-.17.11-.33.24-.48.36l-.23.2-.22.23a5.65,5.65,0,0,0-.4.48.73.73,0,0,0-.1.13l-.12.18-.24.37c-.64,1-1.32,2-2,2.94s-1.37,1.95-2.11,2.91l-.56.72-.59.71-.65.73a6.84,6.84,0,0,1-.83.75l-.21.14.08,0-.15.1-.44.29.25-.19-.4.16-.41.13c-.27.09-.54.15-.8.21-.52.12-1,.22-1.53.3-1,.18-2,.28-3,.4-.24,0-.43.05-.63.09a4.75,4.75,0,0,0-.57.14,5,5,0,0,0-1.07.5,4.56,4.56,0,0,0-1.6,1.72l-.63,1.27c-.21.43-.41.88-.6,1.31-.39.88-.75,1.77-1.07,2.66a21.65,21.65,0,0,0-.79,2.7,10.53,10.53,0,0,0-.22,1.33,5.31,5.31,0,0,0,0,1.26l.09,1-1,.2c-1,.19-2,.38-2.95.55l-3,.55c-2,.35-3.91.74-5.85,1.15s-3.86.88-5.77,1.4-3.8,1.08-5.69,1.68l1-.71-.16.24-.07.1,0,.06-.05.09s-.08.14-.06.11,0,0-.08.19l-.05.09,0,.09-.09.22-.06.15a.41.41,0,0,0,0,.08l-.06.19L130,126c0,.08-.05.15-.07.21s0,.1,0,.16l-.06.27a8.27,8.27,0,0,0-.18,1l-.21,1.37-1.6.26-7.89,1.3,1.94-1.39-.26.6c-.07.19-.14.39-.22.58-.14.39-.27.8-.4,1.2s-.25.81-.36,1.2c0,.2-.09.39-.14.58s-.08.38-.12.59a11.41,11.41,0,0,0-.18,1.16c0,.18,0,.35,0,.52s0,.37,0,.54a7,7,0,0,0,.07,1c0,.16,0,.29.09.44l.15.68-2.56-2.36,3.33.26c1.1.09,2.23.2,3.35.31l3.31.33,1.58.13,1.59.09,1.55.08.93,1.35,1.51,2.17-2.44-1.48c1.5.11,3,.27,4.42.4l1.14.12,1.09.12,2.21.25c.76.09,1.47.19,2.2.29l2.18.3,4.35.6,4.31.59c1.43.2,2.86.39,4.3.57,2.86.35,5.78.75,8.66,1.11l1.62.2L170,145c.83,1.16,1.68,2.29,2.57,3.31.44.52.89,1,1.35,1.47l.69.66.35.31.17.15.08.06,0,0h0l.1.08-2.27-.8h0l-.8.09h.07l1.62,7h0l-1.54-7c1.23-.22,2.43-.37,3.62-.48s2.4-.17,3.65-.16h.93l.93.05c.62,0,1.26.1,1.91.19l.51.08.48.08,1,.21a20.06,20.06,0,0,1,2,.59l.77.29.39.41,0,0h0l0,0-.46-.33.7.44.23.14,0,0c.78.61,1.57,1.2,2.37,1.79s1.61,1.16,2.4,1.69c.4.27.8.54,1.2.79l.61.38.28.17.31.18.31.18.22.13.35.17.11.06h0l.06,0,.33.14.13,0,.08,0h-.09l.13,0,.19.06.36.11-2.07.22.41-.19.43-.2.86-.36c.57-.23,1.14-.44,1.71-.64a34.11,34.11,0,0,1,3.51-1l.89-.2.91-.17c.61-.1,1.22-.18,1.82-.25l.44,0,.48-.05,1,0c.63,0,1.24,0,1.83,0l1,0,.58.59c.56.56,1.12,1.15,1.69,1.71s1.16,1.1,1.76,1.63,1.18,1,1.81,1.51c.31.23.61.46.91.66s.3.2.46.29l.23.13.27.15-1.36,0c1.36-.46,2.7-.93,4-1.44s2.68-1,4-1.61,2.64-1.15,3.91-1.8a36.28,36.28,0,0,0,3.74-2.12l.44.54c-.53.52-1.09,1-1.66,1.48s-1.14.93-1.74,1.36c-1.21.88-2.43,1.68-3.68,2.47s-2.54,1.5-3.83,2.21-2.61,1.39-3.94,2l-.57.28-.78-.31-.3-.12-.33-.14-.64-.3c-.42-.22-.82-.44-1.2-.67-.77-.44-1.52-.95-2.22-1.44s-1.42-1-2.09-1.55-1.34-1.09-2-1.64l1.58.61c-.53,0-1.05.09-1.55.15l-.73.11-.36.07-.39.08c-.51.1-1,.22-1.5.35l-.74.21-.74.24a28.91,28.91,0,0,0-2.9,1.11c-.48.21-.95.43-1.4.66l-.67.35-.67.38-.89.5-1.18-.27-.37-.09-.19,0-.24-.06-.42-.14-.11,0h0l0,0-.39-.13-.29-.12-.16-.07-.07,0-.35-.14-.46-.21-.37-.18-.36-.17-.39-.2-.73-.39-1.41-.79c-.94-.55-1.82-1.1-2.71-1.67s-1.77-1.15-2.64-1.75l.28.18-.82-.46-.21-.11-.26-.23-.19-.17,1.16.7a10.72,10.72,0,0,0-1.24-.3l-.66-.1-.34,0-.32,0q-.69,0-1.41-.06h-.74l-.74,0c-1,0-2,.13-3,.25s-2,.3-3,.51l-1.54-7h.06l1.62,7h0l-.35.09h-.45l-2.26-.8.08.06h0l0,0-.07-.06-.15-.11-.26-.22-.52-.42c-.34-.29-.66-.59-1-.89-.63-.6-1.21-1.22-1.77-1.84s-1.09-1.25-1.6-1.89-1-1.28-1.48-1.92l2.54,1.5-4.36-.54c-1.45-.19-2.9-.37-4.36-.58s-2.92-.41-4.38-.63l-2.2-.35-2.16-.37-8.6-1.46-2.13-.33-1.08-.17-1-.15c-1.47-.2-2.88-.4-4.28-.57l-1.62-.19-.82-1.29L128.17,142l2.48,1.44-1.73-.17-1.74-.21-3.31-.47c-1.09-.16-2.17-.32-3.28-.46l-3.3-.46-2.23-.3-.33-2-.11-.69c0-.3-.09-.62-.11-.93a12,12,0,0,1,0-1.8c0-.29,0-.55.09-.83s.08-.58.13-.86c.11-.56.24-1.08.37-1.56.07-.23.15-.5.23-.75s.16-.5.25-.75c.17-.49.35-.95.54-1.42s.4-.92.62-1.38c.11-.23.22-.46.34-.69l.34-.64.7-1.31,1.25-.08,4-.27,4-.25-1.81,1.64c.11-.41.21-.84.34-1.2l.09-.28c0-.13.09-.27.14-.39l.13-.33.12-.27c0-.1.1-.21.15-.33l.09-.19,0,0,0-.07.16-.3.09-.17.1-.16a3.3,3.3,0,0,1,.18-.31l.2-.29.13-.18.1-.12.18-.23.47-.59.56-.12c2-.41,4-.8,5.95-1.15,1-.17,2-.35,3-.49l3-.47,6-.82,3-.42,2.94-.48-.87,1.14a8.42,8.42,0,0,1,0-1.67,13,13,0,0,1,.27-1.56,25,25,0,0,1,.87-2.94c.33-.95.7-1.88,1.09-2.8l.6-1.37.63-1.38a7,7,0,0,1,2.26-2.62,7.49,7.49,0,0,1,1.55-.84,8,8,0,0,1,.83-.26c.29-.07.57-.12.82-.16.95-.17,1.89-.36,2.8-.58.46-.12.91-.24,1.34-.38l.6-.21.27-.12c.14-.06,0,0,.28-.15l-.2.11h0a1.49,1.49,0,0,1,.21-.15l-.2.14a3.89,3.89,0,0,0,.41-.46l.46-.63.46-.69.45-.71c.59-1,1.14-2,1.68-3s1.06-2,1.59-3.07l.2-.39.09-.19.13-.25c.19-.33.4-.65.61-1l.34-.44.38-.43a8.82,8.82,0,0,1,.83-.79,9.77,9.77,0,0,1,4.08-2,9,9,0,0,1,1.16-.19l1-.09,1.73-.14,1.72-.13c.58,0,1.15-.08,1.71-.14l1.68-.17c.28,0,.54-.06.8-.1l.4,0,.32-.06-.2,0,.19-.05-1.35.68.07-.07s0,0,0,0l.1-.11.27-.31.6-.7q.3-.34.6-.72l.6-.75.61-.74.61-.76,1.22-1.51.61-.76c.14-.18.28-.35.44-.53l.12-.13.11-.12.18-.19.25-.24.16-.14.11-.1.49-.42a12.88,12.88,0,0,1,1.1-.77,11.93,11.93,0,0,1,1.16-.63,10.25,10.25,0,0,1,1.25-.51,11.76,11.76,0,0,1,2.61-.56c.22,0,.46,0,.65,0l.33,0h.35c.47,0,.87,0,1.27.09l2,.25c1.3.16,2.6.34,3.9.51l3.91.53,3.9.55-1.57.27c1.62-.75,3.26-1.49,4.89-2.22l2.46-1.1.65-.28.33-.14.37-.15c.5-.19,1-.35,1.47-.49l-.36.15a12.89,12.89,0,0,1,1.88-.74l.09,0,.13,0,.1,0,.2-.05c.15,0,.33-.09.55-.13l.72-.16c1.08-.25,2.19-.51,3.36-.74l.92-.16.51-.07.63,0h.45l.24,0,.44,0,.84.1,3.35.45.31,0,.17.07.15.07.1,0,.21.09.39.19.77.37c.5.25,1,.49,1.49.7l.33.14.2.08a2.52,2.52,0,0,1,.33.13,8.58,8.58,0,0,1,1,.55l.66.44c.18.12.33.19.39.23l.57.27c.8.74,1.59,1.49,2.38,2.25L248,78.2a1,1,0,0,1,.22.09l.09,0,0,0,.11.08.09.08.1.11a1,1,0,0,1,.14.17l.23.29.41.57.78,1.12c.52.75,1,1.5,1.52,2.26l.38.56c.13.2.22.34.37.55.28.38.52.77.77,1.16l.71,1.16.18.28,0,.08a.39.39,0,0,1,.06.15.52.52,0,0,1,0,.35.73.73,0,0,1-.23.3,3.31,3.31,0,0,1-.3.18s-.05,0,0,0a.39.39,0,0,0,0-.11.1.1,0,0,0,0-.09Z"/><path class="cls-2" d="M264.88,164.9a23.37,23.37,0,0,0,12.83,1.69c5.18-.64,7.61-1.56,10.65-4.16s3.45-5.79,1.15-7.44-2.71-1.86-4.15-3.76c-.84-1.11-1.65-2.38-3-2.86a5.32,5.32,0,0,0-1.68-.27,39.05,39.05,0,0,0-7.31.66q-9.09,1.43-18.13,3.07a3,3,0,0,0-1.61.63C250,156.08,262.66,163.9,264.88,164.9Z"/><path class="cls-3" d="M270.49,166.12a18.56,18.56,0,0,0,2.79,0c.92-.07,1.84-.19,2.75-.35s1.8-.35,2.71-.54c.22-.06.45-.1.67-.15l.67-.15c.44-.1.88-.21,1.31-.33a16.53,16.53,0,0,0,4.76-2c.37-.24.74-.47,1.11-.74l.55-.39c.16-.13.34-.25.5-.39a6.79,6.79,0,0,0,1.61-1.87,3.22,3.22,0,0,0,.44-2.26,2.47,2.47,0,0,0-.49-1.05l-.2-.23-.22-.21-.12-.11-.14-.1-.28-.22c-.75-.58-1.54-1.11-2.28-1.8a21.63,21.63,0,0,1-1.91-2.2,13.4,13.4,0,0,0-.89-1,4.19,4.19,0,0,0-1-.78,2.61,2.61,0,0,0-1.09-.33,8.11,8.11,0,0,0-1.3,0,38.61,38.61,0,0,0-5.46.84l-2.77.58-2.78.56c-3.7.74-7.4,1.49-11.14,2.07l-2.78.42a2.6,2.6,0,0,0-.48.1l-.17.05s0,0,0,0l-.06.05s-.07.06-.08.09a.76.76,0,0,0-.11.16,1.17,1.17,0,0,0,0,.65,4.1,4.1,0,0,0,.39,1,13.18,13.18,0,0,0,1.46,2.15,27.32,27.32,0,0,0,1.86,2.05c.66.66,1.35,1.3,2.07,1.9A25.83,25.83,0,0,0,270.49,166.12Zm-12.21-4.38c-1.48-1.18-1.66-1.44-3.22-2.68a12.87,12.87,0,0,1-2.2-2.17,6.6,6.6,0,0,1-.88-1.53,3.94,3.94,0,0,1-.24-2.15,3.3,3.3,0,0,1,.44-1.14,4.48,4.48,0,0,1,.33-.48l.19-.21.25-.23a3.72,3.72,0,0,1,1.08-.61,7.31,7.31,0,0,1,.89-.25c.5-.1.94-.19,1.42-.27l1.39-.26c3.74-.68,7.5-1.2,11.25-1.71l2.82-.39c.94-.13,1.88-.25,2.84-.33a31.55,31.55,0,0,1,5.84-.1,11.05,11.05,0,0,1,1.53.22,4.32,4.32,0,0,1,1.53.69,5.63,5.63,0,0,1,1.13,1.1c.33.39.6.8.87,1.19a14.15,14.15,0,0,0,1.73,2.15,8.17,8.17,0,0,0,1.05.86c.37.28.77.54,1.16.81l.29.19.15.1.16.12.32.25.29.28a3.82,3.82,0,0,1,.86,1.42,4.89,4.89,0,0,1-.09,3.27,8.55,8.55,0,0,1-1.63,2.73c-.17.2-.36.39-.54.58s-.36.35-.54.52c-.37.34-.75.67-1.15,1a13.19,13.19,0,0,1-2.66,1.59,15.31,15.31,0,0,1-2.93.93,21.28,21.28,0,0,1-2.93.41,37.72,37.72,0,0,1-10.79-.53C263.36,166.12,259.76,162.92,258.28,161.74Z"/><circle class="cls-3" cx="263.98" cy="124.45" r="36.03"/><path class="cls-2" d="M234.52,144.46c.63.24,1.26.45,1.9.65s1.27.4,1.91.58c1.29.35,2.57.68,3.88.95a61.84,61.84,0,0,0,7.86,1.17,57.92,57.92,0,0,0,15.78-.76l1.94-.39,1.92-.49c.64-.15,1.27-.36,1.9-.55s1.26-.38,1.88-.62l1.86-.67,1.83-.77c.3-.13.61-.24.91-.39l.89-.43c.59-.29,1.2-.56,1.78-.87a69.08,69.08,0,0,0,13.08-9.08,53.79,53.79,0,0,1-12.56,10c-.59.34-1.19.63-1.79,1l-.9.46c-.3.16-.61.29-.92.43l-1.85.83-1.89.73c-.63.26-1.28.45-1.92.66s-1.29.43-1.94.58l-2,.52-2,.41a53.26,53.26,0,0,1-8.06.87,52.08,52.08,0,0,1-8.09-.39c-.67-.08-1.33-.19-2-.28l-2-.36c-1.32-.28-2.63-.58-3.92-1s-2.58-.78-3.84-1.24A35.36,35.36,0,0,1,234.52,144.46Z"/><path class="cls-2" d="M234.52,140.75c2.56.19,5.11.25,7.67.23s5.1-.1,7.64-.26,5.08-.38,7.6-.72,5-.7,7.54-1.18,5-1,7.44-1.66,4.9-1.37,7.31-2.18a113.46,113.46,0,0,0,14.12-5.89,71.07,71.07,0,0,1-6.69,3.8c-1.14.59-2.32,1.11-3.49,1.65-.59.27-1.19.49-1.78.74s-1.19.5-1.8.71l-1.81.68c-.6.22-1.22.41-1.83.61-1.22.42-2.46.76-3.69,1.14-2.49.68-5,1.26-7.53,1.76s-5.08.84-7.64,1.12-5.13.44-7.7.49-5.15,0-7.71-.13A63.12,63.12,0,0,1,234.52,140.75Z"/><path class="cls-2" d="M231,132.48c5.41.18,10.8.06,16.18-.24a159.27,159.27,0,0,0,16-1.73c2.66-.41,5.29-.94,7.91-1.53s5.21-1.3,7.78-2.06l1.92-.61,1.9-.66c.32-.11.64-.21,1-.33l.94-.36c.62-.25,1.26-.47,1.87-.74,2.5-1,4.93-2.17,7.34-3.4a63,63,0,0,1-7.06,4,73.54,73.54,0,0,1-7.53,3.1c-.64.24-1.29.44-1.94.65s-1.29.42-1.95.6l-2,.56-2,.5c-2.64.64-5.31,1.19-8,1.62s-5.38.76-8.08,1-5.42.39-8.13.44-5.42,0-8.13-.1S233.69,132.87,231,132.48Z"/><path class="cls-2" d="M240.13,151.32c.54.24,1.09.45,1.65.65s1.12.4,1.68.58c1.13.36,2.26.7,3.41,1a46.8,46.8,0,0,0,6.94,1.18,42.55,42.55,0,0,0,13.92-.88l.85-.2.43-.1.42-.12,1.68-.49c1.1-.39,2.21-.75,3.27-1.23s2.14-.95,3.19-1.46c.52-.26,1-.57,1.54-.85l.77-.42a8.38,8.38,0,0,0,.75-.46,62,62,0,0,0,11-8.83,46.72,46.72,0,0,1-10.44,9.74c-.25.17-.49.35-.75.5l-.77.47c-.51.31-1,.63-1.55.92-1.07.55-2.13,1.13-3.24,1.59s-2.24.89-3.37,1.31l-1.73.52-.44.14-.44.1-.88.21a40.16,40.16,0,0,1-7.16,1,41.28,41.28,0,0,1-7.2-.36c-.59-.08-1.18-.19-1.77-.29s-1.18-.23-1.77-.36-1.16-.28-1.74-.44-1.15-.32-1.72-.51c-1.14-.37-2.26-.78-3.35-1.25A28,28,0,0,1,240.13,151.32Z"/><path class="cls-2" d="M256.91,114.29c0,.51,0,1,0,1.53s0,1,.06,1.52c.07,1,.14,2,.25,3,.2,2,.5,4,.87,6s.81,4,1.38,5.87a50.75,50.75,0,0,0,2,5.68,38.24,38.24,0,0,0,2.65,5.37,33.89,33.89,0,0,0,3.44,4.89,33.33,33.33,0,0,0,4.31,4.17,35.88,35.88,0,0,0,5.09,3.27,27.51,27.51,0,0,1-5.49-2.72,28.55,28.55,0,0,1-4.71-4,34.26,34.26,0,0,1-6.57-10.44,49,49,0,0,1-1.94-5.86,53.82,53.82,0,0,1-1.66-12.17c0-1,0-2,0-3.06A22.24,22.24,0,0,1,256.91,114.29Z"/><path class="cls-2" d="M264.36,114.49a5.14,5.14,0,0,0,0,1.3l.05.64.09.65c.12.85.27,1.7.44,2.55.35,1.7.77,3.37,1.22,5s.95,3.32,1.5,5,1.12,3.26,1.77,4.86,1.28,3.2,2,4.76,1.49,3.1,2.31,4.62c.41.76.83,1.51,1.28,2.25s.9,1.48,1.36,2.21c.94,1.45,1.95,2.86,3,4.26a38.22,38.22,0,0,1-3.55-3.87,46.08,46.08,0,0,1-3-4.3l-.69-1.13-.65-1.15c-.21-.38-.42-.77-.62-1.16s-.41-.77-.6-1.17c-.79-1.57-1.47-3.19-2.13-4.82s-1.21-3.29-1.72-5-.95-3.38-1.3-5.1a50.09,50.09,0,0,1-.84-5.19c-.08-.87-.15-1.75-.16-2.62A8.53,8.53,0,0,1,264.36,114.49Z"/><path class="cls-2" d="M272.64,113.84a4.29,4.29,0,0,0-.1,1.18l0,.6,0,.59c.09.78.19,1.57.33,2.34.26,1.56.6,3.11,1,4.64a82.71,82.71,0,0,0,2.79,9c.55,1.48,1.14,2.94,1.79,4.38s1.34,2.85,2.07,4.24,1.54,2.75,2.39,4.09,1.78,2.62,2.73,3.91a33.17,33.17,0,0,1-3.28-3.52,43.62,43.62,0,0,1-2.78-3.94,49.21,49.21,0,0,1-4.21-8.67,52.68,52.68,0,0,1-2.54-9.3,40.51,40.51,0,0,1-.59-4.78c0-.8-.07-1.61,0-2.41A6.89,6.89,0,0,1,272.64,113.84Z"/><path class="cls-2" d="M250.38,116.59c0,.51,0,1,0,1.52s0,1,.09,1.52c.07,1,.15,2,.28,3,.23,2,.55,4,.94,6s.86,3.93,1.45,5.85a48.71,48.71,0,0,0,2,5.65,38.79,38.79,0,0,0,2.71,5.34,34,34,0,0,0,3.5,4.84,33.32,33.32,0,0,0,4.36,4.12,36,36,0,0,0,5.14,3.21,27,27,0,0,1-5.53-2.65,28.54,28.54,0,0,1-4.76-3.95,34.17,34.17,0,0,1-6.69-10.37,46.68,46.68,0,0,1-2-5.83,52.9,52.9,0,0,1-1.81-12.15c0-1,0-2,0-3.06A19.45,19.45,0,0,1,250.38,116.59Z"/><path class="cls-2" d="M233.56,120.65a12.18,12.18,0,0,0-.05,1.35c0,.46,0,.91,0,1.36.05.9.1,1.8.2,2.69.17,1.8.44,3.57.78,5.33a49.87,49.87,0,0,0,1.31,5.19,37.91,37.91,0,0,0,1.94,5,30.09,30.09,0,0,0,6,8.7l1,.91c.33.3.69.56,1,.86.18.14.34.29.52.42l.54.39.54.4.27.19.29.18,1.13.72c.39.24.79.43,1.18.66l.59.33.62.29,1.22.58-1.3-.39-.65-.21-.64-.25c-.42-.18-.85-.34-1.27-.53l-1.23-.62a24.17,24.17,0,0,1-4.53-3.15,26.48,26.48,0,0,1-3.73-4.11l-.79-1.14-.72-1.19c-.25-.39-.45-.81-.67-1.21s-.43-.82-.62-1.24a37.08,37.08,0,0,1-1.93-5.18,38.24,38.24,0,0,1-1.13-5.39,40.25,40.25,0,0,1-.39-5.47c0-.92,0-1.83.09-2.74A17.41,17.41,0,0,1,233.56,120.65Z"/><path class="cls-4" d="M214.71,126.27c0-20.71,15.74-34,48-38.24a36,36,0,1,0,0,72.05C229.07,157.46,216.09,144.49,214.71,126.27Z"/><path class="cls-3" d="M262.75,161.46a36.84,36.84,0,0,1-8-.86c-12.47-1.76-22.2-5.28-29-10.48-7.5-5.75-11.69-13.74-12.44-23.75v-.1c0-10.84,4.18-19.7,12.42-26.36,5.82-4.7,13.72-8.3,23.57-10.77a37.21,37.21,0,0,1,13.43-2.49l.18,2.75a119.6,119.6,0,0,0-12.69,2.34,34.65,34.65,0,0,0,5.1,66.16c2.39.34,4.9.6,7.51.81Zm-46.66-35.25c1.1,14.24,9.52,23.75,25.61,28.76a37.38,37.38,0,0,1-3.19-59.39C223.63,101.93,216.11,112.18,216.09,126.21Z"/><path class="cls-4" d="M273.92,89.8l-.68-1.63s-5-2.21-13.26-1.1c0,0-23.46,6.62-23.46,35.88s19,37.27,19,37.27,7.45,1.1,11,.83l2.35-1.5s-23.88-1-23.88-37.43C245.63,87.89,273.92,89.8,273.92,89.8Z"/><path class="cls-3" d="M273.8,89.72c-.28-.54-.56-1-.78-1.46l.12.13a19.17,19.17,0,0,0-3.21-.73,32.92,32.92,0,0,0-3.29-.28c-1.09,0-2.19,0-3.29.08-.54,0-1.09.11-1.63.16s-1.09.15-1.63.23l.11,0c-.39.14-.83.31-1.24.49s-.83.36-1.24.56c-.82.39-1.64.81-2.42,1.28a34.8,34.8,0,0,0-4.48,3.12,34,34,0,0,0-7.22,8.06c-.24.39-.49.76-.71,1.16l-.66,1.18c-.22.4-.41.81-.61,1.21l-.3.61-.26.63c-.18.42-.37.83-.54,1.25l-.46,1.27c-.08.22-.17.43-.23.64l-.21.65c-.13.44-.27.87-.4,1.3a44.06,44.06,0,0,0-1.13,5.34l-.21,1.36-.14,1.37-.07.68,0,.34v.35l-.07,1.38c-.08.91-.06,1.84-.08,2.76v.7c0,.23,0,.46,0,.69l0,1.38c0,.47,0,.93.08,1.39l.1,1.38q.13,1.38.33,2.76c.16.91.28,1.83.5,2.73.09.46.18.91.29,1.36l.37,1.34c.11.45.25.89.4,1.33s.27.89.43,1.32l.49,1.3c.17.44.37.86.55,1.28a34.12,34.12,0,0,0,6,9.29,30,30,0,0,0,4.08,3.73,26.85,26.85,0,0,0,2.27,1.56c.39.24.78.47,1.19.68a11.79,11.79,0,0,0,1.2.57l-.16,0c.9.1,1.82.2,2.73.28s1.83.15,2.75.21,1.82.1,2.73.11a23.28,23.28,0,0,0,2.66-.08l-.45.15,2.3-1.56.52,1.92h-.23l-.21,0-.41,0-.81-.11c-.53-.08-1.06-.19-1.58-.31a22.13,22.13,0,0,1-3.06-1,24.69,24.69,0,0,1-5.61-3.07,26.93,26.93,0,0,1-4.68-4.37,28.81,28.81,0,0,1-3.57-5.28,35.94,35.94,0,0,1-2.5-5.82c-.36-1-.63-2-.9-3-.15-.5-.25-1-.36-1.53l-.33-1.54c-.17-1-.35-2.06-.49-3.1l-.17-1.55-.08-.78a6.68,6.68,0,0,1-.07-.77c-.06-1-.14-2.08-.17-3.12s0-2.08,0-3.12l.17-3.14c.11-1,.21-2.08.34-3.12l.27-1.55c.1-.51.16-1,.3-1.54.26-1,.45-2,.79-3.06l.47-1.5.57-1.48c.1-.25.19-.5.29-.74l.34-.72c.23-.47.45-1,.69-1.43a29.24,29.24,0,0,1,3.58-5.24,24.6,24.6,0,0,1,4.73-4.21,26.47,26.47,0,0,1,5.56-2.89,28.2,28.2,0,0,1,6-1.55,26.52,26.52,0,0,1,3.08-.29c.51,0,1,0,1.54,0l.77,0,.39,0h.29s0,0,0,0A.08.08,0,0,0,273.8,89.72Zm.23.16-.11.05h-.39l-.38,0-.75.05c-.51,0-1,.1-1.51.17a27.22,27.22,0,0,0-3,.55c-.49.1-1,.24-1.46.37s-1,.3-1.43.45c-.94.33-1.87.69-2.78,1.11a25.92,25.92,0,0,0-5.06,3.06A23.24,23.24,0,0,0,253,99.85a27.38,27.38,0,0,0-3.08,5c-.21.44-.38.9-.58,1.34l-.29.68-.24.69-.48,1.39-.39,1.42c-.29.94-.45,1.92-.66,2.88-.11.48-.15,1-.23,1.46l-.21,1.47-.26,3-.09,3,.08,3c0,1,.13,2,.2,3l0,.38,0,.37.08.74.17,1.48c.13,1,.31,2,.46,2.94l.3,1.45c.1.48.19,1,.33,1.44.25,1,.47,1.92.8,2.84a33,33,0,0,0,2.21,5.43,25.94,25.94,0,0,0,7.29,8.93,25.23,25.23,0,0,0,2.4,1.62,21.74,21.74,0,0,0,2.6,1.3,22.2,22.2,0,0,0,2.73,1c.46.13.93.24,1.4.34l.7.13.35.05.17,0H269l3.17.33-2.65,1.6-2.39,1.44-.23.14h-.22a27.36,27.36,0,0,1-2.88-.07c-.94-.06-1.87-.16-2.8-.27s-1.85-.23-2.77-.36-1.84-.28-2.76-.44h-.1l-.06,0c-.48-.23-.88-.46-1.3-.71s-.82-.5-1.22-.77a27.51,27.51,0,0,1-2.3-1.72c-.74-.6-1.44-1.25-2.13-1.9-.33-.34-.67-.67-1-1s-.65-.69-1-1.05a38.62,38.62,0,0,1-3.42-4.55,43,43,0,0,1-2.72-5,49.72,49.72,0,0,1-3.52-10.79A60.62,60.62,0,0,1,235.54,122v-1.79l0-.36,0-.72.07-1.43c0-.48.1-1,.15-1.44s.1-1,.18-1.43l.24-1.42c0-.24.08-.48.13-.71l.16-.71.33-1.41A35.13,35.13,0,0,1,241.59,100a33.73,33.73,0,0,1,3.6-4.56,36.76,36.76,0,0,1,4.32-3.86,33.16,33.16,0,0,1,4.88-3.09A28.38,28.38,0,0,1,257,87.28c.44-.19.89-.37,1.35-.53s.9-.3,1.41-.44l.07,0h0l1.71-.13c.57,0,1.14-.06,1.71,0h.86c.28,0,.57,0,.86,0,.57,0,1.13.08,1.7.13a27.6,27.6,0,0,1,3.37.58A17.4,17.4,0,0,1,273.33,88l.1,0,0,.08C273.68,88.7,273.85,89.33,274,89.88Z"/><path class="cls-3" d="M266.61,161.05l2.35-1.5s-23.88-1-23.88-37.43c.55-34.23,28.84-32.32,28.84-32.32l-.68-1.63s-30.37-1.66-30.37,34.51S266.61,161.05,266.61,161.05Z"/><path class="cls-4" d="M159.78,117.16l-29.54,6.9S125,131,132.72,142l38.1,4.14-3-30.92Z"/><path class="cls-5" d="M154.37,129.56a16.21,16.21,0,0,1-.28-7c.78-3.09,3.26-5.41,5.62-7.55-.86.78,2.48,10.06,2.87,11.37,1.15,3.87,2.48,7.7,4,11.46.6,1.5,2.68,4.44.12,4.55-2,.08-4.93-2.4-6.45-3.48C156.71,136.43,155.17,133.8,154.37,129.56Z"/><path class="cls-3" d="M169.59,133.62c-8.88,1.54-30.31,2.55-31.45,2.28a58.76,58.76,0,0,0,1.83,6.89l30.85,3.35Z"/><path class="cls-4" d="M132.17,126.82l-11.87,1.93s-2.48,5.52-1.66,9.11l14.63,1.1Z"/><path class="cls-3" d="M132.09,126.93c-1,.2-2,.42-3,.63l-2.94.64-5.72,1.23.52-.4c-.27.69-.51,1.43-.72,2.16s-.39,1.47-.52,2.2a16.8,16.8,0,0,0-.24,2.2,7.49,7.49,0,0,0,.19,2l-.92-.79,3.67.16c1.22.05,2.44.08,3.67.12s2.44.06,3.66.14,2.44.19,3.66.32l-1.48,1.51c-.05-.93-.07-1.87-.08-2.82s0-1.91,0-2.91Zm.16-.22c.23.85.45,1.78.68,2.73s.44,1.95.65,3,.41,2.09.59,3.16.34,2.17.48,3.26l.2,1.57-1.68-.07c-1.22-.05-2.44-.11-3.66-.23s-2.43-.25-3.65-.4-2.43-.31-3.64-.44l-3.65-.39-.79-.09-.13-.7a9.36,9.36,0,0,1-.09-2.63A16.16,16.16,0,0,1,118,133c.2-.79.46-1.56.73-2.32s.58-1.49.94-2.23l.17-.36.35,0c2.07-.25,4.13-.48,6.15-.7l3-.33Z"/><path class="cls-3" d="M143.19,121l-12.95,3S125,131,132.72,142l9.8,1.07A31.58,31.58,0,0,1,143.19,121Z"/><path class="cls-3" d="M159.81,117.29c-2.47.57-4.91,1.2-7.34,1.92s-4.85,1.46-7.27,2.21l-3.64,1.08c-1.22.35-2.44.69-3.66,1q-3.68.94-7.39,1.72l.68-.44-.11.16c-.05.06-.09.14-.14.21s-.17.3-.25.45-.16.32-.24.48-.15.32-.21.49l-.19.51c-.06.17-.11.35-.16.53a7.57,7.57,0,0,0-.25,1.07,13.77,13.77,0,0,0-.1,4.49l.18,1.14c.09.37.2.74.3,1.12l.15.56c.06.18.14.36.2.55l.42,1.09a3.7,3.7,0,0,0,.24.54l.26.53.53,1.05c.41.67.82,1.34,1.25,2l-.3-.18c1.58.19,3.17.33,4.76.5s3.18.29,4.78.39c3.18.23,6.38.41,9.57.61s6.37.46,9.55.75l4.77.43,4.77.44-1.59,1.58c-.3-2.57-.55-5.15-.79-7.72s-.44-5.16-.62-7.75-.27-5.17-.35-7.77-.11-5.19-.23-7.78l.48.35-2,.37-2,.41-2,.44Zm-.07-.27,2-.5,2-.53,2-.56,2-.59.41-.12.07.46c.39,2.57.86,5.12,1.29,7.68s.84,5.12,1.17,7.69.62,5.14.89,7.72.53,5.15.74,7.73l.15,1.8-1.75-.22-4.75-.59-4.75-.61c-3.17-.4-6.34-.83-9.5-1.32s-6.31-1-9.47-1.46c-1.58-.24-3.17-.43-4.75-.64s-3.17-.39-4.76-.54l-.2,0-.1-.16c-.44-.68-.9-1.35-1.35-2l-.6-1.06-.31-.53a5.61,5.61,0,0,1-.29-.54l-.52-1.11c-.09-.19-.19-.37-.27-.56l-.21-.58c-.15-.39-.3-.78-.43-1.17l-.34-1.21a15.49,15.49,0,0,1-.42-5,9.53,9.53,0,0,1,.18-1.29c.05-.21.08-.42.14-.64l.17-.63c.06-.21.14-.42.22-.63a5.36,5.36,0,0,1,.25-.62,5.73,5.73,0,0,1,.3-.61,3.27,3.27,0,0,1,.17-.31c.07-.1.11-.19.22-.34l.23-.32.45-.12q3.66-.94,7.38-1.73c1.23-.26,2.48-.49,3.72-.72s2.5-.44,3.75-.64c2.5-.41,5-.79,7.49-1.24S157.28,117.6,159.74,117Z"/><path class="cls-2" d="M223,104.4a11.86,11.86,0,0,0,8.82,7.55s8.21,1,18.15-6.21A25,25,0,0,0,253.27,90a36,36,0,0,0-2.53-3.55A20.75,20.75,0,0,0,240,79.34c-1.4-.38-2.95-.86-4.43-1.42a14,14,0,0,0-11,.53l-8.13,3.92-14.11-1.71a7.51,7.51,0,0,0-6.7,2.69c-2.35,2.87-5.56,6.69-6.25,7s-6.15.48-9.91.53A6.26,6.26,0,0,0,174,94c-2.05,3.51-5.34,8.86-6.8,9.59A25,25,0,0,1,161,105a5.08,5.08,0,0,0-3.89,2.74c-1.51,3-3.75,8.07-3.38,10.82,1.93,7.14,11.31,28.68,19.59,35.3,0,0,8.28-1.93,13.53,0,0,0,8,5.8,11,6.35a30.64,30.64,0,0,1,13.25-3.59s4.7,4.42,7.73,5.8c0,0,10.7-4.42,15.43-8.84,0,0-8.53-8.28-10.18-16C223,132.89,222.9,116.21,223,104.4Z"/><path class="cls-3" d="M173.3,153.87c1.11-.27,2.24-.47,3.37-.64s2.26-.28,3.41-.34a26.36,26.36,0,0,1,3.44.05,14.77,14.77,0,0,1,3.4.69h0l0,0q2.63,1.82,5.36,3.45c.91.54,1.84,1.06,2.77,1.54l.71.34.71.32c.24.1.48.17.72.26a1.69,1.69,0,0,0,.35.1l.36.09-.32.05a31.82,31.82,0,0,1,3.18-1.52,32.68,32.68,0,0,1,3.32-1.17,29.11,29.11,0,0,1,3.44-.81,24.52,24.52,0,0,1,3.54-.33h.25l.2.18c.59.53,1.2,1.06,1.81,1.57s1.23,1,1.87,1.5,1.27.95,1.92,1.38a16.1,16.1,0,0,0,2,1.13h-.61c1.34-.58,2.68-1.21,4-1.86s2.63-1.33,3.91-2.05,2.55-1.47,3.75-2.28a27.92,27.92,0,0,0,3.4-2.63v1.38a55.21,55.21,0,0,1-4.46-5,41.69,41.69,0,0,1-3.76-5.56,22,22,0,0,1-2.47-6.39,33.88,33.88,0,0,1-.47-3.36l-.14-1.66-.12-1.65c-.26-4.39-.36-8.77-.44-13.15s-.09-8.75-.09-13.12V97.23l2.51,6.79,0,.12.06.14c0,.1.08.2.13.3s.19.41.3.61.22.39.33.58.25.39.38.57a10.19,10.19,0,0,0,1.82,2l.25.22.27.2c.18.13.36.27.55.39l.57.34.15.09.15.07.3.14.3.15.16.07.15.06.64.23a6.16,6.16,0,0,0,.65.18l.66.17-.11,0,.23,0h.27c.18,0,.37,0,.55,0l.57,0,.57,0,.57,0,.57-.07c.38,0,.76-.11,1.14-.18a29.53,29.53,0,0,0,4.49-1.22c.72-.29,1.46-.55,2.16-.9.35-.16.71-.31,1.06-.49l1-.55.52-.28.5-.3,1-.61c.66-.42,1.3-.88,2-1.31l-.34.35.11-.17.12-.2c.07-.14.15-.28.23-.42s.29-.57.43-.86.28-.59.41-.88.25-.6.37-.91a23.39,23.39,0,0,0,1.12-3.72c.16-.63.24-1.27.35-1.91l.1-1c0-.16,0-.32,0-.48l0-.48a21.4,21.4,0,0,0-.18-3.84l.18.51a35.53,35.53,0,0,0-3-4.08A19.52,19.52,0,0,0,241,81.07l-.58-.19-.6-.18-1.29-.37c-.87-.25-1.73-.53-2.6-.84a21.83,21.83,0,0,0-2.38-.78,12.81,12.81,0,0,0-7.1.38c-.38.14-.76.28-1.12.45l-.58.27-.6.29-2.39,1.15-4.8,2.29-.35.17-.37,0L206,82.37l-2.55-.32-1.28-.16a6.56,6.56,0,0,0-1.08,0,6.3,6.3,0,0,0-3.92,1.56c-.14.12-.27.25-.4.38l-.18.2-.19.21-.82,1-1.67,2c-.56.65-1.12,1.31-1.71,2-.29.32-.58.64-.89,1-.15.17-.31.33-.47.49l-.26.25-.13.12-.17.14-.08.07,0,0-.07,0a3,3,0,0,1-.3.18c-.11,0-.22.09-.33.12l-.13,0-.11,0-.2,0-.18,0-.36,0c-.46,0-.9.08-1.34.11-.87,0-1.74.08-2.6.1-1.73,0-3.45.06-5.16.07a5.34,5.34,0,0,0-3.82,1.68,6.06,6.06,0,0,0-.65.86l-.66,1.1c-.44.74-.89,1.48-1.36,2.21-.92,1.46-1.87,2.91-2.94,4.32-.13.18-.27.35-.42.53a11.14,11.14,0,0,1-1.52,1.54,4.37,4.37,0,0,1-.4.25l-.36.15-.67.24c-.45.14-.88.24-1.32.34-.87.19-1.73.33-2.59.45l-1.3.17-.32,0-.26,0a4.39,4.39,0,0,0-.52.13,4.31,4.31,0,0,0-1.8,1.13,4.6,4.6,0,0,0-.64.88c-.18.34-.38.74-.56,1.12a42.13,42.13,0,0,0-2,4.64,18.81,18.81,0,0,0-.7,2.37,7.89,7.89,0,0,0-.22,2.33v-.09c.42,1.6,1,3.21,1.53,4.79s1.2,3.16,1.84,4.73c1.3,3.12,2.7,6.21,4.21,9.24a96,96,0,0,0,5,8.86,49.92,49.92,0,0,0,2.92,4.15,25.94,25.94,0,0,0,3.48,3.7,25.52,25.52,0,0,1-3.63-3.57c-1.11-1.29-2.13-2.66-3.11-4.06a93.4,93.4,0,0,1-5.29-8.73c-1.63-3-3.12-6.06-4.51-9.18q-1-2.34-2-4.72c-.62-1.59-1.22-3.19-1.71-4.86v-.09a8.52,8.52,0,0,1,.16-2.78,19.7,19.7,0,0,1,.7-2.56,45.51,45.51,0,0,1,2-4.85c.19-.4.36-.77.57-1.19a5.68,5.68,0,0,1,.85-1.22,5.94,5.94,0,0,1,2.46-1.63,6.38,6.38,0,0,1,.72-.19l.37-.07.32,0,1.25-.2c.83-.13,1.66-.29,2.46-.48.4-.1.8-.2,1.17-.33l.53-.19.23-.11.14-.1a5.43,5.43,0,0,0,.76-.76c.13-.15.25-.31.38-.47s.25-.32.37-.49c1-1.33,1.9-2.77,2.78-4.22.44-.72.88-1.45,1.3-2.19l.65-1.11a8,8,0,0,1,.88-1.21,7.37,7.37,0,0,1,5.29-2.43c1.72,0,3.42-.08,5.12-.15.85,0,1.7-.08,2.53-.14.42,0,.84-.06,1.23-.11l.28,0,.14,0,.1,0,.06,0h0l0,0,0,0,.09-.07.1-.09.2-.21c.14-.14.28-.28.42-.44s.56-.61.83-.93c.56-.63,1.11-1.28,1.66-1.93l1.63-2,.81-1,.23-.27.24-.28c.18-.18.35-.36.54-.52A8.65,8.65,0,0,1,201,79.39a9.07,9.07,0,0,1,1.48.06l1.28.15,2.55.3,10.21,1.19-.72.11,4.78-2.33L223,77.72l.6-.29c.2-.1.39-.2.62-.3.44-.2.89-.38,1.35-.55a15.26,15.26,0,0,1,8.59-.48,5.71,5.71,0,0,1,.71.19c.23.06.47.13.7.21l1.26.46q1.22.42,2.46.78l1.27.36.68.2.67.22a22.07,22.07,0,0,1,5,2.54,22.46,22.46,0,0,1,4.23,3.74c.63.72,1.18,1.43,1.73,2.17.27.36.54.74.8,1.12s.51.74.77,1.18l.15.24,0,.27a23.45,23.45,0,0,1,.2,4.35l0,.55a4.93,4.93,0,0,1-.05.54l-.11,1.08c-.12.71-.22,1.43-.39,2.13a28.13,28.13,0,0,1-1.26,4.13c-.13.33-.28.66-.42,1s-.29.66-.45,1-.32.64-.5,1q-.12.24-.27.48l-.14.25-.16.26-.14.22-.2.13c-.7.47-1.39,1-2.1,1.41l-1.09.65-.54.33-.56.29-1.12.59c-.38.19-.77.36-1.15.54-.77.36-1.57.65-2.36,1a30.64,30.64,0,0,1-4.93,1.33c-.42.07-.84.14-1.27.19l-.64.08-.65.05-.65,0-.65,0h-.67l-.34,0-.38,0h-.1l-.82-.21a5.61,5.61,0,0,1-.8-.23l-.79-.29-.2-.07-.19-.09-.38-.19a11.85,11.85,0,0,1-1.48-.82c-.24-.15-.45-.33-.68-.5l-.34-.25-.32-.28a13.23,13.23,0,0,1-2.23-2.5c-.16-.23-.3-.47-.45-.7s-.28-.48-.41-.73-.25-.5-.37-.76-.11-.27-.16-.4a1.8,1.8,0,0,1-.08-.21c0-.07-.05-.14-.09-.24l2.51-.37c0,4.36-.06,8.72,0,13.08s.1,8.72.31,13l.09,1.62.11,1.62c.1,1.06.19,2.14.38,3.13a20,20,0,0,0,2.16,5.81,40.19,40.19,0,0,0,3.5,5.34,54.2,54.2,0,0,0,4.19,4.85l.71.72-.72.66a29.13,29.13,0,0,1-3.7,2.76c-1.28.82-2.6,1.56-3.93,2.27s-2.67,1.37-4,2-2.72,1.24-4.13,1.82l-.31.13-.29-.14a15.66,15.66,0,0,1-2.19-1.31c-.69-.47-1.34-1-2-1.48s-1.27-1-1.88-1.57-1.22-1.09-1.82-1.66l.45.18a22.19,22.19,0,0,0-3.35.23,26.77,26.77,0,0,0-3.32.68,31.53,31.53,0,0,0-3.25,1.05,28.66,28.66,0,0,0-3.1,1.38l-.17.09-.14,0-.42-.11a3.31,3.31,0,0,1-.41-.13c-.26-.11-.53-.2-.78-.32s-.5-.22-.74-.35l-.72-.38c-.94-.52-1.86-1.08-2.77-1.65-1.8-1.16-3.55-2.38-5.27-3.66l.06,0a15.59,15.59,0,0,0-3.27-.78,27.24,27.24,0,0,0-3.38-.18c-1.14,0-2.28.09-3.41.21S174.42,153.65,173.3,153.87Z"/><path class="cls-2" d="M211.12,156.91S197.6,118.54,197.6,118s-3.87-13.8-3.87-13.8-15.18-3.86-20.7,0a12.64,12.64,0,0,0-5.59,10.17c1.62,3.81,12,28.09,19.39,39.52,0,0,8,5.8,11,6.35a30.64,30.64,0,0,1,13.25-3.59"/><path class="cls-3" d="M208.75,152a6.33,6.33,0,0,1-1.51-4.81,1.16,1.16,0,0,0-.05-.86c-.25-.37-.81-.28-1.26-.27a3,3,0,0,1-2.55-1.73,8.89,8.89,0,0,1-.82-3.11l-1.16-8.4a52.14,52.14,0,0,0-1.78-8.95,52.62,52.62,0,0,0-3.15-7.18l-5.91-11.79c-.27-.53-.38-3.73-.91-4-1,1.86-1,5.51-3.37,5.79-.27.1-.6.22-.67.5-.13.47.51.72,1,.88,2.1.77,3.47,3.81,3.6,6a53,53,0,0,0,4,17.5C196,136,198.46,140,200,144.44c.62,1.86,1,4.09-.17,5.65a1.28,1.28,0,0,1,1.64,1.15,2.23,2.23,0,0,1-1.15,1.92,10.85,10.85,0,0,1-2.16.91,10.19,10.19,0,0,0-3.28,2.09,1,1,0,0,0-.39.59c-.06.41,1.83,1.75,2.18,2,2.31,1.41,9.57-1.95,12.28-2,4,0,2.34,2.3,6,.53A30.24,30.24,0,0,1,208.75,152Z"/><path class="cls-3" d="M189.34,152.67a8.94,8.94,0,0,1-5.76-6.44c-.46-1.64-.92-3.11-1.36-4.76-.87-3.29-3.48-5.82-5.25-8.73-3.81-6.27-3.72-14.16-7-20.7a2.48,2.48,0,0,1-.26-1.55c-.8,0-.93,2.4-1.49,3s-2,0-2.73.07-1.6.72-1.35,1.37a2.82,2.82,0,0,1,2.75.83c.68.71.27,2.29.1,3.86s2.92,9.86,4.74,12.91,5,8.42,8.77,14.82c.24.82-.38,2.36-.64,3.36s-1.26,1.27-2.13,1.62-2.67.29-2.53,1.16c3.59-.42,5.81-.84,9.52-.12a8.79,8.79,0,0,1,4.13,2C189.78,154,187.44,153.74,189.34,152.67Z"/><path class="cls-3" d="M167.67,113.77c.86,1.65,1.67,3.33,2.46,5s1.6,3.35,2.36,5c1.56,3.37,3.08,6.75,4.61,10.12s3.07,6.73,4.68,10.06l1.21,2.48c.41.83.83,1.65,1.27,2.46l.64,1.22.68,1.2.36.58c.11.2.23.4.36.59s.24.38.37.56a6.11,6.11,0,0,0,.39.51l0,0c.6.45,1.18.92,1.77,1.39s1.16.94,1.74,1.42c-.66-.36-1.31-.73-2-1.11l-1.94-1.13h0l0,0a5.29,5.29,0,0,1-.53-.53c-.17-.18-.32-.36-.48-.54-.31-.36-.59-.74-.88-1.12l-.81-1.15-.79-1.17c-.5-.79-1-1.59-1.47-2.39s-.94-1.62-1.38-2.44c-1.8-3.28-3.39-6.66-4.91-10.06s-2.91-6.86-4.18-10.36l-.48-1.31-.47-1.31c-.3-.88-.62-1.75-.9-2.64C168.74,117.33,168.18,115.56,167.67,113.77Z"/><path class="cls-5" d="M211.12,156.63H211l.09.28Z"/><path class="cls-2" d="M197.32,88.17c-8.56,3.31-7.73,16.29-7.73,16.29,1.66,4.69,9.66,35.88,13,41.13a98.76,98.76,0,0,0,8.56,11s4.7,4.42,7.73,5.8c0,0,10.7-4.42,15.43-8.84,0,0-8.53-8.28-10.18-16-1.07-4.52-1.19-20.15-1.16-31.85,0-.45-6.77-9.83-6.23-17.7A10.62,10.62,0,0,0,212,85.41C208.82,84.63,201.18,87.34,197.32,88.17Z"/><path class="cls-3" d="M224.46,137.61c-1.06-4.52-.62-20-1.52-31.88,0-.28-3.51-6.26-5.36-11.09-2-3.4-4.78-7.27-6-.41-.48,2.65-.94,3.62-1,6.28-.07,2.4-2.92,7.49-2.74,9.9.3,3.82,3.77,7.07,4.62,10.88,1,4.47,1.73,9,3,13.42a54.48,54.48,0,0,0,2.93,7.46,7.69,7.69,0,0,1-2.35,1.65,12.47,12.47,0,0,0-3.52,2.09c1.31.62,2.86.22,4.26-.19l2.88-.84c.47,1,.94,2,1.39,3h0a15.25,15.25,0,0,1-1.18,2,7.12,7.12,0,0,1-2.32,2.28,8.38,8.38,0,0,1-3.28.84,53.93,53.93,0,0,1-6,.29c1.62,2,2.83,3.3,2.83,3.3a57,57,0,0,0,5,4.16l0,0,.43.31h0l.44.29.06,0,.36.23.08.05a4.36,4.36,0,0,0,.41.24l0,0,.34.18.1.06.37.18h0l.08,0h0l.12,0h0l.16-.07h0l.21-.09h0l.25-.11h0l1-.45h0l.41-.19h0l.43-.2h0l.45-.21h0l.47-.22h0c3.55-1.69,8.78-4.43,11.71-7.17C234.28,153.59,226.12,145.34,224.46,137.61Z"/><path class="cls-2" d="M216.37,82.37l10.16-4.9c2.37-1.14,4.83-2,7.23-.9s5.83,1.23,8,1.75c2.53.62,4.71,3.39,6.5,5.29a41.06,41.06,0,0,1,5,6.37c3,14.35-5,19.92-5,19.92-9.94,7.18-18.64,4.18-23.71,2.56-6.75-3.71-8-9.17-8-9.17a37.23,37.23,0,0,1-1.49-7.06C214.61,92.28,218,87.06,216.37,82.37Z"/><path class="cls-3" d="M215.21,96.22c.17,1.19.38,2.37.65,3.53.13.59.28,1.17.44,1.74s.34,1.15.53,1.7v0a11.76,11.76,0,0,0,1.28,2.74,16,16,0,0,0,1.87,2.41,16.73,16.73,0,0,0,2.27,2,19.23,19.23,0,0,0,2.58,1.62l-.09,0a48.39,48.39,0,0,0,5.57,1.42,23.69,23.69,0,0,0,5.63.34,20.09,20.09,0,0,0,5.48-1.12,23.3,23.3,0,0,0,5-2.52c.39-.25.78-.53,1.16-.8l.14-.11.06,0,.06,0,.24-.21c.16-.14.32-.3.48-.46a13.41,13.41,0,0,0,1.67-2.13,16.31,16.31,0,0,0,2.07-5,17.72,17.72,0,0,0,.44-2.72c.05-.46.05-.93.08-1.39s0-.92,0-1.39a29.65,29.65,0,0,0-.75-5.53l.06.18-.26-.56-.29-.58c-.2-.39-.43-.77-.65-1.15-.45-.76-.94-1.5-1.46-2.21s-1.08-1.4-1.66-2.09A17.08,17.08,0,0,0,246,82a16.12,16.12,0,0,0-4.36-2.55c-.8-.34-1.64-.61-2.47-.88a25,25,0,0,0-2.55-.64,21.47,21.47,0,0,0-5.17-.43,14.62,14.62,0,0,0-2.5.35l-.6.16c-.18.07-.39.12-.55.19l-.26.11-.31.15-.62.31q-4.93,2.51-9.92,4.91l-.27.13-.23,0-2.5-.59-2.49-.61-2.49-.62-2.48-.65,0-.27c.85.09,1.7.17,2.55.27l2.55.31,2.55.31,2.54.34-.51.08q4.77-2.85,9.6-5.62l.6-.35.3-.17.37-.18a10.29,10.29,0,0,1,1.48-.55,17,17,0,0,1,3-.54,22.53,22.53,0,0,1,3,0,23.54,23.54,0,0,1,2.91.32,27.22,27.22,0,0,1,2.84.66,25.65,25.65,0,0,1,2.76.94,17.55,17.55,0,0,1,5.12,3.09,18.22,18.22,0,0,1,2,2.2c.59.74,1.18,1.52,1.71,2.32s1,1.62,1.5,2.47c.22.43.45.85.66,1.29l.3.67.3.71,0,.1v.09a30.76,30.76,0,0,1,.61,6q0,.38,0,.75l0,.76c0,.51-.07,1-.14,1.52a19.1,19.1,0,0,1-.56,3,18.4,18.4,0,0,1-2.49,5.6,15.37,15.37,0,0,1-2,2.38c-.19.18-.38.36-.59.53l-.32.26-.09.07-.09.06-.16.1c-.41.28-.81.56-1.25.82a24.91,24.91,0,0,1-5.43,2.54,21.34,21.34,0,0,1-5.92,1,24.13,24.13,0,0,1-5.94-.55,47.63,47.63,0,0,1-5.64-1.66l-.06,0,0,0a20.59,20.59,0,0,1-2.65-1.8,18.54,18.54,0,0,1-2.31-2.21,16.33,16.33,0,0,1-1.86-2.59c-.26-.46-.5-.94-.72-1.43a9.19,9.19,0,0,1-.53-1.53v0c-.19-.59-.33-1.17-.47-1.76s-.27-1.19-.38-1.78c-.22-1.19-.39-2.39-.51-3.59Z"/><path class="cls-4" d="M192.13,113.13l-3.37-.12-1.65-2.2-2.49-.56a29.72,29.72,0,0,0-18.49,8.56s2.2,15.46,11,25.4c0,0,10.49-3.31,16-7.45l1.66-1.94v-3l2.19-1.64s1.39-2-1.09-10.23S192.13,113.13,192.13,113.13Z"/><path class="cls-3" d="M194.84,131.79v3l-1.66,1.94c-5.52,4.14-16,7.45-16,7.45-8.84-9.94-11-25.4-11-25.4a29.72,29.72,0,0,1,18.49-8.56l2.49.56,1.65,2.2A94.19,94.19,0,0,1,194.84,131.79Z"/><path class="cls-3" d="M177.13,144.1c1.37-.56,2.72-1.15,4.06-1.76.68-.31,1.34-.63,2-1s1.32-.64,2-1c1.3-.68,2.6-1.35,3.84-2.11a41,41,0,0,0,3.49-2.47l-.18.17q.41-.49.84-1c.29-.31.59-.61.89-.91l-.26.68c0-.5.09-1,.15-1.52s.12-1,.2-1.51l.08-.46.2-.11c.41-.21.83-.42,1.25-.61a13.69,13.69,0,0,1,1.3-.55l.13.17a13.77,13.77,0,0,1-.89,1.1c-.3.35-.62.69-.94,1l.28-.56c.08.5.14,1,.2,1.51s.11,1,.15,1.52l0,.31-.27.38-.77,1c-.27.33-.54.65-.82,1l-.09.11-.09.06a27.34,27.34,0,0,1-4,2.22l-1,.48-1,.45c-.69.3-1.38.58-2.08.85-1.4.53-2.81,1-4.23,1.45s-2.84.85-4.29,1.19Z"/><path class="cls-3" d="M192.13,113.24c-.28.07-.57.12-.85.17s-.57.09-.85.14l-.85.11q-.42.06-.84.09l-.26,0-.31-.32c-.65-.66-1.28-1.34-1.88-2l.59.39c-.84-.13-1.68-.26-2.51-.44l.28,0-.27,0-.3,0-.61,0-1.24.13c-.83.1-1.66.22-2.48.4a28.48,28.48,0,0,0-4.83,1.52,30,30,0,0,0-4.56,2.3l-.54.33a5,5,0,0,0-.54.35l-1.05.75c-.36.24-.68.52-1,.79l-1,.82-.15-.16.89-1c.3-.32.6-.64.93-.93l1-.88a5.17,5.17,0,0,1,.51-.42l.52-.41c.68-.56,1.41-1,2.15-1.54.37-.25.76-.45,1.14-.68l.57-.34.59-.3a28.81,28.81,0,0,1,4.94-2c.84-.28,1.71-.53,2.58-.75.44-.09.89-.2,1.34-.26l.68-.09.35,0,.37,0h.15l.13,0c.83.2,1.64.43,2.46.68l.43.13.16.25c.5.78,1,1.57,1.43,2.38l-.56-.29q.42.06.84.15c.28,0,.56.1.83.17l.84.19.84.23Z"/><path class="cls-2" d="M193.18,136.76l1.66-1.94v-3A94.19,94.19,0,0,0,188.76,113l-1.65-2.2-2.49-.56A86.28,86.28,0,0,1,193.18,136.76Z"/><path class="cls-4" d="M183.52,112.46s6.9,17.12,7.73,23.19c-4.42,4.14-13.25,6.63-13.53,6.63,0,0-8.83-12.43-9.94-22.92C167.78,119.36,175.79,112.74,183.52,112.46Z"/><path class="cls-2" d="M181.58,116.6s5.25,12.7-1.1,20.71c0,0-9.94-1.11-14.35-12.15C166.13,125.16,167.78,117.43,181.58,116.6Z"/><path class="cls-4" d="M180.23,118.69s4.19,10.14-.88,16.54a15.11,15.11,0,0,1-11.47-9.71S169.21,119.35,180.23,118.69Z"/><path class="cls-5" d="M180.26,118.65l0,0v0l0,.06.06.13.11.24c.08.17.14.34.21.51.13.33.26.67.38,1,.23.68.43,1.38.6,2.09s.29,1.43.38,2.16a17.64,17.64,0,0,1,.15,2.19,14.76,14.76,0,0,1-.13,2.2,12.2,12.2,0,0,1-.5,2.15,12.58,12.58,0,0,1-.88,2,13.17,13.17,0,0,1-1.24,1.81l-.06.07-.07,0a15.37,15.37,0,0,1-3.77-1.21,15.71,15.71,0,0,1-3.39-2.07,9.32,9.32,0,0,1-.76-.65,7.93,7.93,0,0,1-.71-.71L170,130c-.22-.26-.41-.54-.61-.8a18.67,18.67,0,0,1-1.07-1.7l-.13-.22-.1-.22-.22-.46-.43-.91,0-.11,0-.14a4.42,4.42,0,0,1,.16-.51,3.76,3.76,0,0,1,.2-.46,6.59,6.59,0,0,1,.49-.86,7.86,7.86,0,0,1,.59-.8c.21-.25.45-.47.68-.71a11,11,0,0,1,3.24-2.08l.44-.19a4.13,4.13,0,0,1,.45-.17l.91-.29a7.39,7.39,0,0,1,.93-.22l.93-.2c.62-.08,1.24-.18,1.88-.23Zm0,.07-1.82.3-1.81.39a19.18,19.18,0,0,0-3.45,1.26,11.5,11.5,0,0,0-2.95,2,9.79,9.79,0,0,0-1.13,1.37,7.15,7.15,0,0,0-.44.76c-.05.13-.12.26-.17.39s-.1.28-.13.38l0-.25.38.88.19.44.1.22.11.21a18.36,18.36,0,0,0,1,1.65,16,16,0,0,0,2.48,2.92,13.44,13.44,0,0,0,3.16,2.22,11.74,11.74,0,0,0,3.68,1.18l-.13,0a9.84,9.84,0,0,0,1.07-1.83,12.66,12.66,0,0,0,.69-2,18.68,18.68,0,0,0,.36-2.07c.08-.7.12-1.41.14-2.11a26.27,26.27,0,0,0-.35-4.24c-.12-.71-.25-1.41-.41-2.11-.08-.35-.16-.69-.25-1l-.14-.52-.08-.26,0-.13,0-.06v0S180.21,118.73,180.21,118.72Z"/><path class="cls-3" d="M181.58,116.6s5.25,12.7-1.1,20.71c0,0,8.28-3.59,3.59-20.15A3.68,3.68,0,0,0,181.58,116.6Z"/><path class="cls-3" d="M187.38,130.68s-1.1,5.25-2.76,6.35l4.42-2.48S188.21,131.23,187.38,130.68Z"/><path class="cls-3" d="M179.93,139.24l-1.93,1.1-2.21-3S178.27,139.52,179.93,139.24Z"/><path d="M174.73,130.87a.85.85,0,0,1-.59,0,2.17,2.17,0,0,1-.75-.48l-.12-1a2.77,2.77,0,0,0,.53.36.55.55,0,0,0,.43,0,.29.29,0,0,0,.17-.25.85.85,0,0,0-.1-.43h0a1.3,1.3,0,0,0-.12-.21.62.62,0,0,0-.14-.14.68.68,0,0,0-.21-.1,1.67,1.67,0,0,0-.3-.07,1.89,1.89,0,0,1-.41-.1,1.07,1.07,0,0,1-.37-.21,1.88,1.88,0,0,1-.36-.41,4.31,4.31,0,0,1-.38-.67v0a4.67,4.67,0,0,1-.27-.72,2.43,2.43,0,0,1-.09-.61,1.26,1.26,0,0,1,.08-.46.51.51,0,0,1,.26-.26.71.71,0,0,1,.52,0,2,2,0,0,1,.61.37l.18,1a2.22,2.22,0,0,0-.47-.28.44.44,0,0,0-.35,0,.24.24,0,0,0-.14.24.72.72,0,0,0,.09.38v0l.13.23a.52.52,0,0,0,.16.14.63.63,0,0,0,.22.09l.31.06a2.77,2.77,0,0,1,.41.12,1.38,1.38,0,0,1,.37.24,2,2,0,0,1,.35.4,3.87,3.87,0,0,1,.33.62h0a4.37,4.37,0,0,1,.28.78,2.5,2.5,0,0,1,.09.62,1,1,0,0,1-.09.45A.7.7,0,0,1,174.73,130.87Z"/><path d="M173.32,124.59l.51-.24,1.67,2.13-.52-2.65.52-.24,2.58,5.64-.47.22-1.69-3.68.49,2.69h0l-1.7-2.11,1.68,3.66-.48.22Z"/><path d="M179.67,128.62a.66.66,0,0,1-.55,0,2.21,2.21,0,0,1-.64-.45,5.33,5.33,0,0,1-.65-.82,8.77,8.77,0,0,1-.61-1.1h0a9.47,9.47,0,0,1-.43-1.18,4.71,4.71,0,0,1-.19-1,2.15,2.15,0,0,1,.07-.79.67.67,0,0,1,.35-.44.7.7,0,0,1,.31-.07.84.84,0,0,1,.31.08,1.5,1.5,0,0,1,.32.18l.32.28.11,1a2.36,2.36,0,0,0-.47-.34.35.35,0,0,0-.57.22,1.39,1.39,0,0,0,0,.47,3.35,3.35,0,0,0,.12.62,6.23,6.23,0,0,0,.27.7v0a5.14,5.14,0,0,0,.36.66,3.76,3.76,0,0,0,.38.51,1.54,1.54,0,0,0,.38.29.4.4,0,0,0,.32,0,.42.42,0,0,0,.23-.32,2.17,2.17,0,0,0,0-.6l.67.65a4.53,4.53,0,0,1,0,.5,2.42,2.42,0,0,1-.05.41.75.75,0,0,1-.15.31A.62.62,0,0,1,179.67,128.62Z"/><path class="cls-3" d="M189.59,104.46c2,4.35,3.81,8.76,5.42,13.27.39,1.13.78,2.27,1.15,3.41.18.57.38,1.13.55,1.72s.33,1.17.47,1.76c.58,2.37.94,4.74,1.44,7,.13.57.26,1.13.41,1.69s.32,1.09.5,1.67l1.11,3.37c.39,1.13.77,2.24,1.18,3.34.21.55.42,1.1.65,1.63s.46,1.06.71,1.53c.12.21.29.47.44.72s.31.49.48.74c.32.49.64,1,1,1.46.67,1,1.35,1.94,2,2.89s1.43,1.89,2.16,2.82,1.47,1.87,2.22,2.78l0,0c.56.56,1.15,1.12,1.73,1.67s1.18,1.09,1.78,1.62,1.22,1.05,1.86,1.53a18,18,0,0,0,2,1.36,13.81,13.81,0,0,1-2.18-1.08c-.7-.42-1.38-.87-2-1.33s-1.32-1-2-1.46-1.28-1-1.9-1.54h0l0,0c-.84-.86-1.65-1.74-2.45-2.63s-1.57-1.81-2.34-2.74-1.51-1.87-2.23-2.84c-.37-.48-.72-1-1.07-1.46l-.51-.76c-.17-.25-.34-.49-.51-.79a25.27,25.27,0,0,1-1.55-3.37c-.45-1.13-.85-2.26-1.24-3.4s-.77-2.27-1.13-3.41c-.18-.56-.37-1.16-.52-1.76s-.29-1.19-.42-1.79c-.48-2.38-.78-4.74-1.25-7-.12-.57-.25-1.14-.39-1.7l-.46-1.72c-.31-1.14-.63-2.29-1-3.43l-1-3.42-1-3.42-1-3.42C190.26,106.75,189.91,105.61,189.59,104.46Z"/><path class="cls-3" d="M132.71,130.43l4.56-.49a14.51,14.51,0,0,0,0,5.44h-3.71A12.12,12.12,0,0,1,132.71,130.43Z"/><path class="cls-6" d="M255,159.25a36.21,36.21,0,0,0,7.71.83C260,159.87,257.48,159.59,255,159.25Z"/><path class="cls-2" d="M263.16,95.74a6.42,6.42,0,0,1,1.73-.41c.59-.07,1.18-.1,1.77-.12a22.13,22.13,0,0,1,3.55.22,24.63,24.63,0,0,1,6.86,2,22.25,22.25,0,0,1,6,4,19,19,0,0,1,4.23,5.66,32.19,32.19,0,0,0-4.93-4.84,29.37,29.37,0,0,0-5.83-3.52A35.49,35.49,0,0,0,270,96.49c-1.12-.25-2.25-.47-3.39-.61-.57-.08-1.15-.13-1.73-.17l-.87,0A6.47,6.47,0,0,0,263.16,95.74Z"/><path class="cls-2" d="M259.29,100a6.46,6.46,0,0,1,1.67-.57,17.42,17.42,0,0,1,1.76-.28,22.27,22.27,0,0,1,3.56-.11,24.85,24.85,0,0,1,7,1.34,22.1,22.1,0,0,1,6.29,3.38,19.26,19.26,0,0,1,4.74,5.25,32.64,32.64,0,0,0-5.36-4.37,29.62,29.62,0,0,0-6.13-3,35,35,0,0,0-6.65-1.57c-1.13-.14-2.28-.25-3.43-.29-.58,0-1.16,0-1.74,0l-.86.05A6.17,6.17,0,0,0,259.29,100Z"/><path class="cls-2" d="M261.21,103.7a1.76,1.76,0,0,1,.1-.68,5,5,0,0,1,.25-.64,8,8,0,0,1,.66-1.22A13.18,13.18,0,0,1,264,99a16.09,16.09,0,0,1,4.51-3.2,17.39,17.39,0,0,1,2.6-1,16.69,16.69,0,0,1,2.71-.55,16.28,16.28,0,0,1,5.44.26,38.73,38.73,0,0,0-5.26.81c-.85.2-1.68.44-2.5.72s-1.61.62-2.39,1a22.26,22.26,0,0,0-4.38,2.76,18.81,18.81,0,0,0-1.93,1.76,11.62,11.62,0,0,0-.87,1,5.22,5.22,0,0,0-.38.54A1.81,1.81,0,0,0,261.21,103.7Z"/><path class="cls-2" d="M265.68,106.49a1,1,0,0,1,0-.63,4.27,4.27,0,0,1,.18-.61,7,7,0,0,1,.55-1.14,12.22,12.22,0,0,1,1.5-2,17.77,17.77,0,0,1,3.85-3.18,20.21,20.21,0,0,1,4.54-2.07,17.67,17.67,0,0,1,4.88-.8c-1.54.59-3,1.16-4.5,1.82a37.19,37.19,0,0,0-4.19,2.22,30.63,30.63,0,0,0-3.83,2.78,20.35,20.35,0,0,0-1.71,1.64,11.1,11.1,0,0,0-.76.91,5.19,5.19,0,0,0-.31.5A1,1,0,0,0,265.68,106.49Z"/><path class="cls-2" d="M272.82,107.9a9.53,9.53,0,0,1,1.4-3.43,13,13,0,0,1,5.58-4.83,11.12,11.12,0,0,1,1.75-.64,5.54,5.54,0,0,1,.9-.19c.31-.06.61-.1.92-.13-.52.35-1.05.62-1.56.95s-1,.61-1.48,1a28.86,28.86,0,0,0-2.77,2.11,27.17,27.17,0,0,0-2.48,2.44A31.58,31.58,0,0,0,272.82,107.9Z"/><path class="cls-2" d="M222,100c5.55.26,23.21-3.82,25.23-8.55a18.51,18.51,0,0,0-4.31-3.22s-13.05-2-21.07,6.74C221.86,95,220.69,98.83,222,100Z"/><path class="cls-5" d="M222.06,99.86c.22-.06.52-.1.8-.16s.55-.1.83-.17c.55-.12,1.1-.24,1.65-.38,1.1-.26,2.19-.54,3.28-.82q3.25-.85,6.48-1.79c1.07-.31,2.15-.61,3.23-.9s2.16-.57,3.22-.91a16.23,16.23,0,0,0,3.06-1.29,8,8,0,0,0,1.33-1,3.54,3.54,0,0,0,.92-1.21l.07.44a6.74,6.74,0,0,0-1-.82,9.27,9.27,0,0,0-1.14-.68c-.39-.2-.79-.38-1.2-.56l-1.21-.5.37.13-.65,0h-2.06c-.92,0-1.84.08-2.74.19A31.8,31.8,0,0,0,232,90.54a25.83,25.83,0,0,0-5,2,20.92,20.92,0,0,0-4.38,3.12l.23-.4c-.15.34-.3.75-.44,1.13s-.26.79-.35,1.18a5.53,5.53,0,0,0-.18,1.19,2.24,2.24,0,0,0,0,.58,2.29,2.29,0,0,0,.07.28l.06.14A.62.62,0,0,1,222.06,99.86Zm-.1.26a1.06,1.06,0,0,1-.2-.12l-.15-.13a1.68,1.68,0,0,1-.24-.29,2.65,2.65,0,0,1-.34-.67,5.46,5.46,0,0,1-.3-1.42,9.48,9.48,0,0,1,0-1.41,10.12,10.12,0,0,1,.16-1.42l0-.14.2-.26a18.64,18.64,0,0,1,4.51-4.07,20.53,20.53,0,0,1,5.55-2.5,25.14,25.14,0,0,1,5.95-.91,27.11,27.11,0,0,1,3,0c.49,0,1,.06,1.49.12l.74.1.77.14.28.06.1.08a20.74,20.74,0,0,1,2.11,1.87l1,1c.17.17.33.32.49.5s.32.33.5.52l.18.19-.11.25a5,5,0,0,1-1.11,1.5,12.18,12.18,0,0,1-1.36,1.15,31.15,31.15,0,0,1-3,1.92,27.33,27.33,0,0,1-6.42,2.75,42.67,42.67,0,0,1-6.81,1.32,33.51,33.51,0,0,1-3.48.21c-.58,0-1.16,0-1.75-.07l-.87-.09C222.57,100.24,222.31,100.21,222,100.12Z"/><path class="cls-3" d="M177.52,91.67c1.63-.14,6.83,1.14,8.42,1.51,2.45.58,7.47,1.17,8.92-1.6a.77.77,0,0,0,0-.75,1.8,1.8,0,0,0-.35-.38,2.67,2.67,0,0,1-.23-2.6,21.57,21.57,0,0,1,1.45-3.64l-5.53,5.26a4.41,4.41,0,0,1-3,1.63C185.87,91.76,179,91.84,177.52,91.67Z"/><path class="cls-3" d="M164.34,106.37a4.38,4.38,0,0,0,3.4-.56A4.92,4.92,0,0,0,169,103.6,27.48,27.48,0,0,1,171,99.16q-.66,1.11-1.38,2.19a7.87,7.87,0,0,1-1.48,1.81c-2.42,2-5.93.81-8.51,2.35A19.74,19.74,0,0,0,164.34,106.37Z"/><path class="cls-3" d="M215.47,86a2.08,2.08,0,0,0,.68.26c.64.07,1.14-.51,1.53-1a48.78,48.78,0,0,1,6.56-6.45c-4,1.81-8.15,3.65-12.51,3.41-2.51-.14-5.27-1.19-7.76-.53,1,1.11,4.07,1.21,5.51,1.7A37.94,37.94,0,0,1,215.47,86Z"/><path class="cls-3" d="M208.75,152a6.33,6.33,0,0,1-1.51-4.81,1.16,1.16,0,0,0-.05-.86c-.25-.37-.81-.28-1.26-.27a3,3,0,0,1-2.55-1.73,8.89,8.89,0,0,1-.82-3.11l-1.16-8.4a52.14,52.14,0,0,0-1.78-8.95,52.62,52.62,0,0,0-3.15-7.18l-5.91-11.79c-.27-.53-.38-3.73-.91-4-1,1.86-1,5.51-3.37,5.79-.27.1-.6.22-.67.5-.13.47.51.72,1,.88,1.78.65,3,2.93,3.46,5,.07.37,1.46-.25,1.49.1a90.57,90.57,0,0,1,4.94,17.1c.29.67-1.69,2.72-1.38,3.39A103.18,103.18,0,0,1,200,144.44c.62,1.86,1,4.09-.17,5.65a1.28,1.28,0,0,1,1.64,1.15,2.23,2.23,0,0,1-1.15,1.92,10.85,10.85,0,0,1-2.16.91,10.19,10.19,0,0,0-3.28,2.09,1,1,0,0,0-.39.59c-.06.41,1.83,1.75,2.18,2,2.31,1.41,9.57-1.95,12.28-2,4,0,2.34,2.3,6,.53A30.24,30.24,0,0,1,208.75,152Z"/><path class="cls-3" d="M227.39,103.89c.42,3,.59,3.91,3.28,5.13,1,.44,2.68.66,3.61,1.47.24,1.1-1.24,1.36-1.62,1.45a6.57,6.57,0,0,1-1.66.13,11.93,11.93,0,0,1-3.39-.72c-3.85-1.34-6.74-4-7.39-8.26-.41-2.72-.92-7.11.75-8.6.68,1.22.15,4.72,1.39,5.36a3,3,0,0,0,1.75.11c1.14-.16,5-.32,5-.32s-1.14,1.64-1.44,2.17A3.62,3.62,0,0,0,227.39,103.89Z"/><path class="cls-2" d="M307.33,191.76h18.48V176.1H289.92v32.5h17.41ZM186.15,251.62V176.1h-17.4v72.44q0,3.61-3.48,3.61h-2.55q-3.48,0-3.48-3.61V176.1H141.83v75.52q0,15.66,17.41,15.66h9.51Q186.15,267.28,186.15,251.62ZM188,273h-9.37q-17.42,0-17.41,15.66V319h17.41V292.28q0-3.61,3.48-3.62h2.41q3.48,0,3.48,3.62v29.86H161.18v42h17.41V339.54H188v24.64h17.41V288.66Q205.37,273,188,273Zm136.37-16.26v-6.86h-17V229.25h17v-17.4H289.92v55.43h26.32C321,267.28,324.33,262.33,324.33,256.74ZM109,267.28h9.37q16.2,0,17.41-13.39V232.47a12.84,12.84,0,0,0-5.09-10.58l-20-15.8a4.18,4.18,0,0,1-1.74-3.48v-7.37q0-3.48,3.48-3.48h2.41q3.48,0,3.48,3.48V207.3h17.41V191.76q0-15.66-17.41-15.66H109q-17.41,0-17.41,15.66V207.3A13.14,13.14,0,0,0,93,213.12a12.94,12.94,0,0,0,3.75,4.62l20.09,15.8a4.71,4.71,0,0,1,1.6,3.61v11.39q0,3.48-3.48,3.48h-2.41q-3.48,0-3.48-3.48V231.93H91.62v19.69Q91.62,267.28,109,267.28Zm14.53,62.49L117,273H91.15v68.12a190.64,190.64,0,0,0,14.73,23.06h2.68V305.27l6.83,58.91h16.34l6.69-58.91v58.91h17.41V273H130ZM308.87,273H299.5q-17.42,0-17.41,15.66V319H299.5V292.28q0-3.61,3.48-3.62h2.41q3.48,0,3.48,3.62v29.86H282.09v42H299.5V339.54h9.37v24.64h2.44a191.44,191.44,0,0,0,15-23.52v-52Q326.28,273,308.87,273Zm-74.38-49.64v-31.6q0-15.66-17.41-15.66H192.44v91.18h17.41V239h7.23Q234.5,239,234.49,223.36Zm-20.89-2.27h-3.75V191.76h3.75q3.48,0,3.48,3.48v22.37Q217.08,221.09,213.6,221.09Zm45.86,143.09h17.41V273H259.46Zm24.17-96.9-9.1-33.47q9.09-3.21,9.1-14.46V191.76q0-15.66-17.41-15.66h-26v91.18h17.4v-31.6l7.77,31.6Zm-20.89-50.21h-5.09V191.76h5.09q3.48,0,3.48,3.48v18.35Q266.22,217.07,262.74,217.07ZM237.37,273H228q-17.42,0-17.41,15.66v59.86q0,15.66,17.41,15.66h9.37q17.4,0,17.41-15.66V332.31H237.37v13.13q0,3.48-3.48,3.48h-2.41q-3.48,0-3.48-3.48v-53.3q0-3.48,3.48-3.48h2.41q3.48,0,3.48,3.48v12.05h17.41V288.66Q254.78,273,237.37,273Z"/><path class="cls-7" d="M142.86,394.33l3.35-.37c.15,3.76.4,7.53.86,11.29a77.15,77.15,0,0,0,2.17,11.22c.55,2,4.06,2.5,4.89.44a117.5,117.5,0,0,1,5.49-12c2-3.88,4-7.69,5.76-11.59,2.21-4.81,3.91-9.75,5.66-14.63a103.79,103.79,0,0,1,.06,16.14c-.32,5.9-.9,12-1.4,17.47a2.68,2.68,0,0,0,5,1.13c.23-2.49,1.87-8.28,3.69-14.24s3.8-12.05,4.77-15.28c-.16,1.58-.32,3.16-.49,4.75-.42,4-.78,8-1,12.1a98.34,98.34,0,0,0,.16,12.48c.19,2.56,3.9,3.39,5,1.12,1.65-3.4,2-7.6,2.84-11.26,1-4.35,2.12-8.64,3.29-12.88.72-2.7,1.54-5.53,2.44-8.33a87.23,87.23,0,0,1,3.09-8.24c-.66,4.91-1.29,11-1.62,17.14A111.75,111.75,0,0,0,197,408c.27,2.75.13,5.52,2.58,7.18-16.13.55-32.4,1.42-48.12,5.34-3.18.79-1.57,5.62,1.61,4.83,16.28-4.06,33.27-4.69,50-5.19,16.87-.51,33.75-.31,50.62.34,3.27.13,3-5-.27-5.09-13.22-.51-26.46-.74-39.69-.57.06-.07.11-.15.17-.23,2-2.93,10.08-11.67,12.3-14.26-.79,3.59-1.18,5.09-2,8.74-.48,2,2.56,4.17,4.2,2.75,4.87-4.14,10.17-8.15,15.3-11.79h0c.22-.11.38-.27.58-.39.86-.62,1.72-1.23,2.58-1.87a54.41,54.41,0,0,1-2.73,11.8c-1.47,2.42,2.83,5.08,4.53,2.95,5.37-3.15,7.43-5.17,13.61-9.61,1.39-1,2.24.59,3.78,0s4.22-5,5-2.91-.86,5.22-.83,6.84,1.25,3.09,2.16,3.17,1.78-.61,2.26-2.6-1.09-6-1.16-7.73a10.81,10.81,0,0,1,.48-4.1c.26-.6,2.8-2.37,4.37-3.51,3.72-2.34,4.3-2.17,8-3.49,4.19-1.52,1.69-5.25-1.43-4.7s-11.06,5.37-18.45,10.28-14.45,10-15.49,10.9c.47-3.47,1.43-8.25,2-11.63,4.57-4.62,10.89-9.73,14.56-14.79a2.47,2.47,0,0,0-.58-3.39c-4.32-4-7.28-8.87-10.42-13.47-1.11-1.61-4.41-1.07-4.88.72-.73,4.32-1.2,9-1.7,13.84s-.86,8.9-1.78,13.76c-.91.73-12.67,9.58-17,12.81,1.1-4.9,2.15-9.78,2.85-14.73.44-3.23.68-6.46.88-9.68s.36-6.4.62-9.55c4,1.07,7.18.87,11.64-.51,3-.92,1-5.41-2-4.49-3.93,1.22-6.75,1.39-10.89-.16-1.5-.56-3.31-.08-3.5,1.52-.32,3-.55,5.94-.75,8.94s-.37,6.09-.68,9.14c-1.39-1.8-5.11-6.71-8.91-11.39s-7.63-9.11-9.47-10.23a2.5,2.5,0,0,0-3.31.95c-1.31,2.22.13,5.38.51,7.82a92.88,92.88,0,0,1,1,9.41c.16,3,.21,6,.26,9.47-2.27,4.05-4.55,9.43-6.78,13.87-1.66,3.24-1.49,2.88,0,0a109.86,109.86,0,0,1,0-19.7c.49-6.43,1.37-12.68,2.14-18.53.41-3.1-4.94-3.51-6-2a50.35,50.35,0,0,0-5.3,9.93c-1.48,3.56-2.71,7.27-3.84,10.85-.6,1.9-1.67,5.78-1.67,5.78h0q-1.19,4.23,0,0c.17-1.79.33-3.59.5-5.38.36-3.85.55-7.69.65-11.52.05-2.5.42-5.08-.66-7.46a2.58,2.58,0,0,0-4.83.17c-1,3.64-2.22,7.29-3.39,11s-2.36,7.42-3.46,11.21c-.23.85-.49,1.69-.73,2.54,0-.55.12-1.1.16-1.65.18-3.19.17-7.22,0-11.22s-.44-8-.85-11.13c-.44-2-4-1.54-5,.84-1.38,3.16-2.62,6.41-3.83,9.7s-2.39,6.64-3.72,9.95c-2.63-3.33-5.28-6.14-7.05-10A112.37,112.37,0,0,1,151,363.84c-.72-2.13-3.49-1.95-4.63-.41-1.41,1.92-1,10.51-1,13.19s.66,9.61.71,12.36c-4.46.62-9.94,1-14.82,2.44-2.85.94-1.82,4.61-.42,5.12s3.29-.7,4-1.3a5.27,5.27,0,0,1,3.22-.59c.67.12,1.28.4,1.36,1.62,0,0-.11,2.57-.12,4.47s-1.19,4.32-1.33,6,.59,3.64,2.37,3.38,2.1-1.74,2-3.45-.73-1.71-.94-3.92a53.48,53.48,0,0,1,.12-6.66c0-1,.73-1.63,1.85-1.85m111.54-17c.26-2.77.49-5.54.76-8.33a63.12,63.12,0,0,0,6.39,8c.41.64-3.82,4.8-8,8.79C254.39,382.88,254.66,380.09,254.91,377.3Zm-103.85,1.51c.09.2.17.4.27.6a38.72,38.72,0,0,0,5.24,7.7c-1.72.45-3.57.78-5.4,1.07C151.13,385,151.09,381.88,151.06,378.81Zm5.67,20.25c-1.38,2.66-2.78,5.37-4.12,8.1a120.27,120.27,0,0,1-1.3-14.05,50.49,50.49,0,0,0,9.39-2.05C159.47,393.74,158.1,396.4,156.73,399.06Zm46.15,16.05a2.23,2.23,0,0,0,.57-.73c.14-.33.29-.65.45-1,1.73-3.77,3.68-9.14,5.75-13.21l.07-.11c-.28,4.2-.24,7.51-.79,11.21a4.39,4.39,0,0,0,1.57,3.62Q206.69,415,202.88,415.11Zm19.5-32c-.76.19-7.73,2-8.84,2.49l.06-2.83a56.56,56.56,0,0,0-.81-13C214.12,372.94,223.21,382.78,222.38,383.08Zm5,10.22a2.26,2.26,0,0,0-2.48.63c-3.93,4.23-6.11,6.37-10.06,10.36,0-.1,0-.21,0-.31-.23-3.94-.47-8.89-.56-12.76,5.66-2.24,14.58-5.08,14.77-5.8C228.9,386.63,227.64,392.07,227.41,393.3Z"/><path class="cls-8" d="M142.86,394.33l3.35-.37c.15,3.76.4,7.53.86,11.29a77.15,77.15,0,0,0,2.17,11.22c.55,2,4.06,2.5,4.89.44a117.5,117.5,0,0,1,5.49-12c2-3.88,4-7.69,5.76-11.59,2.21-4.81,3.91-9.75,5.66-14.63a103.79,103.79,0,0,1,.06,16.14c-.32,5.9-.9,12-1.4,17.47a2.68,2.68,0,0,0,5,1.13c.23-2.49,1.87-8.28,3.69-14.24s3.8-12.05,4.77-15.28c-.16,1.58-.32,3.16-.49,4.75-.42,4-.78,8-1,12.1a98.34,98.34,0,0,0,.16,12.48c.19,2.56,3.9,3.39,5,1.12,1.65-3.4,2-7.6,2.84-11.26,1-4.35,2.12-8.64,3.29-12.88.72-2.7,1.54-5.53,2.44-8.33a87.23,87.23,0,0,1,3.09-8.24c-.66,4.91-1.29,11-1.62,17.14A111.75,111.75,0,0,0,197,408c.27,2.75.13,5.52,2.58,7.18-16.13.55-32.4,1.42-48.12,5.34-3.18.79-1.57,5.62,1.61,4.83,16.28-4.06,33.27-4.69,50-5.19,16.87-.51,33.75-.31,50.62.34,3.27.13,3-5-.27-5.09-13.22-.51-26.46-.74-39.69-.57.06-.07.11-.15.17-.23,2-2.93,10.08-11.67,12.3-14.26-.79,3.59-1.18,5.09-2,8.74-.48,2,2.56,4.17,4.2,2.75,4.87-4.14,10.17-8.15,15.3-11.79h0c.22-.11.38-.27.58-.39.86-.62,1.72-1.23,2.58-1.87a54.41,54.41,0,0,1-2.73,11.8c-1.47,2.42,2.83,5.08,4.53,2.95,5.37-3.15,7.43-5.17,13.61-9.61,1.39-1,2.24.59,3.78,0s4.22-5,5-2.91-.86,5.22-.83,6.84,1.25,3.09,2.16,3.17,1.78-.61,2.26-2.6-1.09-6-1.16-7.73a10.81,10.81,0,0,1,.48-4.1c.26-.6,2.8-2.37,4.37-3.51,3.72-2.34,4.3-2.17,8-3.49,4.19-1.52,1.69-5.25-1.43-4.7s-11.06,5.37-18.45,10.28-14.45,10-15.49,10.9c.47-3.47,1.43-8.25,2-11.63,4.57-4.62,10.89-9.73,14.56-14.79a2.47,2.47,0,0,0-.58-3.39c-4.32-4-7.28-8.87-10.42-13.47-1.11-1.61-4.41-1.07-4.88.72-.73,4.32-1.2,9-1.7,13.84s-.86,8.9-1.78,13.76c-.91.73-12.67,9.58-17,12.81,1.1-4.9,2.15-9.78,2.85-14.73.44-3.23.68-6.46.88-9.68s.36-6.4.62-9.55c4,1.07,7.18.87,11.64-.51,3-.92,1-5.41-2-4.49-3.93,1.22-6.75,1.39-10.89-.16-1.5-.56-3.31-.08-3.5,1.52-.32,3-.55,5.94-.75,8.94s-.37,6.09-.68,9.14c-1.39-1.8-5.11-6.71-8.91-11.39s-7.63-9.11-9.47-10.23a2.5,2.5,0,0,0-3.31.95c-1.31,2.22.13,5.38.51,7.82a92.88,92.88,0,0,1,1,9.41c.16,3,.21,6,.26,9.47-2.27,4.05-4.55,9.43-6.78,13.87-1.66,3.24-1.49,2.88,0,0a109.86,109.86,0,0,1,0-19.7c.49-6.43,1.37-12.68,2.14-18.53.41-3.1-4.94-3.51-6-2a50.35,50.35,0,0,0-5.3,9.93c-1.48,3.56-2.71,7.27-3.84,10.85-.6,1.9-1.67,5.78-1.67,5.78h0q-1.19,4.23,0,0c.17-1.79.33-3.59.5-5.38.36-3.85.55-7.69.65-11.52.05-2.5.42-5.08-.66-7.46a2.58,2.58,0,0,0-4.83.17c-1,3.64-2.22,7.29-3.39,11s-2.36,7.42-3.46,11.21c-.23.85-.49,1.69-.73,2.54,0-.55.12-1.1.16-1.65.18-3.19.17-7.22,0-11.22s-.44-8-.85-11.13c-.44-2-4-1.54-5,.84-1.38,3.16-2.62,6.41-3.83,9.7s-2.39,6.64-3.72,9.95c-2.63-3.33-5.28-6.14-7.05-10A112.37,112.37,0,0,1,151,363.84c-.72-2.13-3.49-1.95-4.63-.41-1.41,1.92-1,10.51-1,13.19s.66,9.61.71,12.36c-4.46.62-9.94,1-14.82,2.44-2.85.94-1.82,4.61-.42,5.12s3.29-.7,4-1.3a5.27,5.27,0,0,1,3.22-.59c.67.12,1.28.4,1.36,1.62,0,0-.11,2.57-.12,4.47s-1.19,4.32-1.33,6,.59,3.64,2.37,3.38,2.1-1.74,2-3.45-.73-1.71-.94-3.92a53.48,53.48,0,0,1,.12-6.66c0-1,.73-1.63,1.85-1.85m111.54-17c.26-2.77.49-5.54.76-8.33a63.12,63.12,0,0,0,6.39,8c.41.64-3.82,4.8-8,8.79C254.39,382.88,254.66,380.09,254.91,377.3Zm-103.85,1.51c.09.2.17.4.27.6a38.72,38.72,0,0,0,5.24,7.7c-1.72.45-3.57.78-5.4,1.07C151.13,385,151.09,381.88,151.06,378.81Zm5.67,20.25c-1.38,2.66-2.78,5.37-4.12,8.1a120.27,120.27,0,0,1-1.3-14.05,50.49,50.49,0,0,0,9.39-2.05C159.47,393.74,158.1,396.4,156.73,399.06Zm46.15,16.05a2.23,2.23,0,0,0,.57-.73c.14-.33.29-.65.45-1,1.73-3.77,3.68-9.14,5.75-13.21l.07-.11c-.28,4.2-.24,7.51-.79,11.21a4.39,4.39,0,0,0,1.57,3.62Q206.69,415,202.88,415.11Zm19.5-32c-.76.19-7.73,2-8.84,2.49l.06-2.83a56.56,56.56,0,0,0-.81-13C214.12,372.94,223.21,382.78,222.38,383.08Zm5,10.22a2.26,2.26,0,0,0-2.48.63c-3.93,4.23-6.11,6.37-10.06,10.36,0-.1,0-.21,0-.31-.23-3.94-.47-8.89-.56-12.76,5.66-2.24,14.58-5.08,14.77-5.8C228.9,386.63,227.64,392.07,227.41,393.3Z"/><path class="cls-4" d="M142.86,394.33l3.35-.37c.15,3.76.4,7.53.86,11.29a77.15,77.15,0,0,0,2.17,11.22c.55,2,4.06,2.5,4.89.44a117.5,117.5,0,0,1,5.49-12c2-3.88,4-7.69,5.76-11.59,2.21-4.81,3.91-9.75,5.66-14.63a103.79,103.79,0,0,1,.06,16.14c-.32,5.9-.9,12-1.4,17.47a2.68,2.68,0,0,0,5,1.13c.23-2.49,1.87-8.28,3.69-14.24s3.8-12.05,4.77-15.28c-.16,1.58-.32,3.16-.49,4.75-.42,4-.78,8-1,12.1a98.34,98.34,0,0,0,.16,12.48c.19,2.56,3.9,3.39,5,1.12,1.65-3.4,2-7.6,2.84-11.26,1-4.35,2.12-8.64,3.29-12.88.72-2.7,1.54-5.53,2.44-8.33a87.23,87.23,0,0,1,3.09-8.24c-.66,4.91-1.29,11-1.62,17.14A111.75,111.75,0,0,0,197,408c.27,2.75.13,5.52,2.58,7.18-16.13.55-32.4,1.42-48.12,5.34-3.18.79-1.57,5.62,1.61,4.83,16.28-4.06,33.27-4.69,50-5.19,16.87-.51,33.75-.31,50.62.34,3.27.13,3-5-.27-5.09-13.22-.51-26.46-.74-39.69-.57.06-.07.11-.15.17-.23,2-2.93,10.08-11.67,12.3-14.26-.79,3.59-1.18,5.09-2,8.74-.48,2,2.56,4.17,4.2,2.75,4.87-4.14,10.17-8.15,15.3-11.79h0c.22-.11.38-.27.58-.39.86-.62,1.72-1.23,2.58-1.87a54.41,54.41,0,0,1-2.73,11.8c-1.47,2.42,2.83,5.08,4.53,2.95,5.37-3.15,7.43-5.17,13.61-9.61,1.39-1,2.24.59,3.78,0s4.22-5,5-2.91-.86,5.22-.83,6.84,1.25,3.09,2.16,3.17,1.78-.61,2.26-2.6-1.09-6-1.16-7.73a10.81,10.81,0,0,1,.48-4.1c.26-.6,2.8-2.37,4.37-3.51,3.72-2.34,4.3-2.17,8-3.49,4.19-1.52,1.69-5.25-1.43-4.7s-11.06,5.37-18.45,10.28-14.45,10-15.49,10.9c.47-3.47,1.43-8.25,2-11.63,4.57-4.62,10.89-9.73,14.56-14.79a2.47,2.47,0,0,0-.58-3.39c-4.32-4-7.28-8.87-10.42-13.47-1.11-1.61-4.41-1.07-4.88.72-.73,4.32-1.2,9-1.7,13.84s-.86,8.9-1.78,13.76c-.91.73-12.67,9.58-17,12.81,1.1-4.9,2.15-9.78,2.85-14.73.44-3.23.68-6.46.88-9.68s.36-6.4.62-9.55c4,1.07,7.18.87,11.64-.51,3-.92,1-5.41-2-4.49-3.93,1.22-6.75,1.39-10.89-.16-1.5-.56-3.31-.08-3.5,1.52-.32,3-.55,5.94-.75,8.94s-.37,6.09-.68,9.14c-1.39-1.8-5.11-6.71-8.91-11.39s-7.63-9.11-9.47-10.23a2.5,2.5,0,0,0-3.31.95c-1.31,2.22.13,5.38.51,7.82a92.88,92.88,0,0,1,1,9.41c.16,3,.21,6,.26,9.47-2.27,4.05-4.55,9.43-6.78,13.87-1.66,3.24-1.49,2.88,0,0a109.86,109.86,0,0,1,0-19.7c.49-6.43,1.37-12.68,2.14-18.53.41-3.1-4.94-3.51-6-2a50.35,50.35,0,0,0-5.3,9.93c-1.48,3.56-2.71,7.27-3.84,10.85-.6,1.9-1.67,5.78-1.67,5.78h0q-1.19,4.23,0,0c.17-1.79.33-3.59.5-5.38.36-3.85.55-7.69.65-11.52.05-2.5.42-5.08-.66-7.46a2.58,2.58,0,0,0-4.83.17c-1,3.64-2.22,7.29-3.39,11s-2.36,7.42-3.46,11.21c-.23.85-.49,1.69-.73,2.54,0-.55.12-1.1.16-1.65.18-3.19.17-7.22,0-11.22s-.44-8-.85-11.13c-.44-2-4-1.54-5,.84-1.38,3.16-2.62,6.41-3.83,9.7s-2.39,6.64-3.72,9.95c-2.63-3.33-5.28-6.14-7.05-10A112.37,112.37,0,0,1,151,363.84c-.72-2.13-3.49-1.95-4.63-.41-1.41,1.92-1,10.51-1,13.19s.66,9.61.71,12.36c-4.46.62-9.94,1-14.82,2.44-2.85.94-1.82,4.61-.42,5.12s3.29-.7,4-1.3a5.27,5.27,0,0,1,3.22-.59c.67.12,1.28.4,1.36,1.62,0,0-.11,2.57-.12,4.47s-1.19,4.32-1.33,6,.59,3.64,2.37,3.38,2.1-1.74,2-3.45-.73-1.71-.94-3.92a53.48,53.48,0,0,1,.12-6.66c0-1,.73-1.63,1.85-1.85m111.54-17c.26-2.77.49-5.54.76-8.33a63.12,63.12,0,0,0,6.39,8c.41.64-3.82,4.8-8,8.79C254.39,382.88,254.66,380.09,254.91,377.3Zm-103.85,1.51c.09.2.17.4.27.6a38.72,38.72,0,0,0,5.24,7.7c-1.72.45-3.57.78-5.4,1.07C151.13,385,151.09,381.88,151.06,378.81Zm5.67,20.25c-1.38,2.66-2.78,5.37-4.12,8.1a120.27,120.27,0,0,1-1.3-14.05,50.49,50.49,0,0,0,9.39-2.05C159.47,393.74,158.1,396.4,156.73,399.06Zm46.15,16.05a2.23,2.23,0,0,0,.57-.73c.14-.33.29-.65.45-1,1.73-3.77,3.68-9.14,5.75-13.21l.07-.11c-.28,4.2-.24,7.51-.79,11.21a4.39,4.39,0,0,0,1.57,3.62Q206.69,415,202.88,415.11Zm19.5-32c-.76.19-7.73,2-8.84,2.49l.06-2.83a56.56,56.56,0,0,0-.81-13C214.12,372.94,223.21,382.78,222.38,383.08Zm5,10.22a2.26,2.26,0,0,0-2.48.63c-3.93,4.23-6.11,6.37-10.06,10.36,0-.1,0-.21,0-.31-.23-3.94-.47-8.89-.56-12.76,5.66-2.24,14.58-5.08,14.77-5.8C228.9,386.63,227.64,392.07,227.41,393.3Z"/></g></g></svg>