<svg xmlns="http://www.w3.org/2000/svg" viewBox="0 0 29.64 29.64"><defs><style>.cls-1{opacity:0.3;}.cls-2{fill:#f09d00;}</style></defs><title>Instagram-icono</title><g id="Capa_2" data-name="Capa 2"><g id="Capa_1-2" data-name="Capa 1"><g class="cls-1"><path class="cls-2" d="M22.67,5.29A1.74,1.74,0,1,0,24.41,7,1.74,1.74,0,0,0,22.67,5.29Z"/><path class="cls-2" d="M14.94,7.52a7.3,7.3,0,1,0,7.3,7.3A7.32,7.32,0,0,0,14.94,7.52Zm0,12a4.68,4.68,0,1,1,4.68-4.68A4.68,4.68,0,0,1,14.94,19.5Z"/><path class="cls-2" d="M20.74,29.64H8.9A8.91,8.91,0,0,1,0,20.74V8.9A8.91,8.91,0,0,1,8.9,0H20.74a8.91,8.91,0,0,1,8.9,8.9V20.74A8.91,8.91,0,0,1,20.74,29.64ZM8.9,2.79A6.12,6.12,0,0,0,2.79,8.9V20.74A6.12,6.12,0,0,0,8.9,26.85H20.74a6.12,6.12,0,0,0,6.11-6.11V8.9a6.12,6.12,0,0,0-6.11-6.11Z"/></g></g></g></svg>