<svg xmlns="http://www.w3.org/2000/svg" viewBox="0 0 32.29 26.58"><defs><style>.cls-1{fill:#f09d00;opacity:0.3;}</style></defs><title>Twitter-icono</title><g id="Capa_2" data-name="Capa 2"><g id="Capa_1-2" data-name="Capa 1"><path class="cls-1" d="M32.16,3.19a13.73,13.73,0,0,1-3.27.93c.53-.09,1.3-1,1.61-1.43a5.93,5.93,0,0,0,1.08-2c0-.06.05-.13,0-.17a.19.19,0,0,0-.18,0A16.64,16.64,0,0,1,27.53,2,.26.26,0,0,1,27.26,2a3.55,3.55,0,0,0-.33-.34A6.89,6.89,0,0,0,25.05.48,6.6,6.6,0,0,0,22.17,0a7.07,7.07,0,0,0-2.73.77,7.23,7.23,0,0,0-2.2,1.8,6.76,6.76,0,0,0-1.31,2.64A7,7,0,0,0,15.86,8c0,.15,0,.17-.14.15C10.41,7.36,6,5.46,2.42,1.38c-.16-.18-.24-.18-.37,0-1.56,2.35-.8,6.12,1.15,8a9.38,9.38,0,0,0,.82.72,6.46,6.46,0,0,1-2.57-.72c-.15-.09-.23,0-.24.14a3.29,3.29,0,0,0,0,.76,6.83,6.83,0,0,0,4.2,5.44,4.27,4.27,0,0,0,.86.26A7.86,7.86,0,0,1,3.79,16c-.19,0-.26.06-.19.23A7.08,7.08,0,0,0,8.9,20.7c.24,0,.47,0,.72.1l0,0C9,21.75,6.92,22.42,6,22.76a13,13,0,0,1-5.49.7c-.29,0-.35,0-.43,0s0,.12.08.2c.37.24.75.46,1.14.67A17.38,17.38,0,0,0,4.93,25.8c6.59,1.82,14,.48,19-4.43,3.88-3.86,5.25-9.19,5.25-14.52,0-.21.24-.33.39-.44a12.86,12.86,0,0,0,2.58-2.68.82.82,0,0,0,.17-.52v0C32.29,3.1,32.29,3.13,32.16,3.19Z"/></g></g></svg>